<?xml version="1.0" encoding="UTF-8"?>
<svg width="193px" height="27px" viewBox="0 0 193 27" version="1.1" xmlns="http://www.w3.org/2000/svg" xmlns:xlink="http://www.w3.org/1999/xlink">
    <!-- Generator: sketchtool 62 (101010) - https://sketch.com -->
    <title>F1A714E5-706A-4A16-AEB6-264D49557B69@3x</title>
    <desc>Created with sketchtool.</desc>
    <g id="2020-Final" stroke="none" stroke-width="1" fill="none" fill-rule="evenodd">
        <g id="NADA-2020_Responsive" transform="translate(-91.000000, -167.000000)" fill="#FFFFFF" fill-rule="nonzero">
            <path d="M97.6145455,193.176 C97.7052121,193.176 97.7878788,193.170667 97.8625455,193.16 C98.8332121,193.064 99.7825455,192.864 100.710545,192.56 C101.638545,192.256 102.521212,191.888 103.358545,191.456 C104.195879,191.024 104.979879,190.549333 105.710545,190.032 C106.441212,189.514667 107.097212,188.992 107.678545,188.464 C108.259879,187.936 108.755879,187.424 109.166545,186.928 C109.577212,186.432 109.883879,185.992 110.086545,185.608 C110.171879,185.448 110.235879,185.298667 110.278545,185.16 C110.321212,185.021333 110.353212,184.909333 110.374545,184.824 C110.395879,184.621333 110.369212,184.477333 110.294545,184.392 C110.219879,184.306667 110.123879,184.264 110.006545,184.264 C109.867879,184.264 109.713212,184.325333 109.542545,184.448 C109.371879,184.570667 109.222545,184.728 109.094545,184.92 C108.934545,185.133333 108.683879,185.44 108.342545,185.84 C108.001212,186.24 107.579879,186.677333 107.078545,187.152 C106.577212,187.626667 106.006545,188.112 105.366545,188.608 C104.726545,189.104 104.033212,189.552 103.286545,189.952 C102.539879,190.352 101.747879,190.68 100.910545,190.936 C100.073212,191.192 99.2065455,191.314667 98.3105455,191.304 C97.3292121,191.293333 96.5345455,191.152 95.9265455,190.88 C95.3185455,190.608 94.8492121,190.272 94.5185455,189.872 C94.1878788,189.472 93.9745455,189.050667 93.8785455,188.608 C93.7825455,188.165333 93.7558788,187.768 93.7985455,187.416 C93.9052121,186.978667 94.0732121,186.552 94.3025455,186.136 C94.5318788,185.72 94.7958788,185.322667 95.0945455,184.944 C95.3932121,184.565333 95.7212121,184.208 96.0785455,183.872 C96.4358788,183.536 96.8012121,183.229333 97.1745455,182.952 C97.4732121,183.101333 97.7692121,183.226667 98.0625455,183.328 C98.3558788,183.429333 98.6278788,183.509333 98.8785455,183.568 C99.1292121,183.626667 99.3558788,183.666667 99.5585455,183.688 C99.7612121,183.709333 99.9265455,183.72 100.054545,183.72 C100.790545,183.698667 101.435879,183.610667 101.990545,183.456 C102.545212,183.301333 103.009212,183.112 103.382545,182.888 C103.755879,182.664 104.043879,182.413333 104.246545,182.136 C104.449212,181.858667 104.571879,181.581333 104.614545,181.304 C104.646545,181.048 104.614545,180.805333 104.518545,180.576 C104.422545,180.346667 104.265212,180.146667 104.046545,179.976 C103.827879,179.805333 103.547879,179.672 103.206545,179.576 C102.865212,179.48 102.470545,179.437333 102.022545,179.448 C101.126545,179.48 100.302545,179.584 99.5505455,179.76 C98.7985455,179.936 98.0972121,180.173333 97.4465455,180.472 C97.0838788,180.109333 96.8092121,179.656 96.6225455,179.112 C96.4358788,178.568 96.3958788,177.912 96.5025455,177.144 C96.5238788,177.037333 96.5478788,176.914667 96.5745455,176.776 C96.6012121,176.637333 96.6305455,176.504 96.6625455,176.376 C96.9398788,175.384 97.3825455,174.456 97.9905455,173.592 C98.5985455,172.728 99.3105455,171.96 100.126545,171.288 C100.942545,170.616 101.827879,170.061333 102.782545,169.624 C103.737212,169.186667 104.694545,168.904 105.654545,168.776 C105.803879,168.754667 105.955879,168.741333 106.110545,168.736 C106.265212,168.730667 106.406545,168.728 106.534545,168.728 C107.366545,168.728 108.043879,168.850667 108.566545,169.096 C109.089212,169.341333 109.494545,169.634667 109.782545,169.976 C110.070545,170.317333 110.254545,170.674667 110.334545,171.048 C110.414545,171.421333 110.427879,171.741333 110.374545,172.008 C110.310545,172.296 110.190545,172.562667 110.014545,172.808 C109.838545,173.053333 109.614545,173.264 109.342545,173.44 C109.070545,173.616 108.755879,173.752 108.398545,173.848 C108.041212,173.944 107.654545,173.992 107.238545,173.992 C106.854545,173.992 106.430545,173.938667 105.966545,173.832 C105.502545,173.725333 105.030545,173.581333 104.550545,173.4 C104.454545,173.346667 104.355879,173.312 104.254545,173.296 C104.153212,173.28 104.059879,173.272 103.974545,173.272 C103.729212,173.272 103.521212,173.333333 103.350545,173.456 C103.179879,173.578667 103.078545,173.741333 103.046545,173.944 C103.025212,174.061333 103.049212,174.192 103.118545,174.336 C103.187879,174.48 103.281212,174.616 103.398545,174.744 C103.494545,174.829333 103.654545,174.922667 103.878545,175.024 C104.102545,175.125333 104.371879,175.218667 104.686545,175.304 C105.001212,175.389333 105.347879,175.461333 105.726545,175.52 C106.105212,175.578667 106.497212,175.608 106.902545,175.608 C107.414545,175.608 107.939879,175.554667 108.478545,175.448 C109.017212,175.341333 109.529212,175.157333 110.014545,174.896 C110.499879,174.634667 110.945212,174.28 111.350545,173.832 C111.755879,173.384 112.086545,172.818667 112.342545,172.136 C112.395879,171.997333 112.438545,171.826667 112.470545,171.624 C112.502545,171.346667 112.499879,171.04 112.462545,170.704 C112.425212,170.368 112.329212,170.029333 112.174545,169.688 C112.019879,169.346667 111.795879,169.016 111.502545,168.696 C111.209212,168.376 110.825212,168.090667 110.350545,167.84 C109.875879,167.589333 109.305212,167.386667 108.638545,167.232 C107.971879,167.077333 107.185212,167 106.278545,167 L106.278545,167 L105.958545,167 C105.851879,167 105.739879,167.005333 105.622545,167.016 L105.622545,167.016 L105.638545,167.016 C104.763879,167.058667 103.886545,167.221333 103.006545,167.504 C102.126545,167.786667 101.275879,168.162667 100.454545,168.632 C99.6332121,169.101333 98.8598788,169.648 98.1345455,170.272 C97.4092121,170.896 96.7638788,171.56 96.1985455,172.264 C95.6332121,172.968 95.1692121,173.698667 94.8065455,174.456 C94.4438788,175.213333 94.2145455,175.96 94.1185455,176.696 C93.9692121,177.837333 94.0278788,178.805333 94.2945455,179.6 C94.5612121,180.394667 94.9398788,181.064 95.4305455,181.608 C94.8332121,182.034667 94.2998788,182.490667 93.8305455,182.976 C93.3612121,183.461333 92.9532121,183.946667 92.6065455,184.432 C92.2598788,184.917333 91.9718788,185.386667 91.7425455,185.84 C91.5132121,186.293333 91.3398788,186.696 91.2225455,187.048 C91.1798788,187.165333 91.1452121,187.298667 91.1185455,187.448 C91.0918788,187.597333 91.0678788,187.730667 91.0465455,187.848 C90.9612121,188.488 90.9932121,189.061333 91.1425455,189.568 C91.2918788,190.074667 91.5212121,190.525333 91.8305455,190.92 C92.1398788,191.314667 92.5158788,191.653333 92.9585455,191.936 C93.4012121,192.218667 93.8705455,192.453333 94.3665455,192.64 C94.8625455,192.826667 95.3692121,192.962667 95.8865455,193.048 C96.4038788,193.133333 96.8918788,193.176 97.3505455,193.176 L97.3505455,193.176 L97.6145455,193.176 Z M100.758545,181.736 C100.598545,181.757333 100.414545,181.757333 100.206545,181.736 C99.9985455,181.714667 99.7718788,181.677333 99.5265455,181.624 C100.049212,181.421333 100.481212,181.32 100.822545,181.32 C101.409212,181.32 101.833212,181.333333 102.094545,181.36 C102.355879,181.386667 102.481212,181.416 102.470545,181.448 C102.470545,181.501333 102.313212,181.554667 101.998545,181.608 C101.683879,181.661333 101.270545,181.704 100.758545,181.736 Z M109.918545,191.872 C110.062545,191.866667 110.134545,191.821333 110.134545,191.736 C110.145212,191.576 110.246545,191.370667 110.438545,191.12 C110.630545,190.869333 110.889212,190.589333 111.214545,190.28 C111.539879,189.970667 111.910545,189.637333 112.326545,189.28 C112.742545,188.922667 113.179879,188.552 113.638545,188.168 C114.118545,188.68 114.673212,189.093333 115.302545,189.408 C115.931879,189.722667 116.630545,189.858667 117.398545,189.816 C117.878545,189.794667 118.358545,189.674667 118.838545,189.456 C119.318545,189.237333 119.782545,188.965333 120.230545,188.64 C120.678545,188.314667 121.102545,187.957333 121.502545,187.568 C121.902545,187.178667 122.265212,186.8 122.590545,186.432 C122.915879,186.064 123.198545,185.722667 123.438545,185.408 C123.678545,185.093333 123.862545,184.850667 123.990545,184.68 L123.990545,184.68 L124.166545,184.456 C124.337212,184.253333 124.433212,184.045333 124.454545,183.832 C124.486545,183.629333 124.449212,183.464 124.342545,183.336 C124.235879,183.208 124.091879,183.144 123.910545,183.144 C123.633212,183.144 123.345212,183.32 123.046545,183.672 C123.003879,183.725333 122.961212,183.773333 122.918545,183.816 C122.875879,183.858667 122.833212,183.906667 122.790545,183.96 L122.790545,183.96 L122.806545,183.944 C122.657212,184.125333 122.473212,184.352 122.254545,184.624 C122.035879,184.896 121.787879,185.184 121.510545,185.488 C121.233212,185.792 120.939879,186.096 120.630545,186.4 C120.321212,186.704 120.003879,186.978667 119.678545,187.224 C119.353212,187.469333 119.025212,187.674667 118.694545,187.84 C118.363879,188.005333 118.049212,188.093333 117.750545,188.104 C117.142545,188.146667 116.614545,188.069333 116.166545,187.872 C115.718545,187.674667 115.323879,187.405333 114.982545,187.064 C115.590545,186.562667 116.190545,186.048 116.782545,185.52 C117.374545,184.992 117.910545,184.472 118.390545,183.96 C118.870545,183.448 119.267879,182.954667 119.582545,182.48 C119.897212,182.005333 120.075879,181.570667 120.118545,181.176 C120.129212,181.08 120.075879,180.976 119.958545,180.864 C119.841212,180.752 119.707879,180.658667 119.558545,180.584 C119.409212,180.509333 119.267879,180.469333 119.134545,180.464 C119.001212,180.458667 118.923879,180.52 118.902545,180.648 C118.859879,180.904 118.699879,181.210667 118.422545,181.568 C118.145212,181.925333 117.787879,182.314667 117.350545,182.736 C116.913212,183.157333 116.422545,183.6 115.878545,184.064 C115.334545,184.528 114.779879,184.994667 114.214545,185.464 C114.171879,185.506667 114.107879,185.56 114.022545,185.624 C113.830545,185.24 113.673212,184.853333 113.550545,184.464 C113.427879,184.074667 113.329212,183.706667 113.254545,183.36 C113.179879,183.013333 113.123879,182.706667 113.086545,182.44 C113.049212,182.173333 113.025212,181.970667 113.014545,181.832 C113.014545,181.778667 113.003879,181.730667 112.982545,181.688 C112.961212,181.549333 112.899879,181.453333 112.798545,181.4 C112.697212,181.346667 112.585212,181.317333 112.462545,181.312 C112.339879,181.306667 112.222545,181.322667 112.110545,181.36 C111.998545,181.397333 111.921212,181.437333 111.878545,181.48 C111.654545,181.714667 111.521212,182.024 111.478545,182.408 C111.435879,182.685333 111.430545,182.997333 111.462545,183.344 C111.494545,183.690667 111.558545,184.056 111.654545,184.44 C111.750545,184.824 111.878545,185.216 112.038545,185.616 C112.198545,186.016 112.390545,186.408 112.614545,186.792 C112.123879,187.208 111.654545,187.626667 111.206545,188.048 C110.758545,188.469333 110.361212,188.877333 110.014545,189.272 C109.667879,189.666667 109.385212,190.04 109.166545,190.392 C108.947879,190.744 108.822545,191.064 108.790545,191.352 C108.779879,191.448 108.843879,191.538667 108.982545,191.624 C109.121212,191.709333 109.275879,191.773333 109.446545,191.816 C109.617212,191.858667 109.774545,191.877333 109.918545,191.872 Z M127.062545,190.136 C127.638545,190.157333 128.211879,190.058667 128.782545,189.84 C129.353212,189.621333 129.907879,189.333333 130.446545,188.976 C130.985212,188.618667 131.489212,188.221333 131.958545,187.784 C132.427879,187.346667 132.851879,186.914667 133.230545,186.488 C133.609212,186.061333 133.923879,185.669333 134.174545,185.312 C134.425212,184.954667 134.598545,184.68 134.694545,184.488 C134.758545,184.349333 134.771879,184.213333 134.734545,184.08 C134.697212,183.946667 134.625212,183.842667 134.518545,183.768 C134.411879,183.693333 134.283879,183.653333 134.134545,183.648 C133.985212,183.642667 133.835879,183.693333 133.686545,183.8 C133.633212,183.832 133.553212,183.917333 133.446545,184.056 C133.339879,184.194667 133.211879,184.36 133.062545,184.552 C132.806545,184.904 132.481212,185.325333 132.086545,185.816 C131.691879,186.306667 131.254545,186.781333 130.774545,187.24 C130.294545,187.698667 129.779879,188.088 129.230545,188.408 C128.681212,188.728 128.129212,188.888 127.574545,188.888 C127.254545,188.888 126.993212,188.824 126.790545,188.696 C126.587879,188.568 126.433212,188.413333 126.326545,188.232 C126.219879,188.050667 126.153212,187.861333 126.126545,187.664 C126.099879,187.466667 126.097212,187.298667 126.118545,187.16 C126.246545,186.381333 126.473212,185.714667 126.798545,185.16 C127.123879,184.605333 127.478545,184.146667 127.862545,183.784 C128.246545,183.421333 128.630545,183.146667 129.014545,182.96 C129.398545,182.773333 129.707879,182.653333 129.942545,182.6 L129.942545,182.6 L129.926545,182.6 C130.043879,182.568 130.131879,182.613333 130.190545,182.736 C130.249212,182.858667 130.267879,183.026667 130.246545,183.24 C130.214545,183.464 130.123879,183.712 129.974545,183.984 C129.825212,184.256 129.595879,184.530667 129.286545,184.808 C129.062545,185 129.001212,185.170667 129.102545,185.32 C129.203879,185.469333 129.403879,185.544 129.702545,185.544 C129.915879,185.544 130.169212,185.482667 130.462545,185.36 C130.755879,185.237333 131.025212,185.021333 131.270545,184.712 C131.419879,184.509333 131.547879,184.272 131.654545,184 C131.761212,183.728 131.835879,183.458667 131.878545,183.192 C131.910545,182.936 131.910545,182.682667 131.878545,182.432 C131.846545,182.181333 131.766545,181.957333 131.638545,181.76 C131.510545,181.562667 131.329212,181.405333 131.094545,181.288 C130.859879,181.170667 130.561212,181.112 130.198545,181.112 C129.601212,181.122667 129.038545,181.234667 128.510545,181.448 C127.982545,181.661333 127.494545,181.938667 127.046545,182.28 C126.598545,182.621333 126.190545,183.005333 125.822545,183.432 C125.454545,183.858667 125.137212,184.293333 124.870545,184.736 C124.603879,185.178667 124.387879,185.610667 124.222545,186.032 C124.057212,186.453333 123.953212,186.824 123.910545,187.144 C123.867879,187.773333 123.963879,188.282667 124.198545,188.672 C124.433212,189.061333 124.723879,189.365333 125.070545,189.584 C125.417212,189.802667 125.777212,189.949333 126.150545,190.024 C126.523879,190.098667 126.827879,190.136 127.062545,190.136 Z M137.382545,190.168 C137.937212,190.168 138.481212,190.042667 139.014545,189.792 C139.547879,189.541333 140.054545,189.226667 140.534545,188.848 C141.014545,188.469333 141.454545,188.056 141.854545,187.608 C142.254545,187.16 142.603879,186.736 142.902545,186.336 C143.201212,185.936 143.441212,185.594667 143.622545,185.312 C143.803879,185.029333 143.905212,184.861333 143.926545,184.808 C144.054545,184.530667 144.105212,184.312 144.078545,184.152 C144.051879,183.992 143.987879,183.88 143.886545,183.816 C143.785212,183.752 143.659879,183.728 143.510545,183.744 C143.361212,183.76 143.233212,183.8 143.126545,183.864 C143.083879,183.885333 143.022545,183.954667 142.942545,184.072 C142.862545,184.189333 142.747879,184.338667 142.598545,184.52 C142.427879,184.744 142.233212,185.005333 142.014545,185.304 C141.795879,185.602667 141.553212,185.904 141.286545,186.208 C141.019879,186.512 140.742545,186.813333 140.454545,187.112 C140.166545,187.410667 139.867879,187.674667 139.558545,187.904 C139.249212,188.133333 138.939879,188.314667 138.630545,188.448 C138.321212,188.581333 138.022545,188.637333 137.734545,188.616 C137.617212,188.605333 137.481212,188.568 137.326545,188.504 C137.171879,188.44 137.030545,188.325333 136.902545,188.16 C136.774545,187.994667 136.678545,187.762667 136.614545,187.464 C136.550545,187.165333 136.550545,186.776 136.614545,186.296 C136.625212,186.114667 136.673212,185.885333 136.758545,185.608 C136.758545,185.565333 136.769212,185.533333 136.790545,185.512 C137.174545,185.181333 137.606545,184.805333 138.086545,184.384 C138.566545,183.962667 139.062545,183.504 139.574545,183.008 C140.086545,182.512 140.609212,181.981333 141.142545,181.416 C141.675879,180.850667 142.187879,180.261333 142.678545,179.648 C143.169212,179.034667 143.627879,178.4 144.054545,177.744 C144.481212,177.088 144.849212,176.418667 145.158545,175.736 C145.211879,175.586667 145.259879,175.44 145.302545,175.296 C145.345212,175.152 145.377212,175.005333 145.398545,174.856 C145.473212,174.376 145.411879,174.002667 145.214545,173.736 C145.017212,173.469333 144.710545,173.336 144.294545,173.336 C144.113212,173.336 143.926545,173.362667 143.734545,173.416 C143.094545,173.586667 142.446545,173.906667 141.790545,174.376 C141.134545,174.845333 140.494545,175.418667 139.870545,176.096 C139.246545,176.773333 138.654545,177.525333 138.094545,178.352 C137.534545,179.178667 137.030545,180.032 136.582545,180.912 C136.134545,181.792 135.758545,182.666667 135.454545,183.536 C135.150545,184.405333 134.945212,185.224 134.838545,185.992 C134.763879,186.525333 134.745212,187.024 134.782545,187.488 C134.819879,187.952 134.918545,188.365333 135.078545,188.728 C135.238545,189.090667 135.462545,189.394667 135.750545,189.64 C136.038545,189.885333 136.401212,190.045333 136.838545,190.12 C136.923879,190.141333 137.014545,190.154667 137.110545,190.16 C137.206545,190.165333 137.297212,190.168 137.382545,190.168 Z M137.606545,183 C137.990545,182.093333 138.419879,181.264 138.894545,180.512 C139.369212,179.76 139.849212,179.082667 140.334545,178.48 C140.819879,177.877333 141.289212,177.341333 141.742545,176.872 C142.195879,176.402667 142.593212,175.992 142.934545,175.64 C143.190545,175.362667 143.393212,175.194667 143.542545,175.136 C143.691879,175.077333 143.755879,175.106667 143.734545,175.224 C143.723879,175.309333 143.683879,175.418667 143.614545,175.552 C143.545212,175.685333 143.457212,175.832 143.350545,175.992 C142.177212,177.709333 141.102545,179.133333 140.126545,180.264 C139.150545,181.394667 138.310545,182.306667 137.606545,183 Z M146.246545,190.264 C146.769212,190.274667 147.267879,190.194667 147.742545,190.024 C148.217212,189.853333 148.667879,189.618667 149.094545,189.32 C149.211879,189.501333 149.366545,189.661333 149.558545,189.8 C149.750545,189.938667 149.995879,190.034667 150.294545,190.088 C150.753212,190.130667 151.243879,190.034667 151.766545,189.8 C152.289212,189.565333 152.814545,189.261333 153.342545,188.888 C153.870545,188.514667 154.379879,188.096 154.870545,187.632 C155.361212,187.168 155.801212,186.717333 156.190545,186.28 C156.579879,185.842667 156.902545,185.453333 157.158545,185.112 C157.414545,184.770667 157.569212,184.536 157.622545,184.408 C157.750545,184.098667 157.763879,183.877333 157.662545,183.744 C157.561212,183.610667 157.425212,183.544 157.254545,183.544 C157.137212,183.544 157.022545,183.570667 156.910545,183.624 C156.798545,183.677333 156.715879,183.741333 156.662545,183.816 C156.630545,183.88 156.515879,184.029333 156.318545,184.264 C156.121212,184.498667 155.875879,184.778667 155.582545,185.104 C155.289212,185.429333 154.955879,185.776 154.582545,186.144 C154.209212,186.512 153.830545,186.850667 153.446545,187.16 C153.062545,187.469333 152.681212,187.730667 152.302545,187.944 C151.923879,188.157333 151.579879,188.269333 151.270545,188.28 C151.217212,188.290667 151.131879,188.272 151.014545,188.224 C150.897212,188.176 150.801212,188.056 150.726545,187.864 C151.121212,187.426667 151.475879,186.978667 151.790545,186.52 C152.105212,186.061333 152.377212,185.634667 152.606545,185.24 C152.835879,184.845333 153.019879,184.509333 153.158545,184.232 C153.297212,183.954667 153.382545,183.773333 153.414545,183.688 C153.446545,183.602667 153.475879,183.517333 153.502545,183.432 C153.529212,183.346667 153.547879,183.256 153.558545,183.16 C153.611879,182.786667 153.539879,182.496 153.342545,182.288 C153.145212,182.08 152.891879,181.976 152.582545,181.976 C152.369212,181.976 152.153212,182.032 151.934545,182.144 C151.715879,182.256 151.515879,182.418667 151.334545,182.632 C150.801212,183.24 150.374545,183.824 150.054545,184.384 C149.734545,184.944 149.486545,185.453333 149.310545,185.912 C149.134545,186.370667 149.011879,186.776 148.942545,187.128 C148.873212,187.48 148.827879,187.752 148.806545,187.944 C148.795879,187.997333 148.790545,188.053333 148.790545,188.112 L148.790545,188.112 L148.790545,188.296 C148.523879,188.52 148.251879,188.696 147.974545,188.824 C147.697212,188.952 147.419879,189.005333 147.142545,188.984 C147.046545,188.973333 146.929212,188.936 146.790545,188.872 C146.651879,188.808 146.526545,188.709333 146.414545,188.576 C146.302545,188.442667 146.214545,188.269333 146.150545,188.056 C146.086545,187.842667 146.075879,187.581333 146.118545,187.272 C146.182545,186.834667 146.382545,186.296 146.718545,185.656 C147.054545,185.016 147.601212,184.253333 148.358545,183.368 C148.465212,183.229333 148.513212,183.101333 148.502545,182.984 C148.491879,182.866667 148.435879,182.765333 148.334545,182.68 C148.233212,182.594667 148.097212,182.528 147.926545,182.48 C147.755879,182.432 147.569212,182.408 147.366545,182.408 C147.089212,182.408 146.803879,182.461333 146.510545,182.568 C146.217212,182.674667 145.969212,182.850667 145.766545,183.096 C145.179879,183.8 144.737212,184.472 144.438545,185.112 C144.139879,185.752 143.947879,186.349333 143.862545,186.904 C143.798545,187.384 143.814545,187.824 143.910545,188.224 C144.006545,188.624 144.163879,188.968 144.382545,189.256 C144.601212,189.544 144.870545,189.776 145.190545,189.952 C145.510545,190.128 145.862545,190.232 146.246545,190.264 Z M158.438545,191.528 C158.726545,191.528 159.017212,191.493333 159.310545,191.424 C159.603879,191.354667 159.886545,191.24 160.158545,191.08 C160.430545,190.92 160.686545,190.706667 160.926545,190.44 C161.166545,190.173333 161.371879,189.842667 161.542545,189.448 C161.627879,189.245333 161.697212,188.984 161.750545,188.664 C161.782545,188.418667 161.793212,188.173333 161.782545,187.928 C161.771879,187.682667 161.745212,187.432 161.702545,187.176 C162.139879,186.952 162.595879,186.712 163.070545,186.456 C163.545212,186.2 164.009212,185.930667 164.462545,185.648 C164.915879,185.365333 165.355879,185.066667 165.782545,184.752 C166.209212,184.437333 166.593212,184.098667 166.934545,183.736 C167.073212,183.576 167.129212,183.418667 167.102545,183.264 C167.075879,183.109333 167.003879,182.978667 166.886545,182.872 C166.769212,182.765333 166.630545,182.696 166.470545,182.664 C166.310545,182.632 166.171879,182.669333 166.054545,182.776 C165.307879,183.437333 164.531879,184.002667 163.726545,184.472 C162.921212,184.941333 162.134545,185.378667 161.366545,185.784 L161.366545,185.784 L161.094545,184.92 C160.987879,184.610667 160.897212,184.325333 160.822545,184.064 C160.747879,183.802667 160.705212,183.581333 160.694545,183.4 C160.683879,183.208 160.729212,183.008 160.830545,182.8 C160.931879,182.592 161.070545,182.4 161.246545,182.224 C161.422545,182.048 161.627879,181.896 161.862545,181.768 C162.097212,181.64 162.353212,181.56 162.630545,181.528 C162.758545,181.517333 162.825212,181.445333 162.830545,181.312 C162.835879,181.178667 162.806545,181.032 162.742545,180.872 C162.678545,180.712 162.585212,180.568 162.462545,180.44 C162.339879,180.312 162.214545,180.237333 162.086545,180.216 C161.798545,180.184 161.462545,180.261333 161.078545,180.448 C160.694545,180.634667 160.326545,180.904 159.974545,181.256 C159.622545,181.608 159.318545,182.029333 159.062545,182.52 C158.806545,183.010667 158.662545,183.544 158.630545,184.12 C158.609212,184.429333 158.641212,184.773333 158.726545,185.152 C158.811879,185.530667 158.913212,185.901333 159.030545,186.264 L159.030545,186.264 L159.206545,186.968 C158.577212,187.341333 158.049212,187.722667 157.622545,188.112 C157.195879,188.501333 156.907879,188.936 156.758545,189.416 C156.726545,189.554667 156.705212,189.728 156.694545,189.936 C156.683879,190.144 156.705212,190.354667 156.758545,190.568 C156.811879,190.781333 156.921212,190.973333 157.086545,191.144 C157.251879,191.314667 157.494545,191.426667 157.814545,191.48 C158.006545,191.512 158.214545,191.528 158.438545,191.528 Z M158.422545,190.296 C158.283879,190.296 158.179879,190.229333 158.110545,190.096 C158.041212,189.962667 158.043879,189.789333 158.118545,189.576 C158.171879,189.384 158.315879,189.189333 158.550545,188.992 C158.785212,188.794667 159.078545,188.589333 159.430545,188.376 C159.430545,188.621333 159.398545,188.861333 159.334545,189.096 C159.217212,189.533333 159.073212,189.842667 158.902545,190.024 C158.731879,190.205333 158.571879,190.296 158.422545,190.296 Z M169.430545,181.64 C169.718545,181.725333 169.998545,181.728 170.270545,181.648 C170.542545,181.568 170.798545,181.44 171.038545,181.264 C171.278545,181.088 171.499879,180.874667 171.702545,180.624 C171.905212,180.373333 172.081212,180.109333 172.230545,179.832 C172.251879,179.768 172.286545,179.664 172.334545,179.52 C172.382545,179.376 172.417212,179.224 172.438545,179.064 C172.459879,178.925333 172.467879,178.781333 172.462545,178.632 C172.457212,178.482667 172.433212,178.341333 172.390545,178.208 C172.347879,178.074667 172.278545,177.949333 172.182545,177.832 C172.086545,177.714667 171.953212,177.624 171.782545,177.56 C171.590545,177.485333 171.371879,177.477333 171.126545,177.536 C170.881212,177.594667 170.635879,177.693333 170.390545,177.832 C170.145212,177.970667 169.918545,178.144 169.710545,178.352 C169.502545,178.56 169.334545,178.781333 169.206545,179.016 C169.131879,179.144 169.105212,179.266667 169.126545,179.384 C169.147879,179.501333 169.201212,179.602667 169.286545,179.688 C169.201212,179.72 169.123879,179.776 169.054545,179.856 C168.985212,179.936 168.929212,180.04 168.886545,180.168 L168.886545,180.168 L168.902545,180.168 C168.870545,180.221333 168.841212,180.314667 168.814545,180.448 C168.787879,180.581333 168.782545,180.722667 168.798545,180.872 C168.814545,181.021333 168.867879,181.165333 168.958545,181.304 C169.049212,181.442667 169.206545,181.549333 169.430545,181.624 L169.430545,181.624 L169.430545,181.64 Z M170.156768,180.378667 L170.118545,180.376 C169.990545,180.322667 169.918545,180.256 169.902545,180.176 C169.886545,180.096 169.889212,180.024 169.910545,179.96 L169.910545,179.96 L169.926545,179.88 L170.102545,179.72 C170.219879,179.613333 170.358545,179.496 170.518545,179.368 C170.678545,179.24 170.801212,179.186667 170.886545,179.208 C171.014545,179.24 171.075879,179.290667 171.070545,179.36 C171.065212,179.429333 171.051879,179.490667 171.030545,179.544 L171.030545,179.544 L171.030545,179.528 C170.966545,179.666667 170.886545,179.792 170.790545,179.904 C170.694545,180.016 170.601212,180.106667 170.510545,180.176 C170.419879,180.245333 170.339879,180.298667 170.270545,180.336 C170.201212,180.373333 170.150545,180.386667 170.118545,180.376 L170.156768,180.378667 Z M167.638545,190.12 C168.022545,190.12 168.427879,190.034667 168.854545,189.864 C169.281212,189.693333 169.707879,189.472 170.134545,189.2 C170.561212,188.928 170.977212,188.624 171.382545,188.288 C171.787879,187.952 172.161212,187.618667 172.502545,187.288 C172.843879,186.957333 173.142545,186.645333 173.398545,186.352 C173.654545,186.058667 173.846545,185.821333 173.974545,185.64 C174.187879,185.256 174.283879,184.968 174.262545,184.776 C174.241212,184.584 174.161212,184.466667 174.022545,184.424 C173.883879,184.381333 173.715879,184.402667 173.518545,184.488 C173.321212,184.573333 173.158545,184.696 173.030545,184.856 C172.966545,184.941333 172.841212,185.090667 172.654545,185.304 C172.467879,185.517333 172.235879,185.765333 171.958545,186.048 C171.681212,186.330667 171.371879,186.624 171.030545,186.928 C170.689212,187.232 170.342545,187.512 169.990545,187.768 C169.638545,188.024 169.283879,188.234667 168.926545,188.4 C168.569212,188.565333 168.241212,188.648 167.942545,188.648 C167.782545,188.648 167.657212,188.562667 167.566545,188.392 C167.475879,188.221333 167.478545,187.912 167.574545,187.464 C167.627879,187.24 167.718545,186.986667 167.846545,186.704 C167.974545,186.421333 168.118545,186.128 168.278545,185.824 C168.438545,185.52 168.611879,185.218667 168.798545,184.92 C168.985212,184.621333 169.158545,184.338667 169.318545,184.072 C169.531879,183.730667 169.710545,183.434667 169.854545,183.184 C169.998545,182.933333 170.081212,182.749333 170.102545,182.632 C170.134545,182.450667 170.070545,182.314667 169.910545,182.224 C169.750545,182.133333 169.542545,182.088 169.286545,182.088 C169.126545,182.088 168.961212,182.101333 168.790545,182.128 C168.619879,182.154667 168.454545,182.194667 168.294545,182.248 C168.134545,182.301333 167.987879,182.365333 167.854545,182.44 C167.721212,182.514667 167.617212,182.6 167.542545,182.696 C167.382545,182.930667 167.195879,183.245333 166.982545,183.64 C166.769212,184.034667 166.555879,184.472 166.342545,184.952 C166.129212,185.432 165.934545,185.925333 165.758545,186.432 C165.582545,186.938667 165.462545,187.421333 165.398545,187.88 C165.377212,188.296 165.427879,188.648 165.550545,188.936 C165.673212,189.224 165.838545,189.456 166.046545,189.632 C166.254545,189.808 166.497212,189.933333 166.774545,190.008 C167.051879,190.082667 167.339879,190.12 167.638545,190.12 Z M176.662545,190.088 C177.601212,190.066667 178.473212,189.810667 179.278545,189.32 C180.083879,188.829333 180.774545,188.130667 181.350545,187.224 C181.702545,187.352 182.059879,187.416 182.422545,187.416 C183.137212,187.416 183.782545,187.28 184.358545,187.008 C184.934545,186.736 185.422545,186.413333 185.822545,186.04 C186.222545,185.666667 186.523879,185.288 186.726545,184.904 C186.929212,184.52 187.025212,184.221333 187.014545,184.008 C186.993212,183.858667 186.910545,183.738667 186.766545,183.648 C186.622545,183.557333 186.459879,183.512 186.278545,183.512 C186.118545,183.512 185.963879,183.554667 185.814545,183.64 C185.665212,183.725333 185.563879,183.858667 185.510545,184.04 C185.414545,184.317333 185.273212,184.581333 185.086545,184.832 C184.899879,185.082667 184.686545,185.304 184.446545,185.496 C184.206545,185.688 183.953212,185.842667 183.686545,185.96 C183.419879,186.077333 183.158545,186.136 182.902545,186.136 C182.593212,186.136 182.305212,186.050667 182.038545,185.88 C182.134545,185.666667 182.219879,185.453333 182.294545,185.24 C182.369212,185.026667 182.438545,184.802667 182.502545,184.568 C182.577212,184.301333 182.606545,184.013333 182.590545,183.704 C182.574545,183.394667 182.513212,183.12 182.406545,182.88 C182.299879,182.64 182.150545,182.456 181.958545,182.328 C181.766545,182.2 181.526545,182.178667 181.238545,182.264 L181.238545,182.264 L181.254545,182.264 C180.806545,182.413333 180.457212,182.701333 180.206545,183.128 C179.955879,183.554667 179.798545,184.008 179.734545,184.488 C179.702545,184.701333 179.686545,184.909333 179.686545,185.112 C179.697212,185.432 179.771879,185.725333 179.910545,185.992 C179.718545,186.28 179.507879,186.581333 179.278545,186.896 C179.049212,187.210667 178.811879,187.501333 178.566545,187.768 C178.321212,188.034667 178.067879,188.253333 177.806545,188.424 C177.545212,188.594667 177.291879,188.685333 177.046545,188.696 C176.886545,188.696 176.758545,188.648 176.662545,188.552 C176.566545,188.456 176.497212,188.32 176.454545,188.144 C176.411879,187.968 176.390545,187.76 176.390545,187.52 C176.390545,187.28 176.411879,187.021333 176.454545,186.744 C176.507879,186.349333 176.595879,185.936 176.718545,185.504 C176.841212,185.072 176.985212,184.656 177.150545,184.256 C177.315879,183.856 177.497212,183.488 177.694545,183.152 C177.891879,182.816 178.097212,182.541333 178.310545,182.328 L178.310545,182.328 L178.310545,182.344 C178.427879,182.237333 178.489212,182.141333 178.494545,182.056 C178.499879,181.970667 178.462545,181.896 178.382545,181.832 C178.302545,181.768 178.190545,181.72 178.046545,181.688 C177.902545,181.656 177.745212,181.64 177.574545,181.64 C177.329212,181.64 177.075879,181.674667 176.814545,181.744 C176.553212,181.813333 176.347879,181.928 176.198545,182.088 C175.590545,182.674667 175.121212,183.314667 174.790545,184.008 C174.459879,184.701333 174.246545,185.384 174.150545,186.056 C174.075879,186.6 174.073212,187.117333 174.142545,187.608 C174.211879,188.098667 174.353212,188.528 174.566545,188.896 C174.779879,189.264 175.062545,189.554667 175.414545,189.768 C175.766545,189.981333 176.182545,190.088 176.662545,190.088 Z M189.686545,190.264 C190.358545,190.232 191.011879,190.082667 191.646545,189.816 C192.281212,189.549333 192.881212,189.218667 193.446545,188.824 C194.011879,188.429333 194.529212,188.005333 194.998545,187.552 C195.467879,187.098667 195.878545,186.672 196.230545,186.272 C196.582545,185.872 196.859879,185.533333 197.062545,185.256 C197.265212,184.978667 197.377212,184.813333 197.398545,184.76 C197.558545,184.418667 197.577212,184.168 197.454545,184.008 C197.331879,183.848 197.163879,183.768 196.950545,183.768 C196.811879,183.768 196.662545,183.818667 196.502545,183.92 C196.342545,184.021333 196.219879,184.141333 196.134545,184.28 C196.081212,184.365333 195.961212,184.530667 195.774545,184.776 C195.587879,185.021333 195.353212,185.309333 195.070545,185.64 C194.787879,185.970667 194.465212,186.32 194.102545,186.688 C193.739879,187.056 193.358545,187.394667 192.958545,187.704 C192.558545,188.013333 192.147879,188.274667 191.726545,188.488 C191.305212,188.701333 190.891879,188.818667 190.486545,188.84 C190.262545,188.861333 190.059879,188.84 189.878545,188.776 C189.697212,188.712 189.545212,188.602667 189.422545,188.448 C189.299879,188.293333 189.209212,188.088 189.150545,187.832 C189.091879,187.576 189.073212,187.261333 189.094545,186.888 C189.521212,186.792 189.982545,186.648 190.478545,186.456 C190.974545,186.264 191.449212,186.018667 191.902545,185.72 C192.355879,185.421333 192.766545,185.061333 193.134545,184.64 C193.502545,184.218667 193.766545,183.730667 193.926545,183.176 C193.947879,183.026667 193.947879,182.842667 193.926545,182.624 C193.905212,182.405333 193.841212,182.194667 193.734545,181.992 C193.627879,181.789333 193.467879,181.618667 193.254545,181.48 C193.041212,181.341333 192.753212,181.272 192.390545,181.272 C191.857212,181.282667 191.361212,181.381333 190.902545,181.568 C190.443879,181.754667 190.022545,181.997333 189.638545,182.296 C189.254545,182.594667 188.907879,182.930667 188.598545,183.304 C188.289212,183.677333 188.019879,184.056 187.790545,184.44 C187.561212,184.824 187.371879,185.2 187.222545,185.568 C187.073212,185.936 186.961212,186.253333 186.886545,186.52 C186.737212,187.181333 186.742545,187.746667 186.902545,188.216 C187.062545,188.685333 187.299879,189.072 187.614545,189.376 C187.929212,189.68 188.275879,189.901333 188.654545,190.04 C189.033212,190.178667 189.377212,190.253333 189.686545,190.264 Z M189.382545,185.56 C189.521212,185.229333 189.691879,184.890667 189.894545,184.544 C190.097212,184.197333 190.310545,183.882667 190.534545,183.6 C190.758545,183.317333 190.985212,183.082667 191.214545,182.896 C191.443879,182.709333 191.649212,182.610667 191.830545,182.6 C191.947879,182.589333 192.027879,182.642667 192.070545,182.76 C192.113212,182.877333 192.097212,183.053333 192.022545,183.288 C191.894545,183.650667 191.729212,183.962667 191.526545,184.224 C191.323879,184.485333 191.105212,184.704 190.870545,184.88 C190.635879,185.056 190.390545,185.197333 190.134545,185.304 C189.878545,185.410667 189.627879,185.496 189.382545,185.56 Z M205.018545,193.144 C205.146545,193.144 205.290545,193.125333 205.450545,193.088 C205.610545,193.050667 205.754545,193.005333 205.882545,192.952 C205.946545,192.898667 206.047879,192.746667 206.186545,192.496 C206.325212,192.245333 206.498545,191.917333 206.706545,191.512 C206.914545,191.106667 207.151879,190.64 207.418545,190.112 C207.685212,189.584 207.967879,189.010667 208.266545,188.392 C208.511879,188.424 208.773212,188.448 209.050545,188.464 C209.327879,188.48 209.621212,188.482667 209.930545,188.472 C210.421212,188.461333 210.999879,188.378667 211.666545,188.224 C212.333212,188.069333 213.050545,187.832 213.818545,187.512 C214.586545,187.192 215.397212,186.784 216.250545,186.288 C217.103879,185.792 217.962545,185.189333 218.826545,184.48 C219.690545,183.770667 220.549212,182.952 221.402545,182.024 C222.255879,181.096 223.071879,180.045333 223.850545,178.872 C224.021212,178.605333 224.199879,178.285333 224.386545,177.912 C224.573212,177.538667 224.749212,177.125333 224.914545,176.672 C225.079879,176.218667 225.231879,175.741333 225.370545,175.24 C225.509212,174.738667 225.615879,174.226667 225.690545,173.704 C225.807879,172.904 225.821212,172.112 225.730545,171.328 C225.639879,170.544 225.386545,169.848 224.970545,169.24 C224.554545,168.632 223.943879,168.144 223.138545,167.776 C222.333212,167.408 221.274545,167.234667 219.962545,167.256 C219.151879,167.266667 218.386545,167.344 217.666545,167.488 C216.946545,167.632 216.274545,167.813333 215.650545,168.032 C215.026545,168.250667 214.453212,168.496 213.930545,168.768 C213.407879,169.04 212.946545,169.309333 212.546545,169.576 C212.146545,169.842667 211.807879,170.093333 211.530545,170.328 C211.253212,170.562667 211.045212,170.749333 210.906545,170.888 C210.586545,171.272 210.410545,171.597333 210.378545,171.864 C210.346545,172.088 210.389212,172.248 210.506545,172.344 C210.623879,172.44 210.799879,172.445333 211.034545,172.36 C211.173212,172.306667 211.365212,172.173333 211.610545,171.96 C211.845212,171.757333 212.162545,171.504 212.562545,171.2 C212.962545,170.896 213.474545,170.592 214.098545,170.288 C214.722545,169.984 215.477212,169.709333 216.362545,169.464 C217.247879,169.218667 218.293212,169.048 219.498545,168.952 C219.658545,168.941333 219.885212,168.949333 220.178545,168.976 C220.471879,169.002667 220.783879,169.066667 221.114545,169.168 C221.445212,169.269333 221.778545,169.421333 222.114545,169.624 C222.450545,169.826667 222.741212,170.098667 222.986545,170.44 C223.231879,170.781333 223.413212,171.2 223.530545,171.696 C223.647879,172.192 223.658545,172.781333 223.562545,173.464 C223.466545,174.136 223.253212,174.896 222.922545,175.744 C222.591879,176.592 222.106545,177.565333 221.466545,178.664 L221.466545,178.664 L221.466545,178.648 C221.285212,178.957333 221.013212,179.357333 220.650545,179.848 C220.287879,180.338667 219.850545,180.864 219.338545,181.424 C218.826545,181.984 218.245212,182.554667 217.594545,183.136 C216.943879,183.717333 216.245212,184.256 215.498545,184.752 C214.751879,185.248 213.962545,185.674667 213.130545,186.032 C212.298545,186.389333 211.439879,186.621333 210.554545,186.728 C210.405212,186.749333 210.247879,186.762667 210.082545,186.768 C209.917212,186.773333 209.765212,186.776 209.626545,186.776 L209.322545,186.776 C209.226545,186.776 209.130545,186.770667 209.034545,186.76 C209.450545,185.874667 209.879879,184.96 210.322545,184.016 C210.765212,183.072 211.194545,182.149333 211.610545,181.248 C212.026545,180.346667 212.418545,179.490667 212.786545,178.68 C213.154545,177.869333 213.479879,177.154667 213.762545,176.536 C214.045212,175.917333 214.271879,175.416 214.442545,175.032 C214.613212,174.648 214.703879,174.434667 214.714545,174.392 C214.778545,174.178667 214.794545,174 214.762545,173.856 C214.730545,173.712 214.663879,173.594667 214.562545,173.504 C214.461212,173.413333 214.338545,173.349333 214.194545,173.312 C214.050545,173.274667 213.898545,173.256 213.738545,173.256 C213.493212,173.256 213.261212,173.304 213.042545,173.4 C212.823879,173.496 212.682545,173.618667 212.618545,173.768 L212.618545,173.768 L212.618545,173.784 L211.786545,175.624 C211.487879,176.274667 211.146545,177.021333 210.762545,177.864 C210.378545,178.706667 209.975879,179.594667 209.554545,180.528 C209.133212,181.461333 208.701212,182.418667 208.258545,183.4 C207.815879,184.381333 207.391879,185.330667 206.986545,186.248 C206.367879,185.96 205.871879,185.597333 205.498545,185.16 C205.125212,184.722667 204.842545,184.28 204.650545,183.832 C204.458545,183.384 204.335879,182.968 204.282545,182.584 C204.229212,182.2 204.213212,181.922667 204.234545,181.752 C204.266545,181.442667 204.202545,181.202667 204.042545,181.032 C203.882545,180.861333 203.701212,180.776 203.498545,180.776 C203.317212,180.776 203.157212,180.842667 203.018545,180.976 C202.879879,181.109333 202.789212,181.309333 202.746545,181.576 C202.735879,181.704 202.730545,181.912 202.730545,182.2 C202.730545,182.488 202.762545,182.821333 202.826545,183.2 C202.890545,183.578667 202.994545,183.986667 203.138545,184.424 C203.282545,184.861333 203.487879,185.293333 203.754545,185.72 C204.021212,186.146667 204.359879,186.546667 204.770545,186.92 C205.181212,187.293333 205.685212,187.608 206.282545,187.864 C205.973212,188.557333 205.690545,189.2 205.434545,189.792 C205.178545,190.384 204.957212,190.898667 204.770545,191.336 C204.583879,191.773333 204.439879,192.122667 204.338545,192.384 C204.237212,192.645333 204.191879,192.792 204.202545,192.824 C204.255879,192.930667 204.354545,193.010667 204.498545,193.064 C204.642545,193.117333 204.815879,193.144 205.018545,193.144 Z M224.890545,191.032 C225.381212,191.106667 225.901212,191.024 226.450545,190.784 C226.999879,190.544 227.543879,190.213333 228.082545,189.792 C228.621212,189.370667 229.138545,188.893333 229.634545,188.36 C230.130545,187.826667 230.570545,187.309333 230.954545,186.808 C231.338545,186.306667 231.647879,185.858667 231.882545,185.464 C232.117212,185.069333 232.250545,184.797333 232.282545,184.648 C232.250545,184.498667 232.186545,184.378667 232.090545,184.288 C231.994545,184.197333 231.887879,184.141333 231.770545,184.12 C231.653212,184.098667 231.538545,184.114667 231.426545,184.168 C231.314545,184.221333 231.231879,184.317333 231.178545,184.456 C231.135879,184.562667 231.021212,184.76 230.834545,185.048 C230.647879,185.336 230.410545,185.669333 230.122545,186.048 C229.834545,186.426667 229.514545,186.818667 229.162545,187.224 C228.810545,187.629333 228.450545,188.002667 228.082545,188.344 C227.714545,188.685333 227.349212,188.965333 226.986545,189.184 C226.623879,189.402667 226.293212,189.506667 225.994545,189.496 C225.941212,189.496 225.879879,189.482667 225.810545,189.456 C225.741212,189.429333 225.679879,189.384 225.626545,189.32 C225.573212,189.256 225.533212,189.168 225.506545,189.056 C225.479879,188.944 225.477212,188.808 225.498545,188.648 C225.519879,188.477333 225.575879,188.274667 225.666545,188.04 C225.757212,187.805333 225.893212,187.536 226.074545,187.232 C226.255879,186.928 226.485212,186.581333 226.762545,186.192 C227.039879,185.802667 227.381212,185.368 227.786545,184.888 L227.786545,184.888 L227.786545,184.904 C227.839879,184.850667 227.855879,184.725333 227.834545,184.528 C227.813212,184.330667 227.767879,184.125333 227.698545,183.912 C227.629212,183.698667 227.538545,183.512 227.426545,183.352 C227.314545,183.192 227.189212,183.128 227.050545,183.16 C227.007879,183.170667 226.919879,183.2 226.786545,183.248 C226.653212,183.296 226.511879,183.346667 226.362545,183.4 C226.213212,183.464 226.045212,183.533333 225.858545,183.608 C225.671879,183.682667 225.477212,183.746667 225.274545,183.8 C225.381212,183.618667 225.479879,183.418667 225.570545,183.2 C225.661212,182.981333 225.733212,182.738667 225.786545,182.472 C225.903879,181.842667 225.834545,181.36 225.578545,181.024 C225.322545,180.688 224.879879,180.562667 224.250545,180.648 L224.250545,180.648 L224.234545,180.648 C223.893212,180.690667 223.583879,180.821333 223.306545,181.04 C223.029212,181.258667 222.789212,181.509333 222.586545,181.792 C222.383879,182.074667 222.218545,182.368 222.090545,182.672 C221.962545,182.976 221.882545,183.24 221.850545,183.464 C221.829212,183.869333 221.866545,184.210667 221.962545,184.488 C222.058545,184.765333 222.194545,184.989333 222.370545,185.16 C222.546545,185.330667 222.749212,185.450667 222.978545,185.52 C223.207879,185.589333 223.439879,185.624 223.674545,185.624 C224.005212,185.624 224.303879,185.586667 224.570545,185.512 C224.837212,185.437333 225.023879,185.362667 225.130545,185.288 L225.130545,185.288 L225.162545,185.256 C225.173212,185.245333 225.183879,185.24 225.194545,185.24 C224.629212,185.816 224.194545,186.389333 223.890545,186.96 C223.586545,187.530667 223.397212,188.072 223.322545,188.584 C223.226545,189.234667 223.311879,189.781333 223.578545,190.224 C223.845212,190.666667 224.282545,190.936 224.890545,191.032 Z M223.354545,184.04 C223.301212,184.008 223.274545,183.965333 223.274545,183.912 C223.253212,183.848 223.237212,183.770667 223.226545,183.68 C223.215879,183.589333 223.221212,183.485333 223.242545,183.368 C223.263879,183.229333 223.311879,183.074667 223.386545,182.904 C223.461212,182.733333 223.594545,182.536 223.786545,182.312 L223.786545,182.312 L223.786545,182.328 C223.946545,182.146667 224.053212,182.056 224.106545,182.056 C224.149212,182.056 224.167879,182.101333 224.162545,182.192 C224.157212,182.282667 224.133212,182.402667 224.090545,182.552 C224.005212,182.893333 223.893212,183.184 223.754545,183.424 C223.615879,183.664 223.482545,183.869333 223.354545,184.04 Z M233.114545,190.264 C233.786545,190.232 234.439879,190.082667 235.074545,189.816 C235.709212,189.549333 236.309212,189.218667 236.874545,188.824 C237.439879,188.429333 237.957212,188.005333 238.426545,187.552 C238.895879,187.098667 239.306545,186.672 239.658545,186.272 C240.010545,185.872 240.287879,185.533333 240.490545,185.256 C240.693212,184.978667 240.805212,184.813333 240.826545,184.76 C240.986545,184.418667 241.005212,184.168 240.882545,184.008 C240.759879,183.848 240.591879,183.768 240.378545,183.768 C240.239879,183.768 240.090545,183.818667 239.930545,183.92 C239.770545,184.021333 239.647879,184.141333 239.562545,184.28 C239.509212,184.365333 239.389212,184.530667 239.202545,184.776 C239.015879,185.021333 238.781212,185.309333 238.498545,185.64 C238.215879,185.970667 237.893212,186.32 237.530545,186.688 C237.167879,187.056 236.786545,187.394667 236.386545,187.704 C235.986545,188.013333 235.575879,188.274667 235.154545,188.488 C234.733212,188.701333 234.319879,188.818667 233.914545,188.84 C233.690545,188.861333 233.487879,188.84 233.306545,188.776 C233.125212,188.712 232.973212,188.602667 232.850545,188.448 C232.727879,188.293333 232.637212,188.088 232.578545,187.832 C232.519879,187.576 232.501212,187.261333 232.522545,186.888 C232.949212,186.792 233.410545,186.648 233.906545,186.456 C234.402545,186.264 234.877212,186.018667 235.330545,185.72 C235.783879,185.421333 236.194545,185.061333 236.562545,184.64 C236.930545,184.218667 237.194545,183.730667 237.354545,183.176 C237.375879,183.026667 237.375879,182.842667 237.354545,182.624 C237.333212,182.405333 237.269212,182.194667 237.162545,181.992 C237.055879,181.789333 236.895879,181.618667 236.682545,181.48 C236.469212,181.341333 236.181212,181.272 235.818545,181.272 C235.285212,181.282667 234.789212,181.381333 234.330545,181.568 C233.871879,181.754667 233.450545,181.997333 233.066545,182.296 C232.682545,182.594667 232.335879,182.930667 232.026545,183.304 C231.717212,183.677333 231.447879,184.056 231.218545,184.44 C230.989212,184.824 230.799879,185.2 230.650545,185.568 C230.501212,185.936 230.389212,186.253333 230.314545,186.52 C230.165212,187.181333 230.170545,187.746667 230.330545,188.216 C230.490545,188.685333 230.727879,189.072 231.042545,189.376 C231.357212,189.68 231.703879,189.901333 232.082545,190.04 C232.461212,190.178667 232.805212,190.253333 233.114545,190.264 Z M232.810545,185.56 C232.949212,185.229333 233.119879,184.890667 233.322545,184.544 C233.525212,184.197333 233.738545,183.882667 233.962545,183.6 C234.186545,183.317333 234.413212,183.082667 234.642545,182.896 C234.871879,182.709333 235.077212,182.610667 235.258545,182.6 C235.375879,182.589333 235.455879,182.642667 235.498545,182.76 C235.541212,182.877333 235.525212,183.053333 235.450545,183.288 C235.322545,183.650667 235.157212,183.962667 234.954545,184.224 C234.751879,184.485333 234.533212,184.704 234.298545,184.88 C234.063879,185.056 233.818545,185.197333 233.562545,185.304 C233.306545,185.410667 233.055879,185.496 232.810545,185.56 Z M241.066545,190.088 C242.005212,190.066667 242.877212,189.810667 243.682545,189.32 C244.487879,188.829333 245.178545,188.130667 245.754545,187.224 C246.106545,187.352 246.463879,187.416 246.826545,187.416 C247.541212,187.416 248.186545,187.28 248.762545,187.008 C249.338545,186.736 249.826545,186.413333 250.226545,186.04 C250.626545,185.666667 250.927879,185.288 251.130545,184.904 C251.333212,184.52 251.429212,184.221333 251.418545,184.008 C251.397212,183.858667 251.314545,183.738667 251.170545,183.648 C251.026545,183.557333 250.863879,183.512 250.682545,183.512 C250.522545,183.512 250.367879,183.554667 250.218545,183.64 C250.069212,183.725333 249.967879,183.858667 249.914545,184.04 C249.818545,184.317333 249.677212,184.581333 249.490545,184.832 C249.303879,185.082667 249.090545,185.304 248.850545,185.496 C248.610545,185.688 248.357212,185.842667 248.090545,185.96 C247.823879,186.077333 247.562545,186.136 247.306545,186.136 C246.997212,186.136 246.709212,186.050667 246.442545,185.88 C246.538545,185.666667 246.623879,185.453333 246.698545,185.24 C246.773212,185.026667 246.842545,184.802667 246.906545,184.568 C246.981212,184.301333 247.010545,184.013333 246.994545,183.704 C246.978545,183.394667 246.917212,183.12 246.810545,182.88 C246.703879,182.64 246.554545,182.456 246.362545,182.328 C246.170545,182.2 245.930545,182.178667 245.642545,182.264 L245.642545,182.264 L245.658545,182.264 C245.210545,182.413333 244.861212,182.701333 244.610545,183.128 C244.359879,183.554667 244.202545,184.008 244.138545,184.488 C244.106545,184.701333 244.090545,184.909333 244.090545,185.112 C244.101212,185.432 244.175879,185.725333 244.314545,185.992 C244.122545,186.28 243.911879,186.581333 243.682545,186.896 C243.453212,187.210667 243.215879,187.501333 242.970545,187.768 C242.725212,188.034667 242.471879,188.253333 242.210545,188.424 C241.949212,188.594667 241.695879,188.685333 241.450545,188.696 C241.290545,188.696 241.162545,188.648 241.066545,188.552 C240.970545,188.456 240.901212,188.32 240.858545,188.144 C240.815879,187.968 240.794545,187.76 240.794545,187.52 C240.794545,187.28 240.815879,187.021333 240.858545,186.744 C240.911879,186.349333 240.999879,185.936 241.122545,185.504 C241.245212,185.072 241.389212,184.656 241.554545,184.256 C241.719879,183.856 241.901212,183.488 242.098545,183.152 C242.295879,182.816 242.501212,182.541333 242.714545,182.328 L242.714545,182.328 L242.714545,182.344 C242.831879,182.237333 242.893212,182.141333 242.898545,182.056 C242.903879,181.970667 242.866545,181.896 242.786545,181.832 C242.706545,181.768 242.594545,181.72 242.450545,181.688 C242.306545,181.656 242.149212,181.64 241.978545,181.64 C241.733212,181.64 241.479879,181.674667 241.218545,181.744 C240.957212,181.813333 240.751879,181.928 240.602545,182.088 C239.994545,182.674667 239.525212,183.314667 239.194545,184.008 C238.863879,184.701333 238.650545,185.384 238.554545,186.056 C238.479879,186.6 238.477212,187.117333 238.546545,187.608 C238.615879,188.098667 238.757212,188.528 238.970545,188.896 C239.183879,189.264 239.466545,189.554667 239.818545,189.768 C240.170545,189.981333 240.586545,190.088 241.066545,190.088 Z M252.666545,181.64 C252.954545,181.725333 253.234545,181.728 253.506545,181.648 C253.778545,181.568 254.034545,181.44 254.274545,181.264 C254.514545,181.088 254.735879,180.874667 254.938545,180.624 C255.141212,180.373333 255.317212,180.109333 255.466545,179.832 C255.487879,179.768 255.522545,179.664 255.570545,179.52 C255.618545,179.376 255.653212,179.224 255.674545,179.064 C255.695879,178.925333 255.703879,178.781333 255.698545,178.632 C255.693212,178.482667 255.669212,178.341333 255.626545,178.208 C255.583879,178.074667 255.514545,177.949333 255.418545,177.832 C255.322545,177.714667 255.189212,177.624 255.018545,177.56 C254.826545,177.485333 254.607879,177.477333 254.362545,177.536 C254.117212,177.594667 253.871879,177.693333 253.626545,177.832 C253.381212,177.970667 253.154545,178.144 252.946545,178.352 C252.738545,178.56 252.570545,178.781333 252.442545,179.016 C252.367879,179.144 252.341212,179.266667 252.362545,179.384 C252.383879,179.501333 252.437212,179.602667 252.522545,179.688 C252.437212,179.72 252.359879,179.776 252.290545,179.856 C252.221212,179.936 252.165212,180.04 252.122545,180.168 L252.122545,180.168 L252.138545,180.168 C252.106545,180.221333 252.077212,180.314667 252.050545,180.448 C252.023879,180.581333 252.018545,180.722667 252.034545,180.872 C252.050545,181.021333 252.103879,181.165333 252.194545,181.304 C252.285212,181.442667 252.442545,181.549333 252.666545,181.624 L252.666545,181.624 L252.666545,181.64 Z M253.392768,180.378667 L253.354545,180.376 C253.226545,180.322667 253.154545,180.256 253.138545,180.176 C253.122545,180.096 253.125212,180.024 253.146545,179.96 L253.146545,179.96 L253.162545,179.88 L253.338545,179.72 C253.455879,179.613333 253.594545,179.496 253.754545,179.368 C253.914545,179.24 254.037212,179.186667 254.122545,179.208 C254.250545,179.24 254.311879,179.290667 254.306545,179.36 C254.301212,179.429333 254.287879,179.490667 254.266545,179.544 L254.266545,179.544 L254.266545,179.528 C254.202545,179.666667 254.122545,179.792 254.026545,179.904 C253.930545,180.016 253.837212,180.106667 253.746545,180.176 C253.655879,180.245333 253.575879,180.298667 253.506545,180.336 C253.437212,180.373333 253.386545,180.386667 253.354545,180.376 L253.392768,180.378667 Z M250.874545,190.12 C251.258545,190.12 251.663879,190.034667 252.090545,189.864 C252.517212,189.693333 252.943879,189.472 253.370545,189.2 C253.797212,188.928 254.213212,188.624 254.618545,188.288 C255.023879,187.952 255.397212,187.618667 255.738545,187.288 C256.079879,186.957333 256.378545,186.645333 256.634545,186.352 C256.890545,186.058667 257.082545,185.821333 257.210545,185.64 C257.423879,185.256 257.519879,184.968 257.498545,184.776 C257.477212,184.584 257.397212,184.466667 257.258545,184.424 C257.119879,184.381333 256.951879,184.402667 256.754545,184.488 C256.557212,184.573333 256.394545,184.696 256.266545,184.856 C256.202545,184.941333 256.077212,185.090667 255.890545,185.304 C255.703879,185.517333 255.471879,185.765333 255.194545,186.048 C254.917212,186.330667 254.607879,186.624 254.266545,186.928 C253.925212,187.232 253.578545,187.512 253.226545,187.768 C252.874545,188.024 252.519879,188.234667 252.162545,188.4 C251.805212,188.565333 251.477212,188.648 251.178545,188.648 C251.018545,188.648 250.893212,188.562667 250.802545,188.392 C250.711879,188.221333 250.714545,187.912 250.810545,187.464 C250.863879,187.24 250.954545,186.986667 251.082545,186.704 C251.210545,186.421333 251.354545,186.128 251.514545,185.824 C251.674545,185.52 251.847879,185.218667 252.034545,184.92 C252.221212,184.621333 252.394545,184.338667 252.554545,184.072 C252.767879,183.730667 252.946545,183.434667 253.090545,183.184 C253.234545,182.933333 253.317212,182.749333 253.338545,182.632 C253.370545,182.450667 253.306545,182.314667 253.146545,182.224 C252.986545,182.133333 252.778545,182.088 252.522545,182.088 C252.362545,182.088 252.197212,182.101333 252.026545,182.128 C251.855879,182.154667 251.690545,182.194667 251.530545,182.248 C251.370545,182.301333 251.223879,182.365333 251.090545,182.44 C250.957212,182.514667 250.853212,182.6 250.778545,182.696 C250.618545,182.930667 250.431879,183.245333 250.218545,183.64 C250.005212,184.034667 249.791879,184.472 249.578545,184.952 C249.365212,185.432 249.170545,185.925333 248.994545,186.432 C248.818545,186.938667 248.698545,187.421333 248.634545,187.88 C248.613212,188.296 248.663879,188.648 248.786545,188.936 C248.909212,189.224 249.074545,189.456 249.282545,189.632 C249.490545,189.808 249.733212,189.933333 250.010545,190.008 C250.287879,190.082667 250.575879,190.12 250.874545,190.12 Z M258.218545,190.264 C258.890545,190.232 259.543879,190.082667 260.178545,189.816 C260.813212,189.549333 261.413212,189.218667 261.978545,188.824 C262.543879,188.429333 263.061212,188.005333 263.530545,187.552 C263.999879,187.098667 264.410545,186.672 264.762545,186.272 C265.114545,185.872 265.391879,185.533333 265.594545,185.256 C265.797212,184.978667 265.909212,184.813333 265.930545,184.76 C266.090545,184.418667 266.109212,184.168 265.986545,184.008 C265.863879,183.848 265.695879,183.768 265.482545,183.768 C265.343879,183.768 265.194545,183.818667 265.034545,183.92 C264.874545,184.021333 264.751879,184.141333 264.666545,184.28 C264.613212,184.365333 264.493212,184.530667 264.306545,184.776 C264.119879,185.021333 263.885212,185.309333 263.602545,185.64 C263.319879,185.970667 262.997212,186.32 262.634545,186.688 C262.271879,187.056 261.890545,187.394667 261.490545,187.704 C261.090545,188.013333 260.679879,188.274667 260.258545,188.488 C259.837212,188.701333 259.423879,188.818667 259.018545,188.84 C258.794545,188.861333 258.591879,188.84 258.410545,188.776 C258.229212,188.712 258.077212,188.602667 257.954545,188.448 C257.831879,188.293333 257.741212,188.088 257.682545,187.832 C257.623879,187.576 257.605212,187.261333 257.626545,186.888 C258.053212,186.792 258.514545,186.648 259.010545,186.456 C259.506545,186.264 259.981212,186.018667 260.434545,185.72 C260.887879,185.421333 261.298545,185.061333 261.666545,184.64 C262.034545,184.218667 262.298545,183.730667 262.458545,183.176 C262.479879,183.026667 262.479879,182.842667 262.458545,182.624 C262.437212,182.405333 262.373212,182.194667 262.266545,181.992 C262.159879,181.789333 261.999879,181.618667 261.786545,181.48 C261.573212,181.341333 261.285212,181.272 260.922545,181.272 C260.389212,181.282667 259.893212,181.381333 259.434545,181.568 C258.975879,181.754667 258.554545,181.997333 258.170545,182.296 C257.786545,182.594667 257.439879,182.930667 257.130545,183.304 C256.821212,183.677333 256.551879,184.056 256.322545,184.44 C256.093212,184.824 255.903879,185.2 255.754545,185.568 C255.605212,185.936 255.493212,186.253333 255.418545,186.52 C255.269212,187.181333 255.274545,187.746667 255.434545,188.216 C255.594545,188.685333 255.831879,189.072 256.146545,189.376 C256.461212,189.68 256.807879,189.901333 257.186545,190.04 C257.565212,190.178667 257.909212,190.253333 258.218545,190.264 Z M257.914545,185.56 C258.053212,185.229333 258.223879,184.890667 258.426545,184.544 C258.629212,184.197333 258.842545,183.882667 259.066545,183.6 C259.290545,183.317333 259.517212,183.082667 259.746545,182.896 C259.975879,182.709333 260.181212,182.610667 260.362545,182.6 C260.479879,182.589333 260.559879,182.642667 260.602545,182.76 C260.645212,182.877333 260.629212,183.053333 260.554545,183.288 C260.426545,183.650667 260.261212,183.962667 260.058545,184.224 C259.855879,184.485333 259.637212,184.704 259.402545,184.88 C259.167879,185.056 258.922545,185.197333 258.666545,185.304 C258.410545,185.410667 258.159879,185.496 257.914545,185.56 Z M273.274545,190.088 C274.213212,190.088 275.101212,189.816 275.938545,189.272 C276.775879,188.728 277.487879,187.970667 278.074545,187 C278.447879,187.202667 278.815879,187.304 279.178545,187.304 C279.711879,187.250667 280.186545,187.133333 280.602545,186.952 C281.018545,186.770667 281.383879,186.557333 281.698545,186.312 C282.013212,186.066667 282.279879,185.805333 282.498545,185.528 C282.717212,185.250667 282.898545,184.984 283.042545,184.728 C283.186545,184.472 283.295879,184.248 283.370545,184.056 C283.445212,183.864 283.493212,183.725333 283.514545,183.64 C283.535879,183.554667 283.530545,183.469333 283.498545,183.384 C283.466545,183.298667 283.413212,183.221333 283.338545,183.152 C283.263879,183.082667 283.181212,183.026667 283.090545,182.984 C282.999879,182.941333 282.906545,182.92 282.810545,182.92 C282.511879,182.92 282.330545,183.069333 282.266545,183.368 C282.170545,183.656 282.010545,183.954667 281.786545,184.264 C281.562545,184.573333 281.309212,184.853333 281.026545,185.104 C280.743879,185.354667 280.442545,185.562667 280.122545,185.728 C279.802545,185.893333 279.498545,185.976 279.210545,185.976 C279.007879,185.976 278.831879,185.933333 278.682545,185.848 C278.757212,185.645333 278.831879,185.437333 278.906545,185.224 C278.981212,185.010667 279.050545,184.792 279.114545,184.568 L279.114545,184.568 L279.114545,184.584 C279.189212,184.306667 279.223879,184.018667 279.218545,183.72 C279.213212,183.421333 279.157212,183.154667 279.050545,182.92 C278.943879,182.685333 278.794545,182.501333 278.602545,182.368 C278.410545,182.234667 278.170545,182.2 277.882545,182.264 C277.615879,182.317333 277.386545,182.413333 277.194545,182.552 C277.002545,182.690667 276.839879,182.850667 276.706545,183.032 C276.573212,183.213333 276.471879,183.408 276.402545,183.616 C276.333212,183.824 276.282545,184.024 276.250545,184.216 C276.197212,184.525333 276.207879,184.792 276.282545,185.016 C276.325212,185.165333 276.386545,185.314667 276.466545,185.464 C276.546545,185.613333 276.639879,185.762667 276.746545,185.912 C276.586545,186.2 276.407879,186.501333 276.210545,186.816 C276.013212,187.130667 275.791879,187.421333 275.546545,187.688 C275.301212,187.954667 275.031879,188.176 274.738545,188.352 C274.445212,188.528 274.127879,188.621333 273.786545,188.632 C273.541212,188.642667 273.333212,188.602667 273.162545,188.512 C272.991879,188.421333 272.850545,188.293333 272.738545,188.128 C272.626545,187.962667 272.541212,187.770667 272.482545,187.552 C272.423879,187.333333 272.389212,187.101333 272.378545,186.856 C272.741212,186.418667 273.061212,185.986667 273.338545,185.56 C273.615879,185.133333 273.845212,184.749333 274.026545,184.408 C274.133212,184.216 274.213212,184.042667 274.266545,183.888 C274.319879,183.733333 274.357212,183.581333 274.378545,183.432 C274.431879,183.005333 274.351879,182.685333 274.138545,182.472 C273.925212,182.258667 273.647879,182.152 273.306545,182.152 C273.082545,182.152 272.847879,182.197333 272.602545,182.288 C272.357212,182.378667 272.117212,182.514667 271.882545,182.696 C271.647879,182.877333 271.431879,183.101333 271.234545,183.368 C271.037212,183.634667 270.879879,183.949333 270.762545,184.312 C270.698545,184.514667 270.642545,184.72 270.594545,184.928 C270.546545,185.136 270.506545,185.346667 270.474545,185.56 C270.399879,186.082667 270.394545,186.610667 270.458545,187.144 C270.202545,187.336 269.938545,187.512 269.666545,187.672 C269.394545,187.832 269.130545,187.970667 268.874545,188.088 C268.618545,188.205333 268.373212,188.296 268.138545,188.36 C267.903879,188.424 267.701212,188.456 267.530545,188.456 C267.285212,188.456 267.074545,188.392 266.898545,188.264 C266.722545,188.136 266.583879,187.968 266.482545,187.76 C266.381212,187.552 266.317212,187.312 266.290545,187.04 C266.263879,186.768 266.277212,186.477333 266.330545,186.168 C266.405212,185.677333 266.559879,185.205333 266.794545,184.752 C267.029212,184.298667 267.290545,183.882667 267.578545,183.504 C267.866545,183.125333 268.154545,182.784 268.442545,182.48 C268.730545,182.176 268.975879,181.928 269.178545,181.736 C269.359879,181.565333 269.495879,181.424 269.586545,181.312 C269.677212,181.2 269.695879,181.112 269.642545,181.048 L269.642545,181.048 L269.642545,181.08 C269.610545,181.016 269.533212,180.978667 269.410545,180.968 C269.287879,180.957333 269.143879,180.957333 268.978545,180.968 C268.813212,180.978667 268.634545,180.997333 268.442545,181.024 C268.250545,181.050667 268.074545,181.074667 267.914545,181.096 L267.914545,181.096 L267.610545,181.144 C267.525212,181.154667 267.394545,181.218667 267.218545,181.336 C267.042545,181.453333 266.839879,181.616 266.610545,181.824 C266.381212,182.032 266.141212,182.288 265.890545,182.592 C265.639879,182.896 265.402545,183.242667 265.178545,183.632 C264.954545,184.021333 264.754545,184.445333 264.578545,184.904 C264.402545,185.362667 264.277212,185.858667 264.202545,186.392 C264.149212,186.797333 264.165212,187.218667 264.250545,187.656 C264.335879,188.093333 264.490545,188.490667 264.714545,188.848 C264.938545,189.205333 265.231879,189.498667 265.594545,189.728 C265.957212,189.957333 266.394545,190.066667 266.906545,190.056 C267.621212,190.034667 268.303879,189.872 268.954545,189.568 C269.605212,189.264 270.213212,188.877333 270.778545,188.408 C270.991879,188.866667 271.301212,189.248 271.706545,189.552 C272.111879,189.856 272.634545,190.034667 273.274545,190.088 Z M272.570545,184.664 C272.645212,184.344 272.717212,184.08 272.786545,183.872 C272.855879,183.664 272.911879,183.56 272.954545,183.56 L272.954545,183.56 L272.970545,183.56 C273.023879,183.570667 273.005212,183.690667 272.914545,183.92 C272.823879,184.149333 272.709212,184.397333 272.570545,184.664 Z" id="ExclusivePreview"></path>
        </g>
    </g>
</svg>