<?xml version="1.0" encoding="UTF-8"?>
<svg width="30px" height="30px" viewBox="0 0 30 30" version="1.1" xmlns="http://www.w3.org/2000/svg" xmlns:xlink="http://www.w3.org/1999/xlink">
    <!-- Generator: sketchtool 62 (101010) - https://sketch.com -->
    <title>5D011259-8B66-4CBC-A6BF-55A838588C08</title>
    <desc>Created with sketchtool.</desc>
    <g id="2020-Final" stroke="none" stroke-width="1" fill="none" fill-rule="evenodd">
        <g id="NADA-2020_Form-2" transform="translate(-1370.000000, -48.000000)" fill="#2D2D2D" fill-rule="nonzero">
            <g id="Group-4" transform="translate(1187.000000, 48.000000)">
                <g id="Social_inactive" transform="translate(183.000000, 0.000000)">
                    <g id="Facebook_inactive">
                        <path d="M15,0 C23.2842712,0 30,6.71572875 30,15 C30,23.2842712 23.2842712,30 15,30 C6.71572875,30 0,23.2842712 0,15 C0,6.71572875 6.71572875,0 15,0 Z M16.1501104,8 C14.3178808,8 13.0596026,9.16120149 13.0596026,11.2910771 L13.0596026,13.1232281 L11,13.1232281 L11,15.619534 L13.0640177,15.619534 L13.0640177,22 L15.5474614,22 L15.5474614,15.6241143 L17.6203091,15.6241143 L17.9293598,13.1278085 L15.5474614,13.1278085 L15.5474614,11.5384175 C15.5474614,10.817008 15.7417219,10.3246174 16.7373068,10.3246174 L18,10.3246174 L18,8.09855387 C17.3855381,8.03107663 16.7680024,7.99820237 16.1501104,8 Z" id="Combined-Shape"></path>
                    </g>
                </g>
            </g>
        </g>
    </g>
</svg>