<?xml version="1.0" encoding="UTF-8"?>
<svg width="30px" height="30px" viewBox="0 0 30 30" version="1.1" xmlns="http://www.w3.org/2000/svg" xmlns:xlink="http://www.w3.org/1999/xlink">
    <!-- Generator: sketchtool 62 (101010) - https://sketch.com -->
    <title>B36B62CA-6AAB-4443-BD84-B83B72C33A0E</title>
    <desc>Created with sketchtool.</desc>
    <g id="2020-Final" stroke="none" stroke-width="1" fill="none" fill-rule="evenodd">
        <g id="NADA-2020_Form" transform="translate(-1514.000000, -942.000000)" fill="#FFFFFF" fill-rule="nonzero">
            <g id="Group-9" transform="translate(0.000000, 868.000000)">
                <g id="Social_inactive" transform="translate(1370.000000, 74.000000)">
                    <path d="M159,0 C167.284271,0 174,6.71572875 174,15 C174,23.2842712 167.284271,30 159,30 C150.715729,30 144,23.2842712 144,15 C144,6.71572875 150.715729,0 159,0 Z M165.217004,8 L153.782996,8 C152.798216,8 152,8.79617053 152,9.77890516 L152,21.2210948 C152,22.2034203 152.798216,23 153.782996,23 L165.217004,23 C166.201784,23 167,22.2034203 167,21.2210948 L167,9.77890516 C167,8.79617053 166.201784,8 165.217004,8 Z M155.281237,14.0936094 C155.036986,14.4450536 154.954341,15.1008919 154.954341,15.5173881 C154.954341,18.0274118 157.001637,20.0697979 159.517388,20.0697979 C162.033549,20.0697979 164.080844,18.0274118 164.080844,15.5173881 C164.080844,15.1008919 164.02152,14.4552819 163.718763,14.0936094 L165.593814,14.0936094 L165.593814,21.1249489 C165.593814,21.3835202 165.383929,21.5938139 165.124949,21.5938139 L153.875051,21.5938139 C153.616071,21.5938139 153.406186,21.3835202 153.406186,21.1249489 L153.406186,14.0936094 L155.281237,14.0936094 Z M159.517388,12.6395549 C161.110547,12.6395549 162.402177,13.9283201 162.402177,15.5173881 C162.402177,17.1068652 161.110547,18.3952213 159.517388,18.3952213 C157.924638,18.3952213 156.633009,17.1068652 156.633009,15.5173881 C156.633009,13.9283201 157.924638,12.6395549 159.517388,12.6395549 Z M164.656084,9.87505114 C164.915064,9.87505114 165.124949,10.0849358 165.124949,10.3435071 L165.124949,11.7501023 C165.124949,12.0086736 164.915064,12.2185582 164.656084,12.2185582 L163.249898,12.2185582 C162.991326,12.2185582 162.781442,12.0086736 162.781442,11.7501023 L162.781442,10.3435071 C162.781442,10.0849358 162.991326,9.87505114 163.249898,9.87505114 L164.656084,9.87505114 Z" id="Instagram_inactive"></path>
                </g>
            </g>
        </g>
    </g>
</svg>