<?xml version="1.0" encoding="UTF-8"?>
<svg width="176px" height="58px" viewBox="0 0 176 58" version="1.1" xmlns="http://www.w3.org/2000/svg" xmlns:xlink="http://www.w3.org/1999/xlink">
    <!-- Generator: sketchtool 62 (101010) - https://sketch.com -->
    <title>1F7585EC-7BD7-4A11-8DDB-D69E0CADB18F@3x</title>
    <desc>Created with sketchtool.</desc>
    <g id="2020-Final" stroke="none" stroke-width="1" fill="none" fill-rule="evenodd">
        <g id="NADA-2020_Micro-site" transform="translate(-157.000000, -860.000000)" fill="#FFFFFF" fill-rule="nonzero">
            <path d="M174.008,911.208 C174.52,911.208 175.08,911.168 175.688,911.088 C176.296,911.008 176.88,910.92 177.44,910.824 C178,910.728 178.504,910.64 178.952,910.56 C179.4,910.48 179.704,910.44 179.864,910.44 C180.28,910.248 180.488,909.976 180.488,909.624 C180.488,909.4 180.352,909.168 180.08,908.928 C179.808,908.688 179.448,908.568 179,908.568 C178.744,908.568 178.488,908.6 178.232,908.664 C177.976,908.728 177.768,908.792 177.608,908.856 C177.576,908.824 177.544,908.808 177.512,908.808 C177.352,908.808 177.176,908.872 176.984,909 C176.824,909.032 176.688,909.048 176.576,909.048 L176.576,909.048 L176.216,909.048 C176.024,909.048 175.824,909.04 175.616,909.024 C175.408,909.008 175.176,908.984 174.92,908.952 L174.92,908.952 L174.392,908.952 L172.616,908.808 L167.096,907.848 C167.064,907.976 166.904,908.04 166.616,908.04 C166.456,908.04 166.312,908.024 166.184,907.992 C166.184,907.96 166.192,907.936 166.208,907.92 C166.224,907.904 166.232,907.864 166.232,907.8 L166.232,907.8 L166.328,907.752 C166.328,907.72 166.376,907.656 166.472,907.56 L166.472,907.56 L166.664,907.224 L166.808,907.128 C166.904,906.904 167.032,906.712 167.192,906.552 C167.256,906.424 167.344,906.272 167.456,906.096 C167.568,905.92 167.64,905.832 167.672,905.832 L167.672,905.832 L167.528,905.832 C167.528,905.768 167.544,905.72 167.576,905.688 C167.576,905.592 167.536,905.536 167.456,905.52 C167.376,905.504 167.336,905.464 167.336,905.4 C167.336,905.304 167.416,905.088 167.576,904.752 C167.736,904.416 167.864,904.136 167.96,903.912 C168.216,903.336 168.424,902.84 168.584,902.424 C168.744,902.008 168.904,901.688 169.064,901.464 L169.064,901.464 L169.112,901.464 C169.176,901.464 169.208,901.448 169.208,901.416 C169.208,901.352 169.192,901.312 169.16,901.296 C169.128,901.28 169.112,901.256 169.112,901.224 C169.112,900.872 169.224,900.456 169.448,899.976 C169.672,899.496 169.832,899.08 169.928,898.728 C169.96,898.728 170.024,898.448 170.12,897.888 C170.216,897.328 170.32,896.672 170.432,895.92 C170.544,895.168 170.656,894.4 170.768,893.616 C170.88,892.832 170.984,892.216 171.08,891.768 C171.048,891.608 171.032,891.432 171.032,891.24 L171.032,891.24 L171.032,890.712 C171,890.072 171.088,889.248 171.296,888.24 C171.504,887.232 171.688,886.216 171.848,885.192 L171.848,885.192 L172.088,883.368 C172.248,883.112 172.384,882.872 172.496,882.648 C172.608,882.424 172.696,882.12 172.76,881.736 C172.728,881.608 172.72,881.44 172.736,881.232 C172.752,881.024 172.744,880.84 172.712,880.68 L172.712,880.68 L172.712,880.632 C172.712,880.568 172.696,880.496 172.664,880.416 C172.632,880.336 172.6,880.248 172.568,880.152 L172.568,880.152 L172.52,880.008 L172.472,880.008 C172.472,879.976 172.48,879.952 172.496,879.936 C172.512,879.92 172.52,879.896 172.52,879.864 C172.488,879.864 172.472,879.848 172.472,879.816 L172.472,879.816 L172.472,879.72 L172.664,879.048 C172.888,878.472 173.072,877.96 173.216,877.512 C173.36,877.064 173.472,876.64 173.552,876.24 C173.632,875.84 173.688,875.448 173.72,875.064 C173.752,874.68 173.768,874.264 173.768,873.816 L173.768,873.816 L173.768,872.376 C173.768,872.024 173.76,871.664 173.744,871.296 C173.728,870.928 173.688,870.584 173.624,870.264 C173.976,869.464 174.152,868.872 174.152,868.488 C174.152,868.04 174.032,867.704 173.792,867.48 C173.552,867.256 173.224,867.064 172.808,866.904 C172.616,866.616 172.312,866.32 171.896,866.016 C171.48,865.712 171.032,865.44 170.552,865.2 C170.072,864.96 169.592,864.76 169.112,864.6 C168.632,864.44 168.2,864.36 167.816,864.36 C167.144,864.36 166.808,864.632 166.808,865.176 C166.808,865.368 166.824,865.512 166.856,865.608 C166.824,865.736 166.8,865.848 166.784,865.944 C166.768,866.04 166.728,866.152 166.664,866.28 L166.664,866.28 L166.52,867.24 C166.136,868.456 165.8,869.864 165.512,871.464 C165.224,873.064 165,875.016 164.84,877.32 L164.84,877.32 L164.648,878.808 C164.616,878.968 164.592,879.104 164.576,879.216 C164.56,879.328 164.552,879.432 164.552,879.528 L164.552,879.528 L164.216,881.88 C164.12,882.616 164.032,883.368 163.952,884.136 C163.872,884.904 163.72,885.624 163.496,886.296 C163.336,886.936 163.224,887.52 163.16,888.048 C163.096,888.576 163.032,889.112 162.968,889.656 L162.968,889.656 L162.968,889.752 L162.92,890.28 C162.856,890.6 162.784,890.936 162.704,891.288 C162.624,891.64 162.568,892.024 162.536,892.44 L162.536,892.44 L162.536,892.92 L162.296,894.216 C162.232,894.536 162.176,894.832 162.128,895.104 C162.08,895.376 162.04,895.656 162.008,895.944 L162.008,895.944 L161.912,896.376 C161.72,897.24 161.496,898.144 161.24,899.088 C160.984,900.032 160.824,900.824 160.76,901.464 C160.696,901.816 160.664,902.128 160.664,902.4 L160.664,902.4 L160.664,904.056 C160.664,904.632 160.576,905.176 160.4,905.688 C160.224,906.2 160.088,906.632 159.992,906.984 C159.448,906.984 158.984,907.08 158.6,907.272 C158.216,907.464 157.912,907.832 157.688,908.376 C157.624,908.44 157.544,908.472 157.448,908.472 C157.352,908.472 157.304,908.536 157.304,908.664 L157.304,908.664 L157.304,908.712 C157.272,908.744 157.256,908.824 157.256,908.952 C157.256,909.336 157.56,909.624 158.168,909.816 C158.84,909.944 159.512,910.048 160.184,910.128 C160.856,910.208 161.472,910.272 162.032,910.32 C162.592,910.368 163.08,910.408 163.496,910.44 C163.912,910.472 164.184,910.504 164.312,910.536 C164.696,910.632 165.272,910.712 166.04,910.776 L166.04,910.776 L168.248,910.92 C168.792,910.952 169.296,910.968 169.76,910.968 C170.224,910.968 170.696,911 171.176,911.064 L171.176,911.064 L172.952,911.112 C173.112,911.176 173.28,911.208 173.456,911.208 L173.456,911.208 L174.008,911.208 Z M190.424,906.12 C191.384,906.12 192.336,905.688 193.28,904.824 C194.224,903.96 195.12,902.928 195.968,901.728 C196.816,900.528 197.576,899.272 198.248,897.96 C198.92,896.648 199.48,895.56 199.928,894.696 L199.928,894.696 L200.552,893.448 C200.712,893.16 200.84,892.872 200.936,892.584 C201.032,892.296 201.08,892.088 201.08,891.96 C201.08,891.8 201.024,891.688 200.912,891.624 C200.8,891.56 200.696,891.528 200.6,891.528 C200.184,891.528 199.888,891.624 199.712,891.816 C199.536,892.008 199.4,892.264 199.304,892.584 C198.728,894.536 198.072,896.208 197.336,897.6 C196.6,898.992 195.872,900.136 195.152,901.032 C194.432,901.928 193.736,902.584 193.064,903 C192.392,903.416 191.848,903.624 191.432,903.624 C191.24,903.624 191.144,903.512 191.144,903.288 C191.112,903 191.16,902.64 191.288,902.208 C191.416,901.776 191.528,901.384 191.624,901.032 L191.624,901.032 L191.72,900.792 L191.912,899.736 L192.104,898.728 L192.344,897.672 L192.632,896.664 C192.824,896.056 193.032,895.384 193.256,894.648 C193.48,893.912 193.576,893.432 193.544,893.208 C193.512,892.952 193.384,892.648 193.16,892.296 C192.936,891.944 192.672,891.616 192.368,891.312 C192.064,891.008 191.736,890.76 191.384,890.568 C191.032,890.376 190.712,890.312 190.424,890.376 L190.424,890.376 L190.04,890.472 C189.56,890.536 189.352,890.76 189.416,891.144 L189.416,891.144 L188.936,893.112 L188.504,894.216 C188.312,894.76 187.984,895.408 187.52,896.16 C187.056,896.912 186.56,897.632 186.032,898.32 C185.504,899.008 185,899.592 184.52,900.072 C184.04,900.552 183.688,900.792 183.464,900.792 C183.208,900.792 182.992,900.696 182.816,900.504 C182.64,900.312 182.536,900.056 182.504,899.736 C182.408,898.712 182.672,897.512 183.296,896.136 C183.92,894.76 184.68,893.416 185.576,892.104 C186.056,891.4 186.632,890.76 187.304,890.184 C187.976,889.608 188.696,889.016 189.464,888.408 C189.592,888.312 189.808,888.232 190.112,888.168 C190.416,888.104 190.712,888.072 191,888.072 C191.384,888.072 191.656,888.12 191.816,888.216 C191.88,888.28 191.944,888.312 192.008,888.312 C192.072,888.312 192.144,888.176 192.224,887.904 C192.304,887.632 192.344,887.352 192.344,887.064 C192.28,886.68 192.128,886.32 191.888,885.984 C191.648,885.648 191.36,885.344 191.024,885.072 C190.688,884.8 190.344,884.584 189.992,884.424 C189.64,884.264 189.32,884.184 189.032,884.184 C188.648,884.216 188.08,884.336 187.328,884.544 C186.576,884.752 185.88,885.032 185.24,885.384 L185.24,885.384 L184.04,886.104 C183.784,886.264 183.536,886.424 183.296,886.584 C183.056,886.744 182.84,886.952 182.648,887.208 L182.648,887.208 L182.024,887.976 C181.512,888.584 181.024,889.232 180.56,889.92 C180.096,890.608 179.672,891.288 179.288,891.96 C178.904,892.632 178.568,893.28 178.28,893.904 C177.992,894.528 177.768,895.08 177.608,895.56 C177.448,896.008 177.344,896.456 177.296,896.904 C177.248,897.352 177.224,897.8 177.224,898.248 L177.224,898.248 L177.224,898.92 C177.288,899.656 177.48,900.296 177.8,900.84 C178.12,901.384 178.504,901.848 178.952,902.232 C179.4,902.616 179.88,902.904 180.392,903.096 C180.904,903.288 181.368,903.384 181.784,903.384 C182.072,903.352 182.416,903.216 182.816,902.976 C183.216,902.736 183.624,902.44 184.04,902.088 C184.456,901.736 184.864,901.368 185.264,900.984 C185.664,900.6 186.008,900.264 186.296,899.976 L186.296,899.976 L186.872,899.4 C186.84,899.56 186.8,899.752 186.752,899.976 C186.704,900.2 186.696,900.44 186.728,900.696 L186.728,900.696 L186.728,901.56 C186.728,901.752 186.744,901.944 186.776,902.136 C186.808,902.456 186.904,902.848 187.064,903.312 C187.224,903.776 187.456,904.216 187.76,904.632 C188.064,905.048 188.432,905.4 188.864,905.688 C189.296,905.976 189.816,906.12 190.424,906.12 Z M203.456,904.06848 L203.576,904.056 C203.768,904.056 204.016,904.024 204.32,903.96 C204.624,903.896 204.928,903.816 205.232,903.72 C205.536,903.624 205.816,903.52 206.072,903.408 C206.328,903.296 206.52,903.192 206.648,903.096 L206.648,903.096 L207.08,902.808 C207.272,902.712 207.464,902.608 207.656,902.496 C207.848,902.384 207.992,902.264 208.088,902.136 C208.28,901.784 208.52,901.304 208.808,900.696 C209.096,900.088 209.256,899.464 209.288,898.824 L209.288,898.824 L209.816,898.824 C209.912,898.792 210.032,898.744 210.176,898.68 C210.32,898.616 210.44,898.552 210.536,898.488 C210.792,898.424 211.04,898.344 211.28,898.248 C211.52,898.152 211.736,898.056 211.928,897.96 L211.928,897.96 L212.264,897.816 C212.936,897.464 213.52,897.096 214.016,896.712 C214.512,896.328 214.936,895.96 215.288,895.608 L215.288,895.608 L215.48,895.272 L215.576,895.08 C215.96,894.664 216.28,894.24 216.536,893.808 C216.792,893.376 217.048,892.952 217.304,892.536 C217.752,891.992 217.976,891.624 217.976,891.432 C218.104,890.984 218.032,890.688 217.76,890.544 C217.488,890.4 217.208,890.472 216.92,890.76 C216.696,891.208 216.488,891.576 216.296,891.864 C215.752,892.696 215.192,893.456 214.616,894.144 C214.04,894.832 213.336,895.464 212.504,896.04 L212.504,896.04 L212.36,896.136 L212.408,896.136 C212.216,896.296 211.992,896.44 211.736,896.568 C211.48,896.696 211.208,896.792 210.92,896.856 L210.92,896.856 L209.912,897.192 C209.944,897 210.008,896.8 210.104,896.592 C210.2,896.384 210.312,896.2 210.44,896.04 C210.728,895.656 210.888,895.352 210.92,895.128 C210.984,895 211.016,894.856 211.016,894.696 C211.016,894.536 210.984,894.328 210.92,894.072 C210.856,893.816 210.824,893.608 210.824,893.448 L210.824,893.448 L210.728,893.16 L210.68,892.968 C210.648,892.936 210.64,892.888 210.656,892.824 C210.672,892.76 210.696,892.712 210.728,892.68 C210.76,892.616 210.788,892.56 210.812,892.512 L210.872,892.392 C210.904,892.328 210.84,892.232 210.68,892.104 L210.68,892.104 L210.152,890.664 L209.528,890.088 C209.432,889.864 209.288,889.52 209.096,889.056 C208.904,888.592 208.696,888.112 208.472,887.616 C208.248,887.12 208.024,886.64 207.8,886.176 C207.576,885.712 207.4,885.384 207.272,885.192 C207.368,884.968 207.504,884.72 207.68,884.448 C207.856,884.176 208.04,883.912 208.232,883.656 C208.584,883.208 208.896,882.76 209.168,882.312 C209.44,881.864 209.544,881.464 209.48,881.112 C209.448,880.952 209.416,880.816 209.384,880.704 C209.352,880.592 209.32,880.488 209.288,880.392 L209.288,880.392 L209.144,879.816 C209.048,879.368 208.864,878.96 208.592,878.592 C208.32,878.224 208.04,877.864 207.752,877.512 C207.528,877.32 207.32,877.168 207.128,877.056 C206.936,876.944 206.76,876.84 206.6,876.744 L206.6,876.744 L206.408,876.6 C206.056,876.344 205.784,876.256 205.592,876.336 C205.4,876.416 205.048,876.712 204.536,877.224 L204.536,877.224 L204.344,877.416 C204.28,877.576 204.176,877.76 204.032,877.968 C203.888,878.176 203.736,878.376 203.576,878.568 C203.32,878.824 203.088,879.104 202.88,879.408 C202.672,879.712 202.536,879.992 202.472,880.248 L202.472,880.248 L202.76,885.624 C202.664,885.88 202.456,886.344 202.136,887.016 C201.816,887.688 201.464,888.384 201.08,889.104 C200.696,889.824 200.344,890.488 200.024,891.096 C199.704,891.704 199.496,892.088 199.4,892.248 C199.272,892.504 199.176,892.768 199.112,893.04 C199.048,893.312 199.024,893.552 199.04,893.76 C199.056,893.968 199.096,894.12 199.16,894.216 C199.224,894.312 199.304,894.296 199.4,894.168 C199.944,893.528 200.464,892.768 200.96,891.888 C201.456,891.008 201.912,890.2 202.328,889.464 C202.68,888.824 202.976,888.296 203.216,887.88 C203.456,887.464 203.624,887.24 203.72,887.208 C203.816,887.496 203.896,887.672 203.96,887.736 C204.12,888.024 204.224,888.296 204.272,888.552 C204.32,888.808 204.376,889.064 204.44,889.32 C204.6,889.672 204.68,890.04 204.68,890.424 C204.712,890.616 204.736,890.808 204.752,891 C204.768,891.192 204.824,891.384 204.92,891.576 L204.92,891.576 L204.632,893.736 C204.728,893.992 204.76,894.24 204.728,894.48 C204.696,894.72 204.648,894.952 204.584,895.176 C204.488,895.464 204.44,895.736 204.44,895.992 C204.472,896.152 204.424,896.36 204.296,896.616 C204.296,896.648 204.288,896.68 204.272,896.712 L204.254,896.76 L204.254,896.76 L204.248,896.808 C204.184,897.16 204.04,897.4 203.816,897.528 C203.656,897.432 203.376,897.4 202.976,897.432 C202.576,897.464 202.136,897.536 201.656,897.648 C201.176,897.76 200.712,897.904 200.264,898.08 C199.816,898.256 199.48,898.456 199.256,898.68 C198.84,898.936 198.496,899.256 198.224,899.64 C197.952,900.024 197.848,900.44 197.912,900.888 C197.976,901.336 198.152,901.736 198.44,902.088 C198.728,902.44 199.064,902.712 199.448,902.904 L199.448,902.904 L199.4,902.856 C199.88,903.112 200.336,903.312 200.768,903.456 C201.2,903.6 201.576,903.656 201.896,903.624 C202.024,903.688 202.104,903.72 202.136,903.72 C202.36,903.816 202.608,903.904 202.88,903.984 C203.152,904.064 203.384,904.088 203.576,904.056 L203.456,904.06848 Z M200.696,901.656 C200.344,901.656 200.04,901.568 199.784,901.392 C199.528,901.216 199.432,901.032 199.496,900.84 C199.688,900.52 200.008,900.24 200.456,900 C200.904,899.76 201.352,899.56 201.8,899.4 C202.248,899.24 202.64,899.128 202.976,899.064 C203.312,899 203.496,898.984 203.528,899.016 C203.304,900.2 202.68,901 201.656,901.416 C201.272,901.576 200.952,901.656 200.696,901.656 Z M244.568,904.728 C244.664,904.792 244.728,904.808 244.76,904.776 C245.112,904.712 245.384,904.568 245.576,904.344 C245.64,904.216 245.688,904.104 245.72,904.008 C245.752,903.912 245.784,903.784 245.816,903.624 C245.88,903.528 245.92,903.416 245.936,903.288 C245.952,903.16 245.992,903.016 246.056,902.856 C246.312,902.024 246.728,901.064 247.304,899.976 C247.88,898.888 248.584,897.592 249.416,896.088 C249.768,895.544 250.096,895.032 250.4,894.552 C250.704,894.072 251,893.608 251.288,893.16 C251.512,892.84 251.752,892.456 252.008,892.008 C252.136,891.208 252.368,890.44 252.704,889.704 C253.04,888.968 253.336,888.232 253.592,887.496 C255.16,884.328 256.352,881.792 257.168,879.888 C257.984,877.984 258.424,876.952 258.488,876.792 L259.064,875.448 C259.288,874.904 259.504,874.376 259.712,873.864 C259.92,873.352 260.136,872.872 260.36,872.424 L260.36,872.424 L261.224,870.504 C261.352,870.312 261.464,870.12 261.56,869.928 C261.656,869.736 261.768,869.56 261.896,869.4 L261.896,869.4 L262.04,869.208 L263.432,867 L263.768,866.616 C263.8,866.488 263.824,866.376 263.84,866.28 C263.856,866.184 263.864,866.072 263.864,865.944 C263.864,865.88 263.88,865.832 263.912,865.8 C263.944,865.768 263.96,865.736 263.96,865.704 C263.928,865.672 263.928,865.656 263.96,865.656 L263.978,865.653 C263.99,865.647 263.984,865.632 263.96,865.608 C263.992,865.448 264.008,865.312 264.008,865.2 L264.008,865.2 L264.008,864.84 L263.96,864.792 C263.8,864.408 263.592,864.216 263.336,864.216 C263.112,864.216 262.76,864.424 262.28,864.84 L262.28,864.84 L262.232,864.84 C262.264,864.84 262.248,864.856 262.184,864.888 C262.024,864.984 261.904,865.088 261.824,865.2 C261.744,865.312 261.64,865.432 261.512,865.56 C261.288,865.912 261.032,866.264 260.744,866.616 C260.68,866.744 260.624,866.856 260.576,866.952 C260.528,867.048 260.488,867.176 260.456,867.336 C260.296,867.592 260.16,867.856 260.048,868.128 C259.936,868.4 259.8,868.68 259.64,868.968 C259.48,869.096 259.36,869.264 259.28,869.472 C259.2,869.68 259.112,869.864 259.016,870.024 L259.016,870.024 L258.584,871.272 L258.488,871.368 C258.2,872.168 257.928,872.872 257.672,873.48 C257.416,874.024 257.112,874.504 256.76,874.92 L256.76,874.92 L256.76,875.064 C256.6,875.224 256.4,875.44 256.16,875.712 C255.92,875.984 255.672,876.248 255.416,876.504 C255.224,876.92 255.024,877.312 254.816,877.68 C254.608,878.048 254.376,878.44 254.12,878.856 C253.928,879.112 253.76,879.392 253.616,879.696 C253.472,880 253.304,880.312 253.112,880.632 L253.112,880.632 L251.912,883.08 C251.944,883.272 251.88,883.64 251.72,884.184 C251.496,884.92 251.264,885.672 251.024,886.44 C250.784,887.208 250.536,887.96 250.28,888.696 C250.12,888.984 250,889.272 249.92,889.56 C249.84,889.848 249.736,890.12 249.608,890.376 C249.384,890.92 249.256,891.4 249.224,891.816 C249.192,892.008 249.144,892.168 249.08,892.296 C249.016,892.424 248.952,892.536 248.888,892.632 C248.696,893.048 248.552,893.4 248.456,893.688 C248.36,893.848 248.28,894.04 248.216,894.264 C248.152,894.488 248.088,894.696 248.024,894.888 L248.024,894.888 L247.688,895.896 C247.624,896.088 247.512,896.288 247.352,896.496 C247.192,896.704 247.08,896.888 247.016,897.048 C246.92,897.176 246.824,897.368 246.728,897.624 C246.632,897.88 246.552,898.088 246.488,898.248 C246.328,898.536 246.144,898.872 245.936,899.256 C245.728,899.64 245.544,899.992 245.384,900.312 C245.224,900.248 245.128,900.168 245.096,900.072 C244.808,899.368 244.616,898.52 244.52,897.528 C244.488,897.272 244.464,896.984 244.448,896.664 C244.432,896.344 244.424,895.976 244.424,895.56 C244.36,894.472 244.32,893.216 244.304,891.792 C244.288,890.368 244.232,889.032 244.136,887.784 C244.136,887.848 244.128,887.76 244.112,887.52 C244.096,887.28 244.072,887.032 244.04,886.776 C244.04,886.52 244.016,886.264 243.968,886.008 C243.92,885.752 243.88,885.496 243.848,885.24 C244.008,884.568 244.104,884.048 244.136,883.68 C244.168,883.312 244.168,883.04 244.136,882.864 C244.104,882.688 244.056,882.576 243.992,882.528 C243.928,882.48 243.88,882.44 243.848,882.408 C243.784,882.28 243.752,882.064 243.752,881.76 C243.752,881.456 243.768,881.08 243.8,880.632 C243.768,880.152 243.728,879.56 243.68,878.856 C243.632,878.152 243.56,877.4 243.464,876.6 L243.464,876.6 L242.984,874.344 C242.952,874.216 242.936,874.064 242.936,873.888 C242.936,873.712 242.92,873.496 242.888,873.24 C242.856,872.856 242.832,872.456 242.816,872.04 C242.8,871.624 242.76,871.32 242.696,871.128 L242.696,871.128 L242.504,870.792 C242.44,870.728 242.384,870.624 242.336,870.48 C242.288,870.336 242.232,870.2 242.168,870.072 L242.168,870.072 L241.688,868.68 C241.528,868.328 241.36,867.96 241.184,867.576 C241.008,867.192 240.824,866.824 240.632,866.472 C240.408,865.864 240.104,865.288 239.72,864.744 C239.688,864.616 239.576,864.456 239.384,864.264 C239.128,864.072 238.856,863.832 238.568,863.544 L238.568,863.544 L237.608,862.68 L236.648,861.768 C236.264,861.16 235.824,860.776 235.328,860.616 C234.832,860.456 234.312,860.408 233.768,860.472 C233.576,860.472 233.384,860.488 233.192,860.52 C233,860.552 232.824,860.6 232.664,860.664 L232.664,860.664 L231.992,860.808 C231.896,860.808 231.784,860.856 231.656,860.952 C231.496,860.984 231.352,861.032 231.224,861.096 C231.096,861.16 231,861.224 230.936,861.288 C230.936,861.672 230.944,862 230.96,862.272 C230.976,862.544 231.032,862.888 231.128,863.304 C231.128,863.528 231.144,863.704 231.176,863.832 C231.432,863.96 231.624,864.152 231.752,864.408 C231.848,864.696 231.912,864.992 231.944,865.296 C231.976,865.6 232.072,865.96 232.232,866.376 L232.232,866.376 L232.568,867.048 L233.144,868.056 C233.304,868.376 233.456,868.72 233.6,869.088 C233.744,869.456 233.88,869.88 234.008,870.36 C234.072,870.616 234.104,870.824 234.104,870.984 C234.2,871.272 234.288,871.568 234.368,871.872 C234.448,872.176 234.52,872.472 234.584,872.76 C234.648,872.952 234.696,873.136 234.728,873.312 C234.76,873.488 234.792,873.672 234.824,873.864 C234.888,874.12 234.92,874.312 234.92,874.44 C234.984,874.984 235.136,875.52 235.376,876.048 C235.616,876.576 235.704,877.208 235.64,877.944 C235.576,878.104 235.568,878.272 235.616,878.448 C235.664,878.624 235.704,878.76 235.736,878.856 C235.896,879.688 236.032,880.456 236.144,881.16 C236.256,881.864 236.328,882.488 236.36,883.032 C236.456,883.928 236.328,884.456 235.976,884.616 C235.912,884.936 235.92,885.216 236,885.456 C236.08,885.696 236.168,885.928 236.264,886.152 C236.36,886.376 236.44,886.592 236.504,886.8 C236.568,887.008 236.568,887.24 236.504,887.496 C236.568,887.656 236.592,887.816 236.576,887.976 C236.56,888.136 236.568,888.312 236.6,888.504 C236.632,889.144 236.64,889.792 236.624,890.448 C236.608,891.104 236.584,891.752 236.552,892.392 L236.552,892.392 L237.08,893.4 L237.992,895.656 L238.136,897.768 C238.168,898.024 238.168,898.192 238.136,898.272 C238.104,898.352 238.088,898.552 238.088,898.872 C238.152,899.384 238.208,899.816 238.256,900.168 C238.304,900.52 238.408,900.856 238.568,901.176 C238.856,901.656 239.224,902.072 239.672,902.424 C239.832,902.584 240,902.736 240.176,902.88 C240.352,903.024 240.52,903.144 240.68,903.24 C241.096,903.496 241.512,903.744 241.928,903.984 C242.344,904.224 242.776,904.392 243.224,904.488 C243.704,904.616 244.072,904.664 244.328,904.632 C244.392,904.632 244.472,904.664 244.568,904.728 Z M260.984,905.832 C261.912,905.864 262.776,905.68 263.576,905.28 C264.376,904.88 265.192,904.408 266.024,903.864 L266.024,903.864 L266.744,903.384 C267.096,903.128 267.424,902.832 267.728,902.496 C268.032,902.16 268.328,901.816 268.616,901.464 L268.616,901.464 L269.096,900.84 C269.32,900.488 269.56,900.144 269.816,899.808 C270.072,899.472 270.328,899.16 270.584,898.872 C270.776,898.648 270.96,898.424 271.136,898.2 C271.312,897.976 271.48,897.768 271.64,897.576 C271.672,897.448 271.752,897.32 271.88,897.192 C272.008,897.064 272.072,896.952 272.072,896.856 L272.072,896.856 L272.168,896.52 C272.52,896.104 272.872,895.6 273.224,895.008 C273.576,894.416 273.816,893.976 273.944,893.688 C274.296,893.24 274.584,892.856 274.808,892.536 C275.032,892.216 275.128,891.928 275.096,891.672 C275.064,891.256 274.84,891.048 274.424,891.048 C274.296,891.048 274.152,891.112 273.992,891.24 L273.992,891.24 L273.944,891.336 C273.944,891.56 273.832,891.88 273.608,892.296 C273.384,892.712 273.12,893.168 272.816,893.664 C272.512,894.16 272.192,894.656 271.856,895.152 C271.52,895.648 271.208,896.088 270.92,896.472 L270.92,896.472 L270.248,897.48 C270.184,897.608 270.096,897.744 269.984,897.888 C269.872,898.032 269.784,898.184 269.72,898.344 C269.048,899.208 268.312,899.96 267.512,900.6 C266.712,901.24 265.944,901.784 265.208,902.232 C264.472,902.68 263.792,903.016 263.168,903.24 C262.544,903.464 262.056,903.576 261.704,903.576 C261.288,903.576 260.896,903.504 260.528,903.36 C260.16,903.216 259.96,903.016 259.928,902.76 L259.928,902.76 L259.832,902.04 C259.768,901.688 259.752,901.392 259.784,901.152 C259.816,900.912 259.976,900.616 260.264,900.264 L260.264,900.264 L261.368,899.688 C261.496,899.624 261.704,899.488 261.992,899.28 C262.28,899.072 262.584,898.84 262.904,898.584 C263.224,898.328 263.528,898.072 263.816,897.816 C264.104,897.56 264.328,897.352 264.488,897.192 C264.904,896.84 265.304,896.472 265.688,896.088 C266.072,895.704 266.44,895.288 266.792,894.84 L266.792,894.84 L267.032,894.648 C267.192,894.456 267.376,894.216 267.584,893.928 C267.792,893.64 267.976,893.344 268.136,893.04 C268.296,892.736 268.44,892.456 268.568,892.2 C268.696,891.944 268.776,891.768 268.808,891.672 C269.128,891 269.288,890.296 269.288,889.56 C269.16,888.76 268.904,888.112 268.52,887.616 C268.136,887.12 267.712,886.728 267.248,886.44 C266.784,886.152 266.352,885.96 265.952,885.864 C265.552,885.768 265.288,885.72 265.16,885.72 L265.16,885.72 L264.848,885.72 C264.736,885.72 264.616,885.736 264.488,885.768 C264.424,885.672 264.296,885.624 264.104,885.624 C263.912,885.624 263.736,885.64 263.576,885.672 C263.48,885.704 263.352,885.72 263.192,885.72 C262.936,885.72 262.568,885.88 262.088,886.2 C261.608,886.52 261.192,886.84 260.84,887.16 C260.776,887.256 260.776,887.416 260.84,887.64 L260.84,887.64 L260.84,887.784 C260.424,887.848 259.944,888.12 259.4,888.6 C258.856,889.08 258.36,889.544 257.912,889.992 C257.784,890.088 257.64,890.232 257.48,890.424 C257.32,890.616 257.16,890.84 257,891.096 C256.84,891.352 256.688,891.6 256.544,891.84 C256.4,892.08 256.28,892.296 256.184,892.488 L256.184,892.488 L256.184,892.44 L256.136,892.536 L255.608,893.304 C255.352,893.816 255.16,894.296 255.032,894.744 C254.904,895.192 254.792,895.64 254.696,896.088 L254.696,896.088 L254.6,896.568 C254.6,896.664 254.568,896.776 254.504,896.904 L254.504,896.904 L254.504,897.096 C254.408,897.608 254.32,898.12 254.24,898.632 C254.16,899.144 254.136,899.64 254.168,900.12 L254.168,900.12 L254.264,900.312 C254.264,900.664 254.408,901.064 254.696,901.512 C254.856,902.568 255.176,903.352 255.656,903.864 C256.136,904.376 256.6,904.712 257.048,904.872 L257.048,904.872 L257,904.872 C257.288,905.064 257.616,905.224 257.984,905.352 C258.352,905.48 258.728,905.576 259.112,905.64 C259.496,905.704 259.856,905.752 260.192,905.784 C260.528,905.816 260.792,905.832 260.984,905.832 Z M260.696,898.488 C260.856,898.04 261.224,897.328 261.8,896.352 C262.376,895.376 263.096,894.344 263.96,893.256 L263.96,893.256 L264.104,892.968 L264.392,892.488 L264.728,892.248 C265.144,891.736 265.584,891.264 266.048,890.832 C266.512,890.4 266.872,890.152 267.128,890.088 C267.352,890.216 267.512,890.344 267.608,890.472 C267.48,891.432 267.024,892.456 266.24,893.544 C265.456,894.632 264.456,895.688 263.24,896.712 L263.24,896.712 L262.424,897.288 L261.992,897.624 C261.608,897.976 261.176,898.264 260.696,898.488 Z M273.8,917.592 C274.44,917.592 275,917.528 275.48,917.4 C275.608,917.432 275.768,917.448 275.96,917.448 C276.28,917.448 276.576,917.416 276.848,917.352 C277.12,917.288 277.384,917.208 277.64,917.112 L277.64,917.112 L277.736,917.112 C277.768,917.128 277.792,917.14 277.808,917.148 L277.832,917.16 C278.024,917.16 278.232,917.072 278.456,916.896 C278.68,916.72 278.896,916.52 279.104,916.296 C279.312,916.072 279.496,915.84 279.656,915.6 C279.816,915.36 279.928,915.16 279.992,915 L279.992,915 L280.328,914.664 C280.488,914.504 280.616,914.36 280.712,914.232 L280.712,914.232 L280.712,914.28 C280.968,914.024 281.208,913.76 281.432,913.488 C281.656,913.216 281.8,913 281.864,912.84 C282.12,912.488 282.376,912.08 282.632,911.616 C282.888,911.152 283,910.696 282.968,910.248 C283.576,909.256 284.072,908.264 284.456,907.272 C284.84,906.28 285.192,905.256 285.512,904.2 C285.576,904.04 285.768,903.848 286.088,903.624 C286.408,903.4 286.76,903.16 287.144,902.904 C287.4,902.744 287.64,902.568 287.864,902.376 C288.088,902.184 288.296,902.04 288.488,901.944 C288.808,901.784 289.24,901.432 289.784,900.888 C290.328,900.344 290.912,899.704 291.536,898.968 C292.16,898.232 292.784,897.456 293.408,896.64 C294.032,895.824 294.6,895.048 295.112,894.312 C295.624,893.576 296.04,892.928 296.36,892.368 C296.68,891.808 296.824,891.432 296.792,891.24 C296.728,890.888 296.536,890.712 296.216,890.712 C295.928,890.712 295.688,890.856 295.496,891.144 C295.016,892.008 294.472,892.88 293.864,893.76 C293.256,894.64 292.616,895.48 291.944,896.28 C291.272,897.08 290.584,897.824 289.88,898.512 C289.176,899.2 288.488,899.784 287.816,900.264 L287.816,900.264 L286.904,901.032 L287.528,899.256 L287.768,898.056 C287.864,897.512 287.968,896.96 288.08,896.4 C288.192,895.84 288.232,895.304 288.2,894.792 C288.168,894.728 288.152,894.648 288.152,894.552 C288.12,894.392 288.12,894.232 288.152,894.072 L288.152,894.072 L288.248,893.592 C288.28,893.432 288.304,893.288 288.32,893.16 C288.336,893.032 288.328,892.904 288.296,892.776 C288.264,892.552 288.192,892.344 288.08,892.152 C287.968,891.96 287.832,891.768 287.672,891.576 C287.32,890.36 286.824,889.456 286.184,888.864 C285.544,888.272 284.92,887.976 284.312,887.976 C284.088,887.976 283.84,888.184 283.568,888.6 C283.296,889.016 283.192,889.624 283.256,890.424 C283.224,890.584 283.168,890.768 283.088,890.976 C283.008,891.184 282.904,891.4 282.776,891.624 C282.68,891.848 282.584,892.064 282.488,892.272 C282.392,892.48 282.312,892.744 282.248,893.064 L282.248,893.064 L282.248,893.736 L281,896.808 C280.392,898.024 279.72,898.992 278.984,899.712 C278.248,900.432 277.688,900.792 277.304,900.792 C277.048,900.792 276.904,900.648 276.872,900.36 C276.808,899.976 276.984,899.352 277.4,898.488 L277.4,898.488 L277.304,897.912 C277.24,897.656 277.208,897.48 277.208,897.384 C277.208,897.32 277.2,897.272 277.184,897.24 C277.168,897.208 277.176,897.16 277.208,897.096 L277.208,897.096 L277.592,895.656 C277.656,895.208 277.816,894.744 278.072,894.264 C278.328,893.784 278.6,893.304 278.888,892.824 L278.888,892.824 L279.368,891.96 C279.432,891.864 279.472,891.792 279.488,891.744 C279.504,891.696 279.528,891.624 279.56,891.528 L279.56,891.528 L279.56,891.576 L280.328,890.328 C280.616,889.848 280.92,889.376 281.24,888.912 C281.56,888.448 281.896,888.032 282.248,887.664 C282.6,887.296 282.992,887.008 283.424,886.8 C283.856,886.592 284.344,886.488 284.888,886.488 C285.048,886.488 285.128,886.36 285.128,886.104 C285.096,885.848 285.008,885.568 284.864,885.264 C284.72,884.96 284.528,884.68 284.288,884.424 C284.048,884.168 283.776,883.952 283.472,883.776 C283.168,883.6 282.872,883.512 282.584,883.512 C281.72,883.512 280.84,883.816 279.944,884.424 C279.592,884.488 279.24,884.568 278.888,884.664 C278.536,884.76 278.136,884.92 277.688,885.144 L277.688,885.144 L277.592,885.144 C277.56,885.144 277.52,885.136 277.472,885.12 C277.424,885.104 277.384,885.096 277.352,885.096 C277.32,885.128 277.272,885.144 277.208,885.144 L277.208,885.144 L276.968,885.144 L275.288,887.208 L275,887.592 L274.472,888.264 C273.448,889.704 272.76,891.024 272.408,892.224 C272.056,893.424 271.816,894.568 271.688,895.656 L271.688,895.656 L271.688,895.608 C271.624,895.864 271.592,896.136 271.592,896.424 L271.592,896.424 L271.592,897.048 C271.592,897.272 271.64,897.52 271.736,897.792 C271.832,898.064 271.944,898.28 272.072,898.44 L272.072,898.44 L272.744,899.256 C272.872,899.416 273.064,899.56 273.32,899.688 L273.32,899.688 L273.464,899.784 C273.688,900.232 273.992,900.648 274.376,901.032 C274.76,901.416 275.16,901.752 275.576,902.04 C275.992,902.328 276.4,902.56 276.8,902.736 C277.2,902.912 277.544,903 277.832,903 C278.28,903 278.872,902.536 279.608,901.608 L279.608,901.608 L279.56,901.512 C279.752,901.448 279.864,901.384 279.896,901.32 C280.344,900.808 280.816,900.248 281.312,899.64 C281.808,899.032 282.184,898.552 282.44,898.2 C282.376,898.392 282.28,898.696 282.152,899.112 C282.024,899.528 281.872,899.984 281.696,900.48 C281.52,900.976 281.344,901.48 281.168,901.992 C280.992,902.504 280.824,902.968 280.664,903.384 C280.664,903.512 280.656,903.672 280.64,903.864 C280.624,904.056 280.616,904.216 280.616,904.344 L280.616,904.344 L280.472,904.632 C280.28,904.984 280.112,905.264 279.968,905.472 C279.824,905.68 279.544,905.912 279.128,906.168 L279.128,906.168 L276.872,907.56 L276.296,907.992 C275.528,908.536 274.744,909.104 273.944,909.696 C273.144,910.288 272.424,910.88 271.784,911.472 C271.144,912.064 270.632,912.656 270.248,913.248 C269.864,913.84 269.704,914.408 269.768,914.952 C269.896,915.624 270.128,916.136 270.464,916.488 C270.8,916.84 271.168,917.104 271.568,917.28 C271.968,917.456 272.376,917.552 272.792,917.568 C273.208,917.584 273.544,917.592 273.8,917.592 Z M273.32,915.768 C273.032,915.768 272.776,915.736 272.552,915.672 C272.328,915.608 272.072,915.512 271.784,915.384 C271.624,915.352 271.464,915.28 271.304,915.168 C271.144,915.056 271.032,914.904 270.968,914.712 C270.936,914.424 271.056,914.104 271.328,913.752 C271.6,913.4 272.088,912.984 272.792,912.504 L272.792,912.504 L272.936,912.312 C273.768,911.704 274.656,911.096 275.6,910.488 C276.544,909.88 277.352,909.352 278.024,908.904 L278.024,908.904 L278.888,908.328 C278.76,908.68 278.568,909.136 278.312,909.696 C278.056,910.256 277.784,910.832 277.496,911.424 C277.208,912.016 276.904,912.592 276.584,913.152 C276.264,913.712 275.976,914.184 275.72,914.568 C275.4,914.984 275.008,915.288 274.544,915.48 C274.08,915.672 273.672,915.768 273.32,915.768 Z M305.096,906.12 C306.056,906.12 307.008,905.688 307.952,904.824 C308.896,903.96 309.792,902.928 310.64,901.728 C311.488,900.528 312.248,899.272 312.92,897.96 C313.592,896.648 314.152,895.56 314.6,894.696 L314.6,894.696 L315.224,893.448 C315.384,893.16 315.512,892.872 315.608,892.584 C315.704,892.296 315.752,892.088 315.752,891.96 C315.752,891.8 315.696,891.688 315.584,891.624 C315.472,891.56 315.368,891.528 315.272,891.528 C314.856,891.528 314.56,891.624 314.384,891.816 C314.208,892.008 314.072,892.264 313.976,892.584 C313.4,894.536 312.744,896.208 312.008,897.6 C311.272,898.992 310.544,900.136 309.824,901.032 C309.104,901.928 308.408,902.584 307.736,903 C307.064,903.416 306.52,903.624 306.104,903.624 C305.912,903.624 305.816,903.512 305.816,903.288 C305.784,903 305.832,902.64 305.96,902.208 C306.088,901.776 306.2,901.384 306.296,901.032 L306.296,901.032 L306.392,900.792 L306.584,899.736 L306.776,898.728 L307.016,897.672 L307.304,896.664 C307.496,896.056 307.704,895.384 307.928,894.648 C308.152,893.912 308.248,893.432 308.216,893.208 C308.184,892.952 308.056,892.648 307.832,892.296 C307.608,891.944 307.344,891.616 307.04,891.312 C306.736,891.008 306.408,890.76 306.056,890.568 C305.704,890.376 305.384,890.312 305.096,890.376 L305.096,890.376 L304.712,890.472 C304.232,890.536 304.024,890.76 304.088,891.144 L304.088,891.144 L303.608,893.112 L303.176,894.216 C302.984,894.76 302.656,895.408 302.192,896.16 C301.728,896.912 301.232,897.632 300.704,898.32 C300.176,899.008 299.672,899.592 299.192,900.072 C298.712,900.552 298.36,900.792 298.136,900.792 C297.88,900.792 297.664,900.696 297.488,900.504 C297.312,900.312 297.208,900.056 297.176,899.736 C297.08,898.712 297.344,897.512 297.968,896.136 C298.592,894.76 299.352,893.416 300.248,892.104 C300.728,891.4 301.304,890.76 301.976,890.184 C302.648,889.608 303.368,889.016 304.136,888.408 C304.264,888.312 304.48,888.232 304.784,888.168 C305.088,888.104 305.384,888.072 305.672,888.072 C306.056,888.072 306.328,888.12 306.488,888.216 C306.552,888.28 306.616,888.312 306.68,888.312 C306.744,888.312 306.816,888.176 306.896,887.904 C306.976,887.632 307.016,887.352 307.016,887.064 C306.952,886.68 306.8,886.32 306.56,885.984 C306.32,885.648 306.032,885.344 305.696,885.072 C305.36,884.8 305.016,884.584 304.664,884.424 C304.312,884.264 303.992,884.184 303.704,884.184 C303.32,884.216 302.752,884.336 302,884.544 C301.248,884.752 300.552,885.032 299.912,885.384 L299.912,885.384 L298.712,886.104 C298.456,886.264 298.208,886.424 297.968,886.584 C297.728,886.744 297.512,886.952 297.32,887.208 L297.32,887.208 L296.696,887.976 C296.184,888.584 295.696,889.232 295.232,889.92 C294.768,890.608 294.344,891.288 293.96,891.96 C293.576,892.632 293.24,893.28 292.952,893.904 C292.664,894.528 292.44,895.08 292.28,895.56 C292.12,896.008 292.016,896.456 291.968,896.904 C291.92,897.352 291.896,897.8 291.896,898.248 L291.896,898.248 L291.896,898.92 C291.96,899.656 292.152,900.296 292.472,900.84 C292.792,901.384 293.176,901.848 293.624,902.232 C294.072,902.616 294.552,902.904 295.064,903.096 C295.576,903.288 296.04,903.384 296.456,903.384 C296.744,903.352 297.088,903.216 297.488,902.976 C297.888,902.736 298.296,902.44 298.712,902.088 C299.128,901.736 299.536,901.368 299.936,900.984 C300.336,900.6 300.68,900.264 300.968,899.976 L300.968,899.976 L301.544,899.4 C301.512,899.56 301.472,899.752 301.424,899.976 C301.376,900.2 301.368,900.44 301.4,900.696 L301.4,900.696 L301.4,901.56 C301.4,901.752 301.416,901.944 301.448,902.136 C301.48,902.456 301.576,902.848 301.736,903.312 C301.896,903.776 302.128,904.216 302.432,904.632 C302.736,905.048 303.104,905.4 303.536,905.688 C303.968,905.976 304.488,906.12 305.096,906.12 Z M318.128,904.06848 L318.248,904.056 C318.44,904.056 318.688,904.024 318.992,903.96 C319.296,903.896 319.6,903.816 319.904,903.72 C320.208,903.624 320.488,903.52 320.744,903.408 C321,903.296 321.192,903.192 321.32,903.096 L321.32,903.096 L321.752,902.808 C321.944,902.712 322.136,902.608 322.328,902.496 C322.52,902.384 322.664,902.264 322.76,902.136 C322.952,901.784 323.192,901.304 323.48,900.696 C323.768,900.088 323.928,899.464 323.96,898.824 L323.96,898.824 L324.488,898.824 C324.584,898.792 324.704,898.744 324.848,898.68 C324.992,898.616 325.112,898.552 325.208,898.488 C325.464,898.424 325.712,898.344 325.952,898.248 C326.192,898.152 326.408,898.056 326.6,897.96 L326.6,897.96 L326.936,897.816 C327.608,897.464 328.192,897.096 328.688,896.712 C329.184,896.328 329.608,895.96 329.96,895.608 L329.96,895.608 L330.152,895.272 L330.248,895.08 C330.632,894.664 330.952,894.24 331.208,893.808 C331.464,893.376 331.72,892.952 331.976,892.536 C332.424,891.992 332.648,891.624 332.648,891.432 C332.776,890.984 332.704,890.688 332.432,890.544 C332.16,890.4 331.88,890.472 331.592,890.76 C331.368,891.208 331.16,891.576 330.968,891.864 C330.424,892.696 329.864,893.456 329.288,894.144 C328.712,894.832 328.008,895.464 327.176,896.04 L327.176,896.04 L327.032,896.136 L327.08,896.136 C326.888,896.296 326.664,896.44 326.408,896.568 C326.152,896.696 325.88,896.792 325.592,896.856 L325.592,896.856 L324.584,897.192 C324.616,897 324.68,896.8 324.776,896.592 C324.872,896.384 324.984,896.2 325.112,896.04 C325.4,895.656 325.56,895.352 325.592,895.128 C325.656,895 325.688,894.856 325.688,894.696 C325.688,894.536 325.656,894.328 325.592,894.072 C325.528,893.816 325.496,893.608 325.496,893.448 L325.496,893.448 L325.4,893.16 L325.352,892.968 C325.32,892.936 325.312,892.888 325.328,892.824 C325.344,892.76 325.368,892.712 325.4,892.68 C325.464,892.552 325.512,892.456 325.544,892.392 C325.576,892.328 325.512,892.232 325.352,892.104 L325.352,892.104 L324.824,890.664 L324.2,890.088 C324.104,889.864 323.96,889.52 323.768,889.056 C323.576,888.592 323.368,888.112 323.144,887.616 C322.92,887.12 322.696,886.64 322.472,886.176 C322.248,885.712 322.072,885.384 321.944,885.192 C322.04,884.968 322.176,884.72 322.352,884.448 C322.528,884.176 322.712,883.912 322.904,883.656 C323.256,883.208 323.568,882.76 323.84,882.312 C324.112,881.864 324.216,881.464 324.152,881.112 C324.12,880.952 324.088,880.816 324.056,880.704 C324.024,880.592 323.992,880.488 323.96,880.392 L323.96,880.392 L323.816,879.816 C323.72,879.368 323.536,878.96 323.264,878.592 C322.992,878.224 322.712,877.864 322.424,877.512 C322.2,877.32 321.992,877.168 321.8,877.056 C321.608,876.944 321.432,876.84 321.272,876.744 L321.272,876.744 L321.08,876.6 C320.728,876.344 320.456,876.256 320.264,876.336 C320.072,876.416 319.72,876.712 319.208,877.224 L319.208,877.224 L319.016,877.416 C318.952,877.576 318.848,877.76 318.704,877.968 C318.56,878.176 318.408,878.376 318.248,878.568 C317.992,878.824 317.76,879.104 317.552,879.408 C317.344,879.712 317.208,879.992 317.144,880.248 L317.144,880.248 L317.432,885.624 C317.336,885.88 317.128,886.344 316.808,887.016 C316.488,887.688 316.136,888.384 315.752,889.104 C315.368,889.824 315.016,890.488 314.696,891.096 C314.376,891.704 314.168,892.088 314.072,892.248 C313.944,892.504 313.848,892.768 313.784,893.04 C313.72,893.312 313.696,893.552 313.712,893.76 C313.728,893.968 313.768,894.12 313.832,894.216 C313.896,894.312 313.976,894.296 314.072,894.168 C314.616,893.528 315.136,892.768 315.632,891.888 C316.128,891.008 316.584,890.2 317,889.464 C317.352,888.824 317.648,888.296 317.888,887.88 C318.128,887.464 318.296,887.24 318.392,887.208 C318.488,887.496 318.568,887.672 318.632,887.736 C318.792,888.024 318.896,888.296 318.944,888.552 C318.992,888.808 319.048,889.064 319.112,889.32 C319.272,889.672 319.352,890.04 319.352,890.424 C319.384,890.616 319.408,890.808 319.424,891 C319.44,891.192 319.496,891.384 319.592,891.576 L319.592,891.576 L319.304,893.736 C319.4,893.992 319.432,894.24 319.4,894.48 C319.368,894.72 319.32,894.952 319.256,895.176 C319.16,895.464 319.112,895.736 319.112,895.992 C319.144,896.152 319.096,896.36 318.968,896.616 C318.968,896.648 318.96,896.68 318.944,896.712 L318.926,896.76 L318.926,896.76 L318.92,896.808 C318.856,897.16 318.712,897.4 318.488,897.528 C318.328,897.432 318.048,897.4 317.648,897.432 C317.248,897.464 316.808,897.536 316.328,897.648 C315.848,897.76 315.384,897.904 314.936,898.08 C314.488,898.256 314.152,898.456 313.928,898.68 C313.512,898.936 313.168,899.256 312.896,899.64 C312.624,900.024 312.52,900.44 312.584,900.888 C312.648,901.336 312.824,901.736 313.112,902.088 C313.4,902.44 313.736,902.712 314.12,902.904 L314.12,902.904 L314.072,902.856 C314.552,903.112 315.008,903.312 315.44,903.456 C315.872,903.6 316.248,903.656 316.568,903.624 C316.696,903.688 316.776,903.72 316.808,903.72 C317.032,903.816 317.28,903.904 317.552,903.984 C317.824,904.064 318.056,904.088 318.248,904.056 L318.128,904.06848 Z M315.368,901.656 C315.016,901.656 314.712,901.568 314.456,901.392 C314.2,901.216 314.104,901.032 314.168,900.84 C314.36,900.52 314.68,900.24 315.128,900 C315.576,899.76 316.024,899.56 316.472,899.4 C316.92,899.24 317.312,899.128 317.648,899.064 C317.984,899 318.168,898.984 318.2,899.016 C317.976,900.2 317.352,901 316.328,901.416 C315.944,901.576 315.624,901.656 315.368,901.656 Z" id="LasVegas"></path>
        </g>
    </g>
</svg>