<?xml version="1.0" encoding="UTF-8"?>
<svg width="30px" height="30px" viewBox="0 0 30 30" version="1.1" xmlns="http://www.w3.org/2000/svg" xmlns:xlink="http://www.w3.org/1999/xlink">
    <!-- Generator: sketchtool 62 (101010) - https://sketch.com -->
    <title>7B082550-1648-4AE8-81DB-F39D47AD1E54</title>
    <desc>Created with sketchtool.</desc>
    <g id="2020-Final" stroke="none" stroke-width="1" fill="none" fill-rule="evenodd">
        <g id="NADA-2020_Form" transform="translate(-1466.000000, -942.000000)" fill="#FFFFFF" fill-rule="nonzero">
            <g id="Group-9" transform="translate(0.000000, 868.000000)">
                <g id="Social_inactive" transform="translate(1370.000000, 74.000000)">
                    <g id="linkedin_inactive" transform="translate(96.000000, 0.000000)">
                        <path d="M15,0 C23.2842712,0 30,6.71572875 30,15 C30,23.2842712 23.2842712,30 15,30 C6.71572875,30 0,23.2842712 0,15 C0,6.71572875 6.71572875,0 15,0 Z M18.3309245,12.4426224 C16.7747396,12.4426224 16.1198242,13.6544656 16.1198242,13.6544656 L16.1198242,13.6544656 L16.1198242,12.6666667 L13.9416667,12.6666667 L13.9416667,20 L16.1198242,20 L16.1198242,16.1504474 C16.1198242,15.1189849 16.5946289,14.5051895 17.503418,14.5051895 C18.3388021,14.5051895 18.7398437,15.0950057 18.7398437,16.1504474 L18.7398437,16.1504474 L18.7398437,20 L21,20 L21,15.3569871 C21,13.3924841 19.8863932,12.4426224 18.3309245,12.4426224 Z M12.489681,12.6666667 L10.2184245,12.6666667 L10.2184245,20 L12.489681,20 L12.489681,12.6666667 Z M11.3431315,9 C10.6012044,9 10,9.60592159 10,10.3532129 C10,11.1005043 10.6012044,11.7064259 11.3431315,11.7064259 L11.3431315,11.7064259 L11.4725017,11.7002306 C12.1536673,11.6346518 12.6859049,11.056546 12.6859049,10.3532129 C12.6859049,9.60592159 12.0850586,9 11.3431315,9 Z" id="Combined-Shape"></path>
                    </g>
                </g>
            </g>
        </g>
    </g>
</svg>