<?xml version="1.0" encoding="UTF-8"?>
<svg width="158px" height="17px" viewBox="0 0 158 17" version="1.1" xmlns="http://www.w3.org/2000/svg" xmlns:xlink="http://www.w3.org/1999/xlink">
    <!-- Generator: sketchtool 62 (101010) - https://sketch.com -->
    <title>8F312B25-8E10-4AEC-BD95-FE6478AC832F</title>
    <desc>Created with sketchtool.</desc>
    <g id="2020-Final" stroke="none" stroke-width="1" fill="none" fill-rule="evenodd">
        <g id="NADA-2020_Micro-site-2" transform="translate(-136.000000, -55.000000)" fill="#05DEBA">
            <path d="M290.923547,55.5458716 C290.573382,55.9097859 290.398299,56.351682 290.398299,56.8715596 L290.398299,64.5527523 C290.398299,65.4885321 290.348275,66.2029701 290.248228,66.6972477 C290.148181,67.1911315 289.910569,67.4380734 289.535391,67.4380734 C289.335297,67.4380734 289.078736,67.3533963 288.766089,67.18483 C288.45382,67.0154759 288.059694,66.7878325 287.58447,66.5022936 L270.401355,55.5848624 C270.126225,55.4029052 269.819641,55.2599388 269.481981,55.1559633 C269.144322,55.0515939 268.800599,55 268.450433,55 C267.424949,55 266.568105,55.3639144 265.88028,56.0917431 C265.192834,56.8195719 264.848732,57.7163609 264.848732,58.7821101 L264.848732,70.1284404 C264.848732,70.648318 265.023815,71.0902141 265.37398,71.4541284 C265.724146,71.817649 266.149347,72 266.649583,72 C267.149819,72 267.57502,71.817649 267.925185,71.4541284 C268.275351,71.0902141 268.450433,70.648318 268.450433,70.1284404 L268.450433,62.4472477 C268.450433,61.5114679 268.500457,60.7966361 268.600504,60.3027523 C268.700551,59.8088685 268.938164,59.5619266 269.313341,59.5619266 C269.513435,59.5619266 269.769996,59.6462098 270.082265,59.8155639 C270.394912,59.9841303 270.789038,60.2117737 271.264262,60.4977064 L288.447378,71.4151376 C288.722508,71.5970948 289.028713,71.7396673 289.366372,71.8440367 C289.704032,71.9480122 290.048134,72 290.398299,72 C291.423783,72 292.280627,71.6360856 292.968073,70.9082569 C293.655898,70.1804281 294,69.2832453 294,68.2178899 L294,56.8715596 C294,56.351682 293.824917,55.9097859 293.474752,55.5458716 C293.124587,55.1819572 292.699386,55 292.199149,55 C291.698913,55 291.273712,55.1819572 290.923547,55.5458716 L290.923547,55.5458716 Z M237.5112,55 C236.435692,55 235.472737,55.2599388 234.622336,55.7798165 C233.771934,56.2993003 233.046591,56.9692336 232.446308,57.788041 C231.846024,58.6068483 231.389748,59.5162404 231.076722,60.5173988 C230.764453,61.5177694 230.60794,62.5122324 230.60794,63.5 C230.60794,64.4617737 230.75801,65.4365443 231.058152,66.4243119 C231.358294,67.4116857 231.789558,68.3088685 232.352324,69.1146789 C232.91509,69.9204893 233.596851,70.5896349 234.397229,71.1229033 C235.197607,71.6553841 236.110538,71.9480122 237.136023,72 L254.244103,72 C255.319611,72 256.282565,71.7396673 257.132967,71.2201835 C257.983369,70.7003058 258.708711,70.0311602 259.308995,69.2123529 C259.909278,68.3935455 260.365933,67.4833658 260.678202,66.4829951 C260.991229,65.4818367 261.147363,64.4873737 261.147363,63.5 C261.147363,62.5378325 260.997292,61.5634557 260.69715,60.5756881 C260.397009,59.5879205 259.965365,58.6911315 259.4026,57.8853211 C258.839834,57.0795107 258.158451,56.4099713 257.358073,55.8774905 C256.557695,55.344222 255.644764,55.0515939 254.61928,55 L237.5112,55 L237.5112,55 Z M236.179131,67.7696923 C235.641756,67.4443749 235.216556,67.0481651 234.903529,66.5802752 C234.59126,66.1123853 234.378281,65.5988092 234.265728,65.0403345 C234.153175,64.4810722 234.097087,63.9678899 234.097087,63.5 C234.097087,63.0321101 234.153175,62.518534 234.265728,61.9600593 C234.378281,61.400797 234.59126,60.8876147 234.903529,60.4197248 C235.216556,59.9518349 235.641756,59.5552312 236.179131,59.2307015 C236.717264,58.9053841 237.423659,58.7431193 238.299072,58.7431193 L253.456231,58.7431193 C254.306632,58.7431193 255.006963,58.9053841 255.557223,59.2307015 C256.107483,59.5552312 256.539126,59.9518349 256.851395,60.4197248 C257.164421,60.8876147 257.376643,61.400797 257.489196,61.9600593 C257.601749,62.518534 257.658215,63.0321101 257.658215,63.5 C257.658215,63.9678899 257.601749,64.4810722 257.489196,65.0403345 C257.376643,65.5988092 257.164421,66.1123853 256.851395,66.5802752 C256.539126,67.0481651 256.107483,67.4443749 255.557223,67.7696923 C255.006963,68.094222 254.306632,68.2568807 253.456231,68.2568807 L238.299072,68.2568807 C237.423659,68.2568807 236.717264,68.094222 236.179131,67.7696923 L236.179131,67.7696923 Z M223.400748,55.5458716 C223.050582,55.9097859 222.8755,56.351682 222.8755,56.8715596 L222.8755,70.1284404 C222.8755,70.648318 223.050582,71.0902141 223.400748,71.4541284 C223.750913,71.817649 224.176114,72 224.67635,72 C225.176587,72 225.601787,71.817649 225.951953,71.4541284 C226.302118,71.0902141 226.477201,70.648318 226.477201,70.1284404 L226.477201,56.8715596 C226.477201,56.351682 226.302118,55.9097859 225.951953,55.5458716 C225.601787,55.1819572 225.176587,55 224.67635,55 C224.176114,55 223.750913,55.1819572 223.400748,55.5458716 L223.400748,55.5458716 Z M214.910374,55.5458716 C213.909902,56.2993003 212.865848,57.0405199 211.777834,57.7683486 C210.68982,58.4961774 209.551404,59.1460245 208.363722,59.7178899 C207.175282,60.2897554 205.956145,60.7513437 204.705555,61.1022611 C203.454964,61.4531786 202.179362,61.6284404 200.878747,61.6284404 L199.033558,61.6284404 L199.033558,56.8715596 C199.033558,56.351682 198.858475,55.9097859 198.50831,55.5458716 C198.158144,55.1819572 197.732943,55 197.232707,55 C196.757483,55 196.344788,55.1819572 195.994623,55.5458716 C195.644457,55.9097859 195.469374,56.351682 195.469374,56.8715596 L195.469374,70.1284404 C195.469374,70.648318 195.644457,71.0902141 195.994623,71.4541284 C196.344788,71.817649 196.769989,72 197.270225,72 C197.745449,72 198.158144,71.817649 198.50831,71.4541284 C198.858475,71.0902141 199.033558,70.648318 199.033558,70.1284404 L199.033558,65.3715596 L200.878747,65.3715596 C202.179362,65.3715596 203.454964,65.540126 204.705555,65.8784404 C205.956145,66.2163609 207.169218,66.67086 208.344773,67.2431193 C209.520329,67.8149847 210.652303,68.464438 211.740317,69.1926606 C212.82833,69.9204893 213.88489,70.6743119 214.910374,71.4541284 C215.335575,71.817649 215.760776,72 216.185977,72 C216.686213,72 217.111414,71.817649 217.461579,71.4541284 C217.811745,71.0902141 217.986827,70.648318 217.986827,70.1284404 C217.986827,69.764526 217.88678,69.4462978 217.686686,69.1733621 C217.486591,68.9004263 217.248979,68.6593921 216.973849,68.4518349 C216.323542,67.9319572 215.698246,67.4443749 215.097963,66.9898758 C214.497679,66.534589 213.897396,66.1123853 213.297112,65.7224771 C212.696829,65.3325688 212.077976,64.9552636 211.440175,64.5917431 C210.802374,64.2278287 210.120612,63.8635205 209.39527,63.5 C210.120612,63.1360856 210.802374,62.7721713 211.440175,62.4082569 C212.077976,62.0443425 212.696829,61.6674312 213.297112,61.2775229 C213.897396,60.8876147 214.497679,60.4650171 215.097963,60.010518 C215.698246,59.5552312 216.323542,59.067649 216.973849,58.5481651 C217.248979,58.3402141 217.486591,58.0999676 217.686686,57.8270318 C217.88678,57.554096 217.986827,57.235474 217.986827,56.8715596 C217.986827,56.351682 217.811745,55.9097859 217.461579,55.5458716 C217.111414,55.1819572 216.686213,55 216.185977,55 C215.760776,55 215.335575,55.1819572 214.910374,55.5458716 L214.910374,55.5458716 Z M174.354478,55 C173.278591,55 172.316015,55.2599388 171.465614,55.7798165 C170.614833,56.2993003 169.889869,56.9692336 169.289586,57.788041 C168.689302,58.6068483 168.232647,59.5162404 167.920379,60.5173988 C167.607352,61.5177694 167.451218,62.5122324 167.451218,63.5 C167.451218,64.4617737 167.601288,65.4495413 167.90143,66.4633028 C168.201572,67.4770642 168.632836,68.3935455 169.195602,69.2123529 C169.758747,70.0311602 170.440129,70.7003058 171.240507,71.2201835 C172.040506,71.7396673 172.953816,72 173.979301,72 L189.030727,72 C189.530585,72 189.956165,71.817649 190.30633,71.4541284 C190.656116,71.0902141 190.831578,70.648318 190.831578,70.1284404 C190.831578,69.6085627 190.656116,69.1662728 190.30633,68.8027523 C189.956165,68.4388379 189.530585,68.2568807 189.030727,68.2568807 L175.179868,68.2568807 C174.304454,68.2568807 173.597681,68.094222 173.059927,67.7696923 C172.522173,67.4443749 172.096972,67.0481651 171.784325,66.5802752 C171.471677,66.1123853 171.259077,65.5988092 171.146523,65.0403345 C171.03397,64.4810722 170.977883,63.9678899 170.977883,63.5 C170.977883,63.0321101 171.03397,62.518534 171.146523,61.9600593 C171.259077,61.400797 171.471677,60.8876147 171.784325,60.4197248 C172.096972,59.9518349 172.522173,59.5552312 173.059927,59.2307015 C173.597681,58.9053841 174.304454,58.7431193 175.179868,58.7431193 L189.030727,58.7431193 C189.530585,58.7431193 189.956165,58.5611621 190.30633,58.1972477 C190.656116,57.8333333 190.831578,57.3914373 190.831578,56.8715596 C190.831578,56.351682 190.656116,55.9097859 190.30633,55.5458716 C189.956165,55.1819572 189.530585,55 189.030727,55 L174.354478,55 L174.354478,55 Z M136.525248,55.5458716 C136.175083,55.9097859 136,56.351682 136,56.8715596 C136,57.3914373 136.175083,57.8333333 136.525248,58.1972477 C136.875413,58.5611621 137.300614,58.7431193 137.800851,58.7431193 L148.906095,58.7431193 L148.906095,70.3600222 C148.906095,70.8153091 149.081178,71.2024604 149.431343,71.5214762 C149.781509,71.8404921 150.20671,72 150.706946,72 C151.207182,72 151.632383,71.8404921 151.982548,71.5214762 C152.332714,71.2024604 152.507796,70.8153091 152.507796,70.3600222 L152.507796,58.7431193 L163.763112,58.7431193 C164.213325,58.6911315 164.601008,58.4898758 164.926161,58.1389584 C165.251315,57.788041 165.413892,57.3654434 165.413892,56.8715596 C165.413892,56.351682 165.238809,55.9097859 164.888644,55.5458716 C164.538478,55.1819572 164.113278,55 163.613041,55 L137.800851,55 C137.300614,55 136.875413,55.1819572 136.525248,55.5458716 Z M175.488347,61.6284404 C175.016912,61.6284404 174.616344,61.8103976 174.286643,62.1743119 C173.956563,62.5378325 173.791712,62.9801223 173.791712,63.5 C173.791712,64.0198777 173.956563,64.4617737 174.286643,64.8256881 C174.616344,65.1896024 175.016912,65.3715596 175.488347,65.3715596 L187.734661,65.3715596 C188.206096,65.3715596 188.606285,65.1896024 188.936365,64.8256881 C189.266445,64.4617737 189.431295,64.0198777 189.431295,63.5 C189.431295,62.9801223 189.266445,62.5378325 188.936365,62.1743119 C188.606285,61.8103976 188.206096,61.6284404 187.734661,61.6284404 L175.488347,61.6284404 L175.488347,61.6284404 Z" id="Logo"></path>
        </g>
    </g>
</svg>