<?xml version="1.0" encoding="UTF-8"?>
<svg width="163px" height="17px" viewBox="0 0 163 17" version="1.1" xmlns="http://www.w3.org/2000/svg" xmlns:xlink="http://www.w3.org/1999/xlink">
    <!-- Generator: sketchtool 62 (101010) - https://sketch.com -->
    <title>BCD906E0-F8FE-42C7-A0E3-A85A37F805BA</title>
    <desc>Created with sketchtool.</desc>
    <g id="2020-Final" stroke="none" stroke-width="1" fill="none" fill-rule="evenodd">
        <g id="NADA-2020_Form" transform="translate(-136.000000, -948.000000)" fill="#FFFFFF" fill-rule="nonzero">
            <g id="Group-9" transform="translate(0.000000, 868.000000)">
                <path d="M295.796678,80.5404737 C295.4355,80.9007895 295.254909,81.3383158 295.254909,81.8530526 L295.254909,89.4582895 C295.254909,90.3848158 295.203312,91.0921889 295.100118,91.5815789 C294.996923,92.0705789 294.751836,92.3150789 294.364859,92.3150789 C294.15847,92.3150789 293.893839,92.2312393 293.571358,92.0643397 C293.249266,91.8966603 292.842744,91.6712679 292.352571,91.3885526 L274.62896,80.5790789 C274.345175,80.3989211 274.028947,80.2573684 273.680667,80.1544211 C273.332386,80.0510837 272.977852,80 272.616672,80 C271.558931,80 270.675135,80.3603158 269.965674,81.0809474 C269.256605,81.801579 268.901679,82.6895 268.901679,83.7447105 L268.901679,94.9788421 C268.901679,95.4935789 269.082269,95.9311053 269.443449,96.2914211 C269.804629,96.6513468 270.243204,96.8318947 270.759175,96.8318947 C271.275146,96.8318947 271.713722,96.6513468 272.074902,96.2914211 C272.436082,95.9311053 272.616672,95.4935789 272.616672,94.9788421 L272.616672,87.3736053 C272.616672,86.447079 272.668269,85.7393158 272.771463,85.2503158 C272.874657,84.7613158 273.119744,84.5168158 273.506722,84.5168158 C273.713111,84.5168158 273.977741,84.6002655 274.299832,84.767945 C274.622314,84.9348445 275.028837,85.1602368 275.51901,85.4433421 L293.242621,96.2528158 C293.526406,96.4329737 293.842243,96.5741363 294.190523,96.6774737 C294.538804,96.7804211 294.893729,96.8318947 295.254909,96.8318947 C296.312651,96.8318947 297.196447,96.4715789 297.905516,95.7509474 C298.614976,95.0303158 298.969902,94.1420047 298.969902,93.0871842 L298.969902,81.8530526 C298.969902,81.3383158 298.789312,80.9007895 298.428132,80.5404737 C298.066953,80.1801579 297.628376,80 297.112406,80 C296.596434,80 296.157859,80.1801579 295.796678,80.5404737 Z M240.704242,80 C239.594904,80 238.60166,80.2573684 237.724509,80.7721053 C236.847358,81.2864522 236.099199,81.9497608 235.480034,82.7604713 C234.860868,83.5711818 234.39024,84.4715813 234.067367,85.4628397 C233.745276,86.4533182 233.583839,87.4379474 233.583839,88.4159474 C233.583839,89.3682105 233.738631,90.3333421 234.048213,91.3113421 C234.357796,92.2889521 234.802626,93.1772632 235.383094,93.9751053 C235.963561,94.7729474 236.666768,95.4354761 237.492322,95.9634712 C238.317876,96.4906867 239.259523,96.7804211 240.317264,96.8318947 L257.96348,96.8318947 C259.072818,96.8318947 260.066063,96.5741363 260.943214,96.0597895 C261.820365,95.5450526 262.568523,94.8825239 263.187689,94.0718133 C263.806854,93.2611028 264.277873,92.3599235 264.599964,91.3694449 C264.922837,90.3781867 265.083883,89.3935574 265.083883,88.4159474 C265.083883,87.4632943 264.929091,86.4985526 264.619509,85.5205526 C264.309926,84.5425526 263.864705,83.6546316 263.284238,82.8567895 C262.70377,82.0589474 262.000955,81.3960287 261.175401,80.8688134 C260.349847,80.3408182 259.408199,80.0510837 258.350458,80 L240.704242,80 Z M239.330274,92.6434186 C238.775995,92.3213182 238.33742,91.9290263 238.014547,91.4657632 C237.692456,91.0025 237.472777,90.4940025 237.356684,89.9410502 C237.24059,89.3873182 237.182739,88.8792105 237.182739,88.4159474 C237.182739,87.9526842 237.24059,87.4441866 237.356684,86.8912345 C237.472777,86.3375024 237.692456,85.8293947 238.014547,85.3661316 C238.33742,84.9028684 238.775995,84.5101866 239.330274,84.188866 C239.885334,83.8667655 240.613947,83.7061053 241.516897,83.7061053 L257.150825,83.7061053 C258.027976,83.7061053 258.750336,83.8667655 259.317904,84.188866 C259.885473,84.5101866 260.330693,84.9028684 260.652784,85.3661316 C260.975657,85.8293947 261.194554,86.3375024 261.310648,86.8912345 C261.426741,87.4441866 261.484984,87.9526842 261.484984,88.4159474 C261.484984,88.8792105 261.426741,89.3873182 261.310648,89.9410502 C261.194554,90.4940025 260.975657,91.0025 260.652784,91.4657632 C260.330693,91.9290263 259.885473,92.3213182 259.317904,92.6434186 C258.750336,92.9647393 258.027976,93.1257895 257.150825,93.1257895 L241.516897,93.1257895 C240.613947,93.1257895 239.885334,92.9647393 239.330274,92.6434186 Z M226.149945,80.5404737 C225.788765,80.9007895 225.608175,81.3383158 225.608175,81.8530526 L225.608175,94.9788421 C225.608175,95.4935789 225.788765,95.9311053 226.149945,96.2914211 C226.511125,96.6513468 226.9497,96.8318947 227.465671,96.8318947 C227.981643,96.8318947 228.420218,96.6513468 228.781398,96.2914211 C229.142578,95.9311053 229.323168,95.4935789 229.323168,94.9788421 L229.323168,81.8530526 C229.323168,81.3383158 229.142578,80.9007895 228.781398,80.5404737 C228.420218,80.1801579 227.981643,80 227.465671,80 C226.9497,80 226.511125,80.1801579 226.149945,80.5404737 Z M217.392506,80.5404737 C216.360564,81.2864522 215.283669,82.0203421 214.161432,82.7409737 C213.039194,83.4616053 211.864969,84.1050263 210.639928,84.6712368 C209.414105,85.2374474 208.156621,85.6944713 206.866693,86.0419187 C205.576765,86.389366 204.261038,86.5628947 202.919513,86.5628947 L201.016283,86.5628947 L201.016283,81.8530526 C201.016283,81.3383158 200.835693,80.9007895 200.474513,80.5404737 C200.113333,80.1801579 199.674758,80 199.158787,80 C198.668614,80 198.242938,80.1801579 197.881758,80.5404737 C197.520578,80.9007895 197.339988,81.3383158 197.339988,81.8530526 L197.339988,94.9788421 C197.339988,95.4935789 197.520578,95.9311053 197.881758,96.2914211 C198.242938,96.6513468 198.681513,96.8318947 199.197484,96.8318947 C199.687657,96.8318947 200.113333,96.6513468 200.474513,96.2914211 C200.835693,95.9311053 201.016283,95.4935789 201.016283,94.9788421 L201.016283,90.269 L202.919513,90.269 C204.261038,90.269 205.576765,90.4358995 206.866693,90.7708684 C208.156621,91.1054474 209.407851,91.5554521 210.620384,92.1220526 C211.832916,92.6882632 213.000496,93.3312942 214.122734,94.0523158 C215.244971,94.7729474 216.334765,95.5193158 217.392506,96.2914211 C217.831081,96.6513468 218.269657,96.8318947 218.708233,96.8318947 C219.224204,96.8318947 219.662779,96.6513468 220.023959,96.2914211 C220.385139,95.9311053 220.565729,95.4935789 220.565729,94.9788421 C220.565729,94.6185263 220.462535,94.3034449 220.256146,94.0332081 C220.049758,93.7629712 219.804671,93.5243205 219.520887,93.3188158 C218.850125,92.8040789 218.205161,92.3213182 217.585995,91.8713133 C216.96683,91.4205288 216.347664,91.0025 215.728499,90.6164474 C215.109333,90.2303947 214.471014,89.8568205 213.813151,89.4968947 C213.155288,89.136579 212.452081,88.7758732 211.703923,88.4159474 C212.452081,88.0556316 213.155288,87.6953158 213.813151,87.335 C214.471014,86.9746842 215.109333,86.6015 215.728499,86.2154474 C216.347664,85.8293947 216.96683,85.4109761 217.585995,84.9609713 C218.205161,84.5101866 218.850125,84.0274258 219.520887,83.513079 C219.804671,83.3071842 220.049758,83.0693134 220.256146,82.7990766 C220.462535,82.5288397 220.565729,82.2133684 220.565729,81.8530526 C220.565729,81.3383158 220.385139,80.9007895 220.023959,80.5404737 C219.662779,80.1801579 219.224204,80 218.708233,80 C218.269657,80 217.831081,80.1801579 217.392506,80.5404737 Z M175.560921,80 C174.451192,80 173.458338,80.2573684 172.581187,80.7721053 C171.703645,81.2864522 170.955878,81.9497608 170.336712,82.7604713 C169.717547,83.5711818 169.246528,84.4715813 168.924436,85.4628397 C168.601564,86.4533182 168.440518,87.4379474 168.440518,88.4159474 C168.440518,89.3682105 168.595309,90.3462105 168.904892,91.3499474 C169.214475,92.3536842 169.659305,93.2611028 170.239772,94.0718133 C170.820631,94.8825239 171.523446,95.5450526 172.349,96.0597895 C173.174163,96.5741363 174.116201,96.8318947 175.173943,96.8318947 L190.698813,96.8318947 C191.214393,96.8318947 191.65336,96.6513468 192.01454,96.2914211 C192.375329,95.9311053 192.556309,95.4935789 192.556309,94.9788421 C192.556309,94.4641053 192.375329,94.0261889 192.01454,93.6662632 C191.65336,93.3059474 191.214393,93.1257895 190.698813,93.1257895 L176.412273,93.1257895 C175.509324,93.1257895 174.780319,92.9647393 174.22565,92.6434186 C173.670981,92.3213182 173.232405,91.9290263 172.909923,91.4657632 C172.587441,91.0025 172.368154,90.4940025 172.25206,89.9410502 C172.135966,89.3873182 172.078115,88.8792105 172.078115,88.4159474 C172.078115,87.9526842 172.135966,87.4441866 172.25206,86.8912345 C172.368154,86.3375024 172.587441,85.8293947 172.909923,85.3661316 C173.232405,84.9028684 173.670981,84.5101866 174.22565,84.188866 C174.780319,83.8667655 175.509324,83.7061053 176.412273,83.7061053 L190.698813,83.7061053 C191.214393,83.7061053 191.65336,83.5259474 192.01454,83.1656316 C192.375329,82.8053158 192.556309,82.3677895 192.556309,81.8530526 C192.556309,81.3383158 192.375329,80.9007895 192.01454,80.5404737 C191.65336,80.1801579 191.214393,80 190.698813,80 L175.560921,80 Z M137.857496,80 C137.341525,80 136.90295,80.1801579 136.54177,80.5404737 C136.18059,80.9007895 136,81.3383158 136,81.8530526 C136,82.3677895 136.18059,82.8053158 136.54177,83.1656316 C136.90295,83.5259474 137.341525,83.7061053 137.857496,83.7061053 L149.312058,83.7061053 L149.312058,95.208134 C149.312058,95.6589186 149.492648,96.0422416 149.853827,96.3581028 C150.215007,96.673964 150.653583,96.8318947 151.169554,96.8318947 C151.685525,96.8318947 152.124101,96.673964 152.485281,96.3581028 C152.84646,96.0422416 153.02705,95.6589186 153.02705,95.208134 L153.02705,83.7061053 L164.636403,83.7061053 C165.100777,83.6546316 165.500655,83.455366 165.836036,83.1079187 C166.171417,82.7604713 166.339108,82.3420526 166.339108,81.8530526 C166.339108,81.3383158 166.158518,80.9007895 165.797338,80.5404737 C165.436158,80.1801579 164.997583,80 164.481611,80 L137.857496,80 Z M176.730456,86.5628947 C176.244192,86.5628947 175.831024,86.7430526 175.490952,87.1033684 C175.150489,87.4632943 174.980453,87.9012105 174.980453,88.4159474 C174.980453,88.9306842 175.150489,89.3682105 175.490952,89.7285263 C175.831024,90.0888421 176.244192,90.269 176.730456,90.269 L189.361978,90.269 C189.848242,90.269 190.261019,90.0888421 190.601482,89.7285263 C190.941945,89.3682105 191.111981,88.9306842 191.111981,88.4159474 C191.111981,87.9012105 190.941945,87.4632943 190.601482,87.1033684 C190.261019,86.7430526 189.848242,86.5628947 189.361978,86.5628947 L176.730456,86.5628947 Z" id="logo_footer"></path>
            </g>
        </g>
    </g>
</svg>