<?xml version="1.0" encoding="UTF-8"?>
<svg width="313px" height="47px" viewBox="0 0 313 47" version="1.1" xmlns="http://www.w3.org/2000/svg" xmlns:xlink="http://www.w3.org/1999/xlink">
    <!-- Generator: sketchtool 62 (101010) - https://sketch.com -->
    <title>80139D7E-DA8D-420B-89FE-8DF283605E4B@3x</title>
    <desc>Created with sketchtool.</desc>
    <g id="2020-Final" stroke="none" stroke-width="1" fill="none" fill-rule="evenodd">
        <g id="NADA-2020_Responsive" transform="translate(-32.000000, -210.000000)" fill-rule="nonzero">
            <g id="Group-7" transform="translate(32.000000, 210.000000)">
                <g id="Group-3-Copy">
                    <g id="Group" fill="#D224D2">
                        <polygon id="Path" points="10.279724 45.617418 10.279724 21.309851 26.6530989 45.617418 35.2901866 45.617418 35.2901866 0 25.0104626 0 25.0104626 24.307567 8.63708771 0 1.5655407e-14 0 1.5655407e-14 45.617418"></polygon>
                        <path d="M65.123834,0 L81.520331,45.617418 L70.6245943,45.617418 L67.7155384,36.7546054 L52.0595283,36.7546054 L49.1504724,45.617418 L38.4663034,45.617418 L54.8099085,0 L65.123834,0 Z M59.8168663,12.6905599 L55.0526911,27.4390484 L64.5810414,27.4390484 L59.8168663,12.6905599 Z" id="Combined-Shape"></path>
                        <path d="M101.816587,0 L102.341879,0.0052971887 C106.174993,0.0829892896 109.589524,1.0152945 112.585471,2.80221282 C115.717597,4.6703547 118.145875,7.32050946 119.870304,10.7526771 C121.594733,14.1848447 122.456947,18.203522 122.456947,22.808709 C122.456947,27.413896 121.594733,31.4325733 119.870304,34.8647409 C118.145875,38.2969085 115.717597,40.9470633 112.585471,42.8152052 C109.453345,44.6833471 105.863717,45.617418 101.816587,45.617418 L101.816587,45.617418 L84.3435459,45.617418 L84.3435459,0 L101.816587,0 Z M101.601972,10.2896432 L94.9306019,10.2896432 L94.9306019,35.3277748 L101.601972,35.3277748 C104.80423,35.3277748 107.374931,34.2193159 109.314076,32.002398 C111.253221,29.7854801 112.222793,26.7209171 112.222793,22.808709 C112.222793,18.8965009 111.253221,15.8319379 109.314076,13.61502 C107.374931,11.3981021 104.80423,10.2896432 101.601972,10.2896432 L101.601972,10.2896432 Z" id="Combined-Shape"></path>
                        <path d="M147.08856,0 L163.485057,45.617418 L152.58932,45.617418 L149.680264,36.7546054 L134.024254,36.7546054 L131.115198,45.617418 L120.431029,45.617418 L136.774634,0 L147.08856,0 Z M142.134494,12.6905599 L137.370319,27.4390484 L146.898669,27.4390484 L142.134494,12.6905599 Z" id="Combined-Shape"></path>
                    </g>
                    <g id="Group" transform="translate(2.962810, 0.000000)" fill="#00FFFF">
                        <polygon id="Path" points="10.279724 45.617418 10.279724 21.309851 26.6530989 45.617418 35.2901866 45.617418 35.2901866 0 25.0104626 0 25.0104626 24.307567 8.63708771 0 1.5655407e-14 0 1.5655407e-14 45.617418"></polygon>
                        <path d="M65.123834,0 L81.520331,45.617418 L70.6245943,45.617418 L67.7155384,36.7546054 L52.0595283,36.7546054 L49.1504724,45.617418 L38.4663034,45.617418 L54.8099085,0 L65.123834,0 Z M59.8168663,12.6905599 L55.0526911,27.4390484 L64.5810414,27.4390484 L59.8168663,12.6905599 Z" id="Combined-Shape"></path>
                        <path d="M101.816587,0 L102.341879,0.0052971887 C106.174993,0.0829892896 109.589524,1.0152945 112.585471,2.80221282 C115.717597,4.6703547 118.145875,7.32050946 119.870304,10.7526771 C121.594733,14.1848447 122.456947,18.203522 122.456947,22.808709 C122.456947,27.413896 121.594733,31.4325733 119.870304,34.8647409 C118.145875,38.2969085 115.717597,40.9470633 112.585471,42.8152052 C109.453345,44.6833471 105.863717,45.617418 101.816587,45.617418 L101.816587,45.617418 L84.3435459,45.617418 L84.3435459,0 L101.816587,0 Z M101.601972,10.2896432 L94.9306019,10.2896432 L94.9306019,35.3277748 L101.601972,35.3277748 C104.80423,35.3277748 107.374931,34.2193159 109.314076,32.002398 C111.253221,29.7854801 112.222793,26.7209171 112.222793,22.808709 C112.222793,18.8965009 111.253221,15.8319379 109.314076,13.61502 C107.374931,11.3981021 104.80423,10.2896432 101.601972,10.2896432 L101.601972,10.2896432 Z" id="Combined-Shape"></path>
                        <path d="M147.08856,0 L163.485057,45.617418 L152.58932,45.617418 L149.680264,36.7546054 L134.024254,36.7546054 L131.115198,45.617418 L120.431029,45.617418 L136.774634,0 L147.08856,0 Z M142.134494,12.6905599 L137.370319,27.4390484 L146.898669,27.4390484 L142.134494,12.6905599 Z" id="Combined-Shape"></path>
                    </g>
                    <g id="Group" transform="translate(1.693034, 0.000000)" fill="#FFFFFF">
                        <polygon id="Path" points="10.279724 45.617418 10.279724 21.309851 26.6530989 45.617418 35.2901866 45.617418 35.2901866 0 25.0104626 0 25.0104626 24.307567 8.63708771 0 1.5655407e-14 0 1.5655407e-14 45.617418"></polygon>
                        <path d="M65.123834,0 L81.520331,45.617418 L70.6245943,45.617418 L67.7155384,36.7546054 L52.0595283,36.7546054 L49.1504724,45.617418 L38.4663034,45.617418 L54.8099085,0 L65.123834,0 Z M59.8168663,12.6905599 L55.0526911,27.4390484 L64.5810414,27.4390484 L59.8168663,12.6905599 Z" id="Combined-Shape"></path>
                        <path d="M101.816587,0 L102.341879,0.0052971887 C106.174993,0.0829892896 109.589524,1.0152945 112.585471,2.80221282 C115.717597,4.6703547 118.145875,7.32050946 119.870304,10.7526771 C121.594733,14.1848447 122.456947,18.203522 122.456947,22.808709 C122.456947,27.413896 121.594733,31.4325733 119.870304,34.8647409 C118.145875,38.2969085 115.717597,40.9470633 112.585471,42.8152052 C109.453345,44.6833471 105.863717,45.617418 101.816587,45.617418 L101.816587,45.617418 L84.3435459,45.617418 L84.3435459,0 L101.816587,0 Z M101.601972,10.2896432 L94.9306019,10.2896432 L94.9306019,35.3277748 L101.601972,35.3277748 C104.80423,35.3277748 107.374931,34.2193159 109.314076,32.002398 C111.253221,29.7854801 112.222793,26.7209171 112.222793,22.808709 C112.222793,18.8965009 111.253221,15.8319379 109.314076,13.61502 C107.374931,11.3981021 104.80423,10.2896432 101.601972,10.2896432 L101.601972,10.2896432 Z" id="Combined-Shape"></path>
                        <path d="M147.08856,0 L163.485057,45.617418 L152.58932,45.617418 L149.680264,36.7546054 L134.024254,36.7546054 L131.115198,45.617418 L120.431029,45.617418 L136.774634,0 L147.08856,0 Z M142.134494,12.6905599 L137.370319,27.4390484 L146.898669,27.4390484 L142.134494,12.6905599 Z" id="Combined-Shape"></path>
                    </g>
                </g>
                <g id="Group-5" transform="translate(172.000000, 0.000000)">
                    <path d="M30.9843891,45.684 L30.9843891,37.2144944 L14.3599664,37.2144944 L23.2520995,27.4617303 C25.7927089,24.7241124 27.5048588,22.2859213 28.388549,20.1471573 C29.2722392,18.0083933 29.7140844,15.7199157 29.7140844,13.2817247 C29.7140844,10.586882 29.1157524,8.24493539 27.9190886,6.25588483 C26.7224247,4.26683427 25.0470953,2.72692416 22.8931003,1.63615449 C20.7391053,0.545384831 18.2261112,0 15.3541179,0 C11.9298183,0 8.89213305,0.737873596 6.24106233,2.21362079 C3.5899916,3.68936798 1.5096375,5.73188764 0,8.34117978 L0,8.34117978 L6.51721553,13.2175618 C7.4377262,11.720427 8.57915942,10.5975758 9.94151521,9.84900843 C11.303871,9.10044101 12.8319187,8.7261573 14.5256583,8.7261573 C16.5507818,8.7261573 18.0880346,9.20737921 19.1374168,10.169823 C20.1867989,11.1322669 20.71149,12.5117697 20.71149,14.3083315 C20.71149,15.5488146 20.4353368,16.7999916 19.8830304,18.0618624 C19.330724,19.3237331 18.2629316,20.8315618 16.6796533,22.5853483 L16.6796533,22.5853483 L1.76738048,38.9468933 L1.76738048,45.684 L30.9843891,45.684 Z M50.9332423,46.53 C54.1335477,46.53 56.9843945,45.608826 59.4857826,43.7664779 C61.9871707,41.9241298 63.9459783,39.2570097 65.3622054,35.7651174 C66.7784325,32.2732251 67.4865461,28.1065193 67.4865461,23.265 C67.4865461,18.4234807 66.7784325,14.2567749 65.3622054,10.7648826 C63.9459783,7.27299033 61.9871707,4.60587017 59.4857826,2.7635221 C56.9843945,0.921174033 54.1335477,0 50.9332423,0 C47.7329369,0 44.8820902,0.921174033 42.380702,2.7635221 C39.8793139,4.60587017 37.9205063,7.27299033 36.5042792,10.7648826 C35.0880521,14.2567749 34.3799386,18.4234807 34.3799386,23.265 C34.3799386,28.1065193 35.0880521,32.2732251 36.5042792,35.7651174 C37.9205063,39.2570097 39.8793139,41.9241298 42.380702,43.7664779 C44.8820902,45.608826 47.7329369,46.53 50.9332423,46.53 Z M51.5426999,37.647 C49.2572339,37.647 47.4524413,36.4751333 46.1283221,34.1314 C44.8042029,31.7876667 44.1421433,28.1655333 44.1421433,23.265 C44.1421433,18.3644667 44.8042029,14.7423333 46.1283221,12.3986 C47.4524413,10.0548667 49.2572339,8.883 51.5426999,8.883 C53.8644432,8.883 55.6873744,10.0548667 57.0114936,12.3986 C58.3356128,14.7423333 58.9976724,18.3644667 58.9976724,23.265 C58.9976724,28.1655333 58.3356128,31.7876667 57.0114936,34.1314 C55.6873744,36.4751333 53.8644432,37.647 51.5426999,37.647 Z M100.593154,45.684 L100.593154,37.2144944 L83.9687309,37.2144944 L92.860864,27.4617303 C95.4014734,24.7241124 97.1136233,22.2859213 97.9973135,20.1471573 C98.8810037,18.0083933 99.3228489,15.7199157 99.3228489,13.2817247 C99.3228489,10.586882 98.7245169,8.24493539 97.5278531,6.25588483 C96.3311892,4.26683427 94.6558598,2.72692416 92.5018648,1.63615449 C90.3478699,0.545384831 87.8348757,0 84.9628824,0 C81.5385828,0 78.5008976,0.737873596 75.8498268,2.21362079 C73.1987561,3.68936798 71.118402,5.73188764 69.6087645,8.34117978 L69.6087645,8.34117978 L76.12598,13.2175618 C77.0464907,11.720427 78.1879239,10.5975758 79.5502797,9.84900843 C80.9126355,9.10044101 82.4406832,8.7261573 84.1344228,8.7261573 C86.1595463,8.7261573 87.6967991,9.20737921 88.7461813,10.169823 C89.7955635,11.1322669 90.3202545,12.5117697 90.3202545,14.3083315 C90.3202545,15.5488146 90.0441013,16.7999916 89.4917949,18.0618624 C88.9394885,19.3237331 87.8716962,20.8315618 86.2884178,22.5853483 L86.2884178,22.5853483 L71.376145,38.9468933 L71.376145,45.684 L100.593154,45.684 Z M120.966451,46.53 C124.166756,46.53 127.017603,45.608826 129.518991,43.7664779 C132.020379,41.9241298 133.979187,39.2570097 135.395414,35.7651174 C136.811641,32.2732251 137.519754,28.1065193 137.519754,23.265 C137.519754,18.4234807 136.811641,14.2567749 135.395414,10.7648826 C133.979187,7.27299033 132.020379,4.60587017 129.518991,2.7635221 C127.017603,0.921174033 124.166756,0 120.966451,0 C117.766145,0 114.915298,0.921174033 112.41391,2.7635221 C109.912522,4.60587017 107.953715,7.27299033 106.537487,10.7648826 C105.12126,14.2567749 104.413147,18.4234807 104.413147,23.265 C104.413147,28.1065193 105.12126,32.2732251 106.537487,35.7651174 C107.953715,39.2570097 109.912522,41.9241298 112.41391,43.7664779 C114.915298,45.608826 117.766145,46.53 120.966451,46.53 Z M121.151464,37.647 C118.865998,37.647 117.061206,36.4751333 115.737087,34.1314 C114.412967,31.7876667 113.750908,28.1655333 113.750908,23.265 C113.750908,18.3644667 114.412967,14.7423333 115.737087,12.3986 C117.061206,10.0548667 118.865998,8.883 121.151464,8.883 C123.473208,8.883 125.296139,10.0548667 126.620258,12.3986 C127.944377,14.7423333 128.606437,18.3644667 128.606437,23.265 C128.606437,28.1655333 127.944377,31.7876667 126.620258,34.1314 C125.296139,36.4751333 123.473208,37.647 121.151464,37.647 Z" id="2020" fill="#D224D2"></path>
                    <path d="M34.3799386,45.684 L34.3799386,37.2144944 L17.7555159,37.2144944 L26.647649,27.4617303 C29.1882584,24.7241124 30.9004082,22.2859213 31.7840985,20.1471573 C32.6677887,18.0083933 33.1096338,15.7199157 33.1096338,13.2817247 C33.1096338,10.586882 32.5113019,8.24493539 31.314638,6.25588483 C30.1179742,4.26683427 28.4426448,2.72692416 26.2886498,1.63615449 C24.1346548,0.545384831 21.6216607,0 18.7496674,0 C15.3253677,0 12.2876825,0.737873596 9.63661182,2.21362079 C6.98554109,3.68936798 4.90518698,5.73188764 3.39554949,8.34117978 L3.39554949,8.34117978 L9.91276502,13.2175618 C10.8332757,11.720427 11.9747089,10.5975758 13.3370647,9.84900843 C14.6994205,9.10044101 16.2274682,8.7261573 17.9212078,8.7261573 C19.9463313,8.7261573 21.4835841,9.20737921 22.5329663,10.169823 C23.5823484,11.1322669 24.1070395,12.5117697 24.1070395,14.3083315 C24.1070395,15.5488146 23.8308863,16.7999916 23.2785799,18.0618624 C22.7262735,19.3237331 21.6584811,20.8315618 20.0752028,22.5853483 L20.0752028,22.5853483 L5.16292997,38.9468933 L5.16292997,45.684 L34.3799386,45.684 Z M54.3287918,46.53 C57.5290972,46.53 60.379944,45.608826 62.8813321,43.7664779 C65.3827202,41.9241298 67.3415278,39.2570097 68.7577549,35.7651174 C70.173982,32.2732251 70.8820956,28.1065193 70.8820956,23.265 C70.8820956,18.4234807 70.173982,14.2567749 68.7577549,10.7648826 C67.3415278,7.27299033 65.3827202,4.60587017 62.8813321,2.7635221 C60.379944,0.921174033 57.5290972,0 54.3287918,0 C51.1284864,0 48.2776397,0.921174033 45.7762515,2.7635221 C43.2748634,4.60587017 41.3160558,7.27299033 39.8998287,10.7648826 C38.4836016,14.2567749 37.7754881,18.4234807 37.7754881,23.265 C37.7754881,28.1065193 38.4836016,32.2732251 39.8998287,35.7651174 C41.3160558,39.2570097 43.2748634,41.9241298 45.7762515,43.7664779 C48.2776397,45.608826 51.1284864,46.53 54.3287918,46.53 Z M54.9382494,37.647 C52.6527834,37.647 50.8479908,36.4751333 49.5238716,34.1314 C48.1997524,31.7876667 47.5376928,28.1655333 47.5376928,23.265 C47.5376928,18.3644667 48.1997524,14.7423333 49.5238716,12.3986 C50.8479908,10.0548667 52.6527834,8.883 54.9382494,8.883 C57.2599926,8.883 59.0829239,10.0548667 60.4070431,12.3986 C61.7311622,14.7423333 62.3932218,18.3644667 62.3932218,23.265 C62.3932218,28.1655333 61.7311622,31.7876667 60.4070431,34.1314 C59.0829239,36.4751333 57.2599926,37.647 54.9382494,37.647 Z M103.988703,45.684 L103.988703,37.2144944 L87.3642804,37.2144944 L96.2564135,27.4617303 C98.7970229,24.7241124 100.509173,22.2859213 101.392863,20.1471573 C102.276553,18.0083933 102.718398,15.7199157 102.718398,13.2817247 C102.718398,10.586882 102.120066,8.24493539 100.923403,6.25588483 C99.7267387,4.26683427 98.0514093,2.72692416 95.8974143,1.63615449 C93.7434193,0.545384831 91.2304252,0 88.3584319,0 C84.9341322,0 81.896447,0.737873596 79.2453763,2.21362079 C76.5943056,3.68936798 74.5139515,5.73188764 73.004314,8.34117978 L73.004314,8.34117978 L79.5215295,13.2175618 C80.4420402,11.720427 81.5834734,10.5975758 82.9458292,9.84900843 C84.308185,9.10044101 85.8362327,8.7261573 87.5299723,8.7261573 C89.5550958,8.7261573 91.0923486,9.20737921 92.1417308,10.169823 C93.1911129,11.1322669 93.715804,12.5117697 93.715804,14.3083315 C93.715804,15.5488146 93.4396508,16.7999916 92.8873444,18.0618624 C92.335038,19.3237331 91.2672456,20.8315618 89.6839673,22.5853483 L89.6839673,22.5853483 L74.7716945,38.9468933 L74.7716945,45.684 L103.988703,45.684 Z M124.362,46.53 C127.562305,46.53 130.413152,45.608826 132.91454,43.7664779 C135.415928,41.9241298 137.374736,39.2570097 138.790963,35.7651174 C140.20719,32.2732251 140.915304,28.1065193 140.915304,23.265 C140.915304,18.4234807 140.20719,14.2567749 138.790963,10.7648826 C137.374736,7.27299033 135.415928,4.60587017 132.91454,2.7635221 C130.413152,0.921174033 127.562305,0 124.362,0 C121.161695,0 118.310848,0.921174033 115.80946,2.7635221 C113.308072,4.60587017 111.349264,7.27299033 109.933037,10.7648826 C108.51681,14.2567749 107.808696,18.4234807 107.808696,23.265 C107.808696,28.1065193 108.51681,32.2732251 109.933037,35.7651174 C111.349264,39.2570097 113.308072,41.9241298 115.80946,43.7664779 C118.310848,45.608826 121.161695,46.53 124.362,46.53 Z M124.547014,37.647 C122.261548,37.647 120.456755,36.4751333 119.132636,34.1314 C117.808517,31.7876667 117.146457,28.1655333 117.146457,23.265 C117.146457,18.3644667 117.808517,14.7423333 119.132636,12.3986 C120.456755,10.0548667 122.261548,8.883 124.547014,8.883 C126.868757,8.883 128.691688,10.0548667 130.015808,12.3986 C131.339927,14.7423333 132.001986,18.3644667 132.001986,23.265 C132.001986,28.1655333 131.339927,31.7876667 130.015808,34.1314 C128.691688,36.4751333 126.868757,37.647 124.547014,37.647 Z" id="2020" fill="#00FFFF"></path>
                    <path d="M32.6821638,45.684 L32.6821638,37.2144944 L16.0577412,37.2144944 L24.9498742,27.4617303 C27.4904837,24.7241124 29.2026335,22.2859213 30.0863237,20.1471573 C30.970014,18.0083933 31.4118591,15.7199157 31.4118591,13.2817247 C31.4118591,10.586882 30.8135272,8.24493539 29.6168633,6.25588483 C28.4201994,4.26683427 26.74487,2.72692416 24.5908751,1.63615449 C22.4368801,0.545384831 19.923886,0 17.0518927,0 C13.627593,0 10.5899078,0.737873596 7.93883707,2.21362079 C5.28776635,3.68936798 3.20741224,5.73188764 1.69777474,8.34117978 L1.69777474,8.34117978 L8.21499027,13.2175618 C9.13550094,11.720427 10.2769342,10.5975758 11.63929,9.84900843 C13.0016457,9.10044101 14.5296935,8.7261573 16.2234331,8.7261573 C18.2485566,8.7261573 19.7858094,9.20737921 20.8351915,10.169823 C21.8845737,11.1322669 22.4092648,12.5117697 22.4092648,14.3083315 C22.4092648,15.5488146 22.1331116,16.7999916 21.5808052,18.0618624 C21.0284988,19.3237331 19.9607064,20.8315618 18.377428,22.5853483 L18.377428,22.5853483 L3.46515523,38.9468933 L3.46515523,45.684 L32.6821638,45.684 Z M52.6310171,46.53 C55.8313225,46.53 58.6821692,45.608826 61.1835573,43.7664779 C63.6849455,41.9241298 65.6437531,39.2570097 67.0599802,35.7651174 C68.4762073,32.2732251 69.1843208,28.1065193 69.1843208,23.265 C69.1843208,18.4234807 68.4762073,14.2567749 67.0599802,10.7648826 C65.6437531,7.27299033 63.6849455,4.60587017 61.1835573,2.7635221 C58.6821692,0.921174033 55.8313225,0 52.6310171,0 C49.4307117,0 46.5798649,0.921174033 44.0784768,2.7635221 C41.5770887,4.60587017 39.6182811,7.27299033 38.202054,10.7648826 C36.7858269,14.2567749 36.0777133,18.4234807 36.0777133,23.265 C36.0777133,28.1065193 36.7858269,32.2732251 38.202054,35.7651174 C39.6182811,39.2570097 41.5770887,41.9241298 44.0784768,43.7664779 C46.5798649,45.608826 49.4307117,46.53 52.6310171,46.53 Z M53.2404747,37.647 C50.9550087,37.647 49.1502161,36.4751333 47.8260969,34.1314 C46.5019777,31.7876667 45.8399181,28.1655333 45.8399181,23.265 C45.8399181,18.3644667 46.5019777,14.7423333 47.8260969,12.3986 C49.1502161,10.0548667 50.9550087,8.883 53.2404747,8.883 C55.5622179,8.883 57.3851491,10.0548667 58.7092683,12.3986 C60.0333875,14.7423333 60.6954471,18.3644667 60.6954471,23.265 C60.6954471,28.1655333 60.0333875,31.7876667 58.7092683,34.1314 C57.3851491,36.4751333 55.5622179,37.647 53.2404747,37.647 Z M102.290928,45.684 L102.290928,37.2144944 L85.6665057,37.2144944 L94.5586387,27.4617303 C97.0992482,24.7241124 98.811398,22.2859213 99.6950882,20.1471573 C100.578778,18.0083933 101.020624,15.7199157 101.020624,13.2817247 C101.020624,10.586882 100.422292,8.24493539 99.2256278,6.25588483 C98.0289639,4.26683427 96.3536345,2.72692416 94.1996396,1.63615449 C92.0456446,0.545384831 89.5326505,0 86.6606572,0 C83.2363575,0 80.1986723,0.737873596 77.5476016,2.21362079 C74.8965309,3.68936798 72.8161767,5.73188764 71.3065392,8.34117978 L71.3065392,8.34117978 L77.8237548,13.2175618 C78.7442654,11.720427 79.8856987,10.5975758 81.2480545,9.84900843 C82.6104102,9.10044101 84.138458,8.7261573 85.8321976,8.7261573 C87.8573211,8.7261573 89.3945739,9.20737921 90.443956,10.169823 C91.4933382,11.1322669 92.0180293,12.5117697 92.0180293,14.3083315 C92.0180293,15.5488146 91.7418761,16.7999916 91.1895697,18.0618624 C90.6372633,19.3237331 89.5694709,20.8315618 87.9861925,22.5853483 L87.9861925,22.5853483 L73.0739197,38.9468933 L73.0739197,45.684 L102.290928,45.684 Z M122.664225,46.53 C125.864531,46.53 128.715377,45.608826 131.216766,43.7664779 C133.718154,41.9241298 135.676961,39.2570097 137.093188,35.7651174 C138.509415,32.2732251 139.217529,28.1065193 139.217529,23.265 C139.217529,18.4234807 138.509415,14.2567749 137.093188,10.7648826 C135.676961,7.27299033 133.718154,4.60587017 131.216766,2.7635221 C128.715377,0.921174033 125.864531,0 122.664225,0 C119.46392,0 116.613073,0.921174033 114.111685,2.7635221 C111.610297,4.60587017 109.651489,7.27299033 108.235262,10.7648826 C106.819035,14.2567749 106.110922,18.4234807 106.110922,23.265 C106.110922,28.1065193 106.819035,32.2732251 108.235262,35.7651174 C109.651489,39.2570097 111.610297,41.9241298 114.111685,43.7664779 C116.613073,45.608826 119.46392,46.53 122.664225,46.53 Z M122.849239,37.647 C120.563773,37.647 118.758981,36.4751333 117.434861,34.1314 C116.110742,31.7876667 115.448683,28.1655333 115.448683,23.265 C115.448683,18.3644667 116.110742,14.7423333 117.434861,12.3986 C118.758981,10.0548667 120.563773,8.883 122.849239,8.883 C125.170982,8.883 126.993914,10.0548667 128.318033,12.3986 C129.642152,14.7423333 130.304212,18.3644667 130.304212,23.265 C130.304212,28.1655333 129.642152,31.7876667 128.318033,34.1314 C126.993914,36.4751333 125.170982,37.647 122.849239,37.647 Z" id="2020" fill="#FFFFFF"></path>
                </g>
            </g>
        </g>
    </g>
</svg>