<?xml version="1.0" encoding="UTF-8"?>
<svg width="15px" height="15px" viewBox="0 0 15 15" version="1.1" xmlns="http://www.w3.org/2000/svg" xmlns:xlink="http://www.w3.org/1999/xlink">
    <!-- Generator: sketchtool 62 (101010) - https://sketch.com -->
    <title>A6C0DFD7-6D7F-42D0-8C7E-751487853A8C</title>
    <desc>Created with sketchtool.</desc>
    <g id="2020-Final" stroke="none" stroke-width="1" fill="none" fill-rule="evenodd">
        <g id="NADA-2020_Form" transform="translate(-1017.000000, -653.000000)" fill="#007BFE">
            <g id="Group-12" transform="translate(1017.000000, 649.000000)">
                <path d="M8.28513985,12.3260839 L8.28513985,17.2721249 C8.28513985,17.8982442 7.78457827,18.3988058 7.15845888,18.3988058 C6.53233949,18.3988058 6.03177791,17.8982442 6.03177791,17.2721249 L6.03014583,12.3260839 L1.12668097,12.3260839 C0.500561579,12.3260839 2.97539771e-13,11.8255223 2.97539771e-13,11.1994029 C2.97539771e-13,10.5732835 0.500561579,10.0727219 1.12668097,10.0727219 L6.07272612,10.0727219 L6.07272612,5.12668097 C6.07272612,4.50056158 6.5732877,4 7.19940709,4 C7.8255223,4 8.32608805,4.50056158 8.32608805,5.12668097 L8.32608805,10.0727219 L13.272129,10.0727219 C13.8982484,10.0727219 14.39881,10.5732835 14.39881,11.1994029 C14.3580455,11.8255223 13.8558393,12.3260839 13.2297199,12.3260839 L8.28513985,12.3260839 Z" id="plus"></path>
            </g>
        </g>
    </g>
</svg>