<?xml version="1.0" encoding="UTF-8"?>
<svg width="213px" height="44px" viewBox="0 0 213 44" version="1.1" xmlns="http://www.w3.org/2000/svg" xmlns:xlink="http://www.w3.org/1999/xlink">
    <!-- Generator: sketchtool 62 (101010) - https://sketch.com -->
    <title>EA613B11-8628-4902-AD4D-5C5D39CA5216</title>
    <desc>Created with sketchtool.</desc>
    <defs>
        <linearGradient x1="0%" y1="66.9297443%" x2="86.8817006%" y2="66.9297443%" id="linearGradient-1">
            <stop stop-color="#5468FF" offset="0%"></stop>
            <stop stop-color="#2EB0FF" offset="63.0220355%"></stop>
            <stop stop-color="#34EFFF" offset="100%"></stop>
        </linearGradient>
        <linearGradient x1="80.1305768%" y1="39.0797781%" x2="23.4667044%" y2="62.0605297%" id="linearGradient-2">
            <stop stop-color="#86FFBB" offset="0%"></stop>
            <stop stop-color="#009FFF" offset="100%"></stop>
        </linearGradient>
        <linearGradient x1="-75.2029125%" y1="66.9297443%" x2="78.6065926%" y2="66.9297443%" id="linearGradient-3">
            <stop stop-color="#5468FF" offset="0%"></stop>
            <stop stop-color="#2EB0FF" offset="63.0220355%"></stop>
            <stop stop-color="#28D5FF" offset="100%"></stop>
        </linearGradient>
        <linearGradient x1="84.2343539%" y1="50%" x2="7.03691751%" y2="50%" id="linearGradient-4">
            <stop stop-color="#28D5FF" offset="0%"></stop>
            <stop stop-color="#5666E9" offset="48.2105152%"></stop>
            <stop stop-color="#060A14" offset="100%"></stop>
        </linearGradient>
        <linearGradient x1="84.2343539%" y1="50%" x2="7.03691751%" y2="50%" id="linearGradient-5">
            <stop stop-color="#28D5FF" offset="0%"></stop>
            <stop stop-color="#5666E9" offset="48.2105152%"></stop>
            <stop stop-color="#060A14" offset="100%"></stop>
        </linearGradient>
        <linearGradient x1="84.2343539%" y1="50%" x2="7.03691751%" y2="50%" id="linearGradient-6">
            <stop stop-color="#28D5FF" offset="0%"></stop>
            <stop stop-color="#5666E9" offset="48.2105152%"></stop>
            <stop stop-color="#060A14" offset="100%"></stop>
        </linearGradient>
    </defs>
    <g id="2020-Final" stroke="none" stroke-width="1" fill="none" fill-rule="evenodd">
        <g id="NADA-2020_Micro-site-2" transform="translate(-941.000000, -770.000000)">
            <g id="On-light-background" transform="translate(941.000000, 770.000000)">
                <g id="Group-2">
                    <path d="M112.68488,30.60904 C113.411764,30.60904 114.058557,30.7291588 114.62528,30.9694 C115.192003,31.2096412 115.666318,31.5422779 116.04824,31.96732 C116.430162,32.3923621 116.719679,32.8943971 116.9168,33.47344 C117.113921,34.0524829 117.21248,34.6807966 117.21248,35.3584 L117.21248,35.58016 C117.20016,35.6540804 117.194,35.7218397 117.194,35.78344 C117.18168,35.84504 117.17552,35.9127996 117.17552,35.98672 L110.3564,35.98672 C110.40568,36.3563218 110.507319,36.6735587 110.66132,36.93844 C110.815321,37.2033213 111.006279,37.4250791 111.2342,37.60372 C111.462121,37.7823609 111.711599,37.9117196 111.98264,37.9918 C112.253681,38.0718804 112.530879,38.11192 112.81424,38.11192 C113.368643,38.11192 113.827558,37.9856413 114.191,37.73308 C114.554442,37.4805187 114.840879,37.1632819 115.05032,36.78136 L117.06464,37.77928 C116.645758,38.5184837 116.082124,39.1159977 115.37372,39.57184 C114.665316,40.0276823 113.799845,40.2556 112.77728,40.2556 C112.087357,40.2556 111.449803,40.1354812 110.8646,39.89524 C110.279397,39.6549988 109.771202,39.3192822 109.34,38.88808 C108.908798,38.4568778 108.573081,37.9486829 108.33284,37.36348 C108.092599,36.7782771 107.97248,36.1345635 107.97248,35.43232 C107.97248,34.7793567 108.089519,34.1602829 108.3236,33.57508 C108.557681,32.9898771 108.884158,32.4786022 109.30304,32.04124 C109.721922,31.6038778 110.217797,31.2558413 110.79068,30.99712 C111.363563,30.7383987 111.994957,30.60904 112.68488,30.60904 Z M198.34584,26.72824 L198.34584,39.95992 L196.0728,39.95992 L196.0728,38.8696 L195.92496,38.8696 C195.703199,39.2515219 195.358242,39.5779986 194.89008,39.84904 C194.421918,40.1200814 193.842883,40.2556 193.15296,40.2556 C192.573917,40.2556 192.022603,40.1354812 191.499,39.89524 C190.975397,39.6549988 190.513402,39.3223621 190.113,38.89732 C189.712598,38.4722779 189.395361,37.964083 189.16128,37.37272 C188.927199,36.781357 188.81016,36.1345635 188.81016,35.43232 C188.81016,34.7300765 188.927199,34.083283 189.16128,33.49192 C189.395361,32.900557 189.712598,32.3923621 190.113,31.96732 C190.513402,31.5422779 190.975397,31.2096412 191.499,30.9694 C192.022603,30.7291588 192.573917,30.60904 193.15296,30.60904 C193.842883,30.60904 194.421918,30.7445586 194.89008,31.0156 C195.358242,31.2866414 195.703199,31.6131181 195.92496,31.99504 L196.0728,31.99504 L195.92496,30.70144 L195.92496,26.72824 L198.34584,26.72824 Z M181.06704,30.90472 L181.06704,36.0976 C181.06704,36.7505633 181.211799,37.2341184 181.50132,37.54828 C181.790841,37.8624416 182.212797,38.01952 182.7672,38.01952 C183.099842,38.01952 183.392439,37.9486807 183.645,37.807 C183.897561,37.6653193 184.113159,37.4743612 184.2918,37.23412 C184.470441,36.9938788 184.60596,36.7105216 184.69836,36.38404 C184.79076,36.0575584 184.83696,35.7095218 184.83696,35.33992 L184.83696,30.90472 L187.25784,30.90472 L187.25784,39.95992 L184.9848,39.95992 L184.9848,38.7772 L184.83696,38.7772 C184.553599,39.2330423 184.171682,39.5933987 183.6912,39.85828 C183.210718,40.1231613 182.662483,40.2556 182.04648,40.2556 C180.900714,40.2556 180.047563,39.9044835 179.487,39.20224 C178.926437,38.4999965 178.64616,37.5636859 178.64616,36.39328 L178.64616,30.90472 L181.06704,30.90472 Z M172.36296,30.60904 C173.065204,30.60904 173.708917,30.7291588 174.29412,30.9694 C174.879323,31.2096412 175.384438,31.5422779 175.80948,31.96732 C176.234522,32.3923621 176.567159,32.900557 176.8074,33.49192 C177.047641,34.083283 177.16776,34.7300765 177.16776,35.43232 C177.16776,36.1345635 177.047641,36.781357 176.8074,37.37272 C176.567159,37.964083 176.234522,38.4722779 175.80948,38.89732 C175.384438,39.3223621 174.879323,39.6549988 174.29412,39.89524 C173.708917,40.1354812 173.065204,40.2556 172.36296,40.2556 C171.660716,40.2556 171.017003,40.1354812 170.4318,39.89524 C169.846597,39.6549988 169.341482,39.3223621 168.91644,38.89732 C168.491398,38.4722779 168.158761,37.964083 167.91852,37.37272 C167.678279,36.781357 167.55816,36.1345635 167.55816,35.43232 C167.55816,34.7300765 167.678279,34.083283 167.91852,33.49192 C168.158761,32.900557 168.491398,32.3923621 168.91644,31.96732 C169.341482,31.5422779 169.846597,31.2096412 170.4318,30.9694 C171.017003,30.7291588 171.660716,30.60904 172.36296,30.60904 Z M156.59952,26.43256 C157.659045,26.43256 158.592276,26.6173582 159.39924,26.98696 C160.206204,27.35656 160.923837,27.8924765 161.55216,28.59472 L159.79656,30.29488 C159.402318,29.8390377 158.949563,29.4756014 158.43828,29.20456 C157.926997,28.9335186 157.320244,28.798 156.618,28.798 C156.001997,28.798 155.422963,28.9057989 154.88088,29.1214 C154.338797,29.3370011 153.867562,29.641918 153.46716,30.03616 C153.066758,30.430402 152.74952,30.9077972 152.51544,31.46836 C152.281359,32.0289228 152.16432,32.6541566 152.16432,33.34408 C152.16432,34.0340034 152.281359,34.6592372 152.51544,35.2198 C152.74952,35.7803628 153.066758,36.257758 153.46716,36.652 C153.867562,37.046242 154.338797,37.3511589 154.88088,37.56676 C155.422963,37.7823611 156.001997,37.89016 156.618,37.89016 C157.357204,37.89016 158.013237,37.7392415 158.58612,37.4374 C159.159003,37.1355585 159.667198,36.7074428 160.11072,36.15304 L161.8848,37.83472 C161.231837,38.6232039 160.461844,39.2237979 159.5748,39.63652 C158.687756,40.0492421 157.696005,40.2556 156.59952,40.2556 C155.613915,40.2556 154.699164,40.0769618 153.85524,39.71968 C153.011316,39.3623982 152.281363,38.8757631 151.66536,38.25976 C151.049357,37.6437569 150.562722,36.9138042 150.20544,36.06988 C149.848158,35.2259558 149.66952,34.3173649 149.66952,33.34408 C149.66952,32.3707951 149.848158,31.4622042 150.20544,30.61828 C150.562722,29.7743558 151.049357,29.0444031 151.66536,28.4284 C152.281363,27.8123969 153.011316,27.3257618 153.85524,26.96848 C154.699164,26.6111982 155.613915,26.43256 156.59952,26.43256 Z M129.81584,30.60904 C131.220327,30.60904 132.292156,30.9385967 133.03136,31.59772 C133.770564,32.2568433 134.14016,33.2331935 134.14016,34.5268 L134.14016,39.95992 L131.75624,39.95992 L131.75624,38.99896 L131.6084,38.99896 C131.325039,39.3439217 130.983162,39.6395988 130.58276,39.886 C130.182358,40.1324012 129.668003,40.2556 129.03968,40.2556 C128.571518,40.2556 128.131082,40.1786008 127.71836,40.0246 C127.305638,39.8705992 126.945282,39.6580814 126.63728,39.38704 C126.329278,39.1159986 126.089041,38.7895219 125.91656,38.4076 C125.744079,38.0256781 125.65784,37.6068023 125.65784,37.15096 C125.65784,36.6827977 125.750239,36.2608419 125.93504,35.88508 C126.119841,35.5093181 126.378558,35.1859214 126.7112,34.91488 C127.043842,34.6438386 127.434998,34.4374807 127.88468,34.2958 C128.334362,34.1541193 128.824077,34.08328 129.35384,34.08328 C129.945203,34.08328 130.431838,34.1294795 130.81376,34.22188 C131.195682,34.3142805 131.50984,34.4097595 131.75624,34.50832 L131.75624,34.23112 C131.75624,33.7506376 131.565282,33.3533216 131.18336,33.03916 C130.801438,32.7249984 130.327123,32.56792 129.7604,32.56792 C128.922636,32.56792 128.214243,32.9190365 127.6352,33.62128 L125.8796,32.42008 C126.840565,31.212714 128.152632,30.60904 129.81584,30.60904 Z M122.1836,28.13272 L122.1836,30.90472 L124.4012,30.90472 L124.4012,32.97448 L122.1836,32.97448 L122.1836,36.48568 C122.1836,36.695121 122.20516,36.8891591 122.24828,37.0678 C122.2914,37.2464409 122.374559,37.3973594 122.49776,37.52056 C122.670241,37.717681 122.916638,37.81624 123.23696,37.81624 C123.446401,37.81624 123.612719,37.7946802 123.73592,37.75156 C123.859121,37.7084398 123.976159,37.6499204 124.08704,37.576 L124.7708,39.7012 C124.487439,39.83672 124.182522,39.9383597 123.85604,40.00612 C123.529558,40.0738803 123.169202,40.10776 122.77496,40.10776 C122.319118,40.10776 121.909482,40.0369207 121.54604,39.89524 C121.182598,39.7535593 120.877681,39.5595212 120.63128,39.31312 C120.052237,38.7587172 119.76272,37.9702451 119.76272,36.94768 L119.76272,32.97448 L118.17344,32.97448 L118.17344,30.90472 L119.76272,30.90472 L119.76272,28.13272 L122.1836,28.13272 Z M166.00584,26.72824 L166.00584,39.95992 L163.58496,39.95992 L163.58496,26.72824 L166.00584,26.72824 Z M143.26928,26.72824 L143.26928,39.95992 L140.8484,39.95992 L140.8484,26.72824 L143.26928,26.72824 Z M138.6308,30.90472 L138.6308,39.95992 L136.20992,39.95992 L136.20992,30.90472 L138.6308,30.90472 Z M102.15128,26.72824 C102.816563,26.72824 103.420237,26.832959 103.96232,27.0424 C104.504403,27.251841 104.969478,27.5413582 105.35756,27.91096 C105.745642,28.2805618 106.044399,28.7209974 106.25384,29.23228 C106.463281,29.7435626 106.568,30.301037 106.568,30.90472 C106.568,31.34824 106.494081,31.7640381 106.34624,32.15212 C106.198399,32.5402019 105.995121,32.8913184 105.7364,33.20548 C105.477679,33.5196416 105.175842,33.7968388 104.83088,34.03708 C104.485918,34.2773212 104.122482,34.4651993 103.74056,34.60072 L103.72208,34.73008 L107.27024,39.81208 L107.27024,39.95992 L104.40584,39.95992 L100.98704,34.9888 L99.8228,34.9888 L99.8228,39.95992 L97.328,39.95992 L97.328,26.72824 L102.15128,26.72824 Z M129.88976,35.83888 C129.31072,35.83888 128.864122,35.9651587 128.54996,36.21772 C128.235798,36.4702813 128.07872,36.7813582 128.07872,37.15096 C128.07872,37.5205618 128.229638,37.8162389 128.53148,38.038 C128.833322,38.2597611 129.181358,38.37064 129.5756,38.37064 C129.895922,38.37064 130.191599,38.3121206 130.46264,38.19508 C130.733681,38.0780394 130.964679,37.924041 131.15564,37.73308 C131.346601,37.542119 131.494439,37.3203613 131.59916,37.0678 C131.703881,36.8152387 131.75624,36.5534414 131.75624,36.2824 C131.472879,36.14688 131.180282,36.0390804 130.87844,35.959 C130.576598,35.8789196 130.247042,35.83888 129.88976,35.83888 Z M193.65192,32.84512 C193.331598,32.84512 193.026681,32.9067194 192.73716,33.02992 C192.447639,33.15312 192.192001,33.3255989 191.97024,33.54736 C191.748479,33.76912 191.569841,34.0401584 191.43432,34.36048 C191.298799,34.6808016 191.23104,35.038078 191.23104,35.43232 C191.23104,35.826562 191.298799,36.1838384 191.43432,36.50416 C191.569841,36.8244816 191.748479,37.0955189 191.97024,37.31728 C192.192001,37.5390411 192.447639,37.7115194 192.73716,37.83472 C193.026681,37.9579206 193.331598,38.01952 193.65192,38.01952 C193.972242,38.01952 194.277159,37.9610006 194.56668,37.84396 C194.856201,37.7269194 195.111839,37.5575211 195.3336,37.33576 C195.555361,37.1139989 195.733999,36.8429616 195.86952,36.52264 C196.005041,36.2023184 196.0728,35.838882 196.0728,35.43232 C196.0728,35.025758 196.005041,34.6623216 195.86952,34.342 C195.733999,34.0216784 195.555361,33.7506411 195.3336,33.52888 C195.111839,33.3071189 194.856201,33.1377206 194.56668,33.02068 C194.277159,32.9036394 193.972242,32.84512 193.65192,32.84512 Z M172.36296,32.84512 C172.042638,32.84512 171.740801,32.9036394 171.45744,33.02068 C171.174079,33.1377206 170.921521,33.3071189 170.69976,33.52888 C170.477999,33.7506411 170.302441,34.0216784 170.17308,34.342 C170.043719,34.6623216 169.97904,35.025758 169.97904,35.43232 C169.97904,35.838882 170.043719,36.2023184 170.17308,36.52264 C170.302441,36.8429616 170.477999,37.1139989 170.69976,37.33576 C170.921521,37.5575211 171.174079,37.7269194 171.45744,37.84396 C171.740801,37.9610006 172.042638,38.01952 172.36296,38.01952 C172.670962,38.01952 172.969719,37.9610006 173.25924,37.84396 C173.548761,37.7269194 173.804399,37.5575211 174.02616,37.33576 C174.247921,37.1139989 174.423479,36.8429616 174.55284,36.52264 C174.682201,36.2023184 174.74688,35.838882 174.74688,35.43232 C174.74688,35.025758 174.682201,34.6623216 174.55284,34.342 C174.423479,34.0216784 174.247921,33.7506411 174.02616,33.52888 C173.804399,33.3071189 173.548761,33.1377206 173.25924,33.02068 C172.969719,32.9036394 172.670962,32.84512 172.36296,32.84512 Z M112.68488,32.5864 C112.167437,32.5864 111.711602,32.7342385 111.31736,33.02992 C110.923118,33.3256015 110.645921,33.7383174 110.48576,34.26808 L114.86552,34.26808 C114.8532,34.1079192 114.80084,33.929281 114.70844,33.73216 C114.61604,33.535039 114.480521,33.3502409 114.30188,33.17776 C114.123239,33.0052791 113.901481,32.8636006 113.6366,32.75272 C113.371719,32.6418394 113.054482,32.5864 112.68488,32.5864 Z M102.16976,29.01976 L99.8228,29.01976 L99.8228,32.69728 L102.1328,32.69728 C102.699523,32.69728 103.164598,32.5248017 103.52804,32.17984 C103.891482,31.8348783 104.0732,31.3975226 104.0732,30.86776 C104.0732,30.6336788 104.03316,30.4057611 103.95308,30.184 C103.873,29.9622389 103.752881,29.7651209 103.59272,29.59264 C103.432559,29.4201591 103.232361,29.2815605 102.99212,29.17684 C102.751879,29.0721195 102.477762,29.01976 102.16976,29.01976 Z M137.41112,26.488 C137.842322,26.488 138.211918,26.6389185 138.51992,26.94076 C138.827922,27.2426015 138.98192,27.6091178 138.98192,28.04032 C138.98192,28.4715222 138.827922,28.8380385 138.51992,29.13988 C138.211918,29.4417215 137.842322,29.59264 137.41112,29.59264 C137.201679,29.59264 137.001481,29.5526004 136.81052,29.47252 C136.619559,29.3924396 136.453241,29.2815607 136.31156,29.13988 C136.169879,28.9981993 136.059,28.8349609 135.97892,28.65016 C135.89884,28.4653591 135.8588,28.2620811 135.8588,28.04032 C135.8588,27.8185589 135.89884,27.6152809 135.97892,27.43048 C136.059,27.2456791 136.169879,27.0824407 136.31156,26.94076 C136.453241,26.7990793 136.619559,26.6882004 136.81052,26.60812 C137.001481,26.5280396 137.201679,26.488 137.41112,26.488 Z M193.75048,11.51304 C194.477364,11.51304 195.124157,11.6331588 195.69088,11.8734 C196.257603,12.1136412 196.731918,12.4462779 197.11384,12.87132 C197.495762,13.2963621 197.785279,13.7983971 197.9824,14.37744 C198.179521,14.9564829 198.27808,15.5847966 198.27808,16.2624 L198.27808,16.48416 C198.26576,16.5580804 198.2596,16.6258397 198.2596,16.68744 C198.24728,16.74904 198.24112,16.8167996 198.24112,16.89072 L191.422,16.89072 C191.47128,17.2603218 191.572919,17.5775587 191.72692,17.84244 C191.880921,18.1073213 192.071879,18.3290791 192.2998,18.50772 C192.527721,18.6863609 192.777199,18.8157196 193.04824,18.8958 C193.319281,18.9758804 193.596479,19.01592 193.87984,19.01592 C194.434243,19.01592 194.893158,18.8896413 195.2566,18.63708 C195.620042,18.3845187 195.906479,18.0672819 196.11592,17.68536 L198.13024,18.68328 C197.711358,19.4224837 197.147724,20.0199977 196.43932,20.47584 C195.730916,20.9316823 194.865445,21.1596 193.84288,21.1596 C193.152957,21.1596 192.515403,21.0394812 191.9302,20.79924 C191.344997,20.5589988 190.836802,20.2232822 190.4056,19.79208 C189.974398,19.3608778 189.638681,18.8526829 189.39844,18.26748 C189.158199,17.6822771 189.03808,17.0385635 189.03808,16.33632 C189.03808,15.6833567 189.155119,15.0642829 189.3892,14.47908 C189.623281,13.8938771 189.949758,13.3826022 190.36864,12.94524 C190.787522,12.5078778 191.283397,12.1598413 191.85628,11.90112 C192.429163,11.6423987 193.060557,11.51304 193.75048,11.51304 Z M160.70824,11.51304 C161.410484,11.51304 162.054197,11.6331588 162.6394,11.8734 C163.224603,12.1136412 163.729718,12.4462779 164.15476,12.87132 C164.579802,13.2963621 164.912439,13.804557 165.15268,14.39592 C165.392921,14.987283 165.51304,15.6340765 165.51304,16.33632 C165.51304,17.0385635 165.392921,17.685357 165.15268,18.27672 C164.912439,18.868083 164.579802,19.3762779 164.15476,19.80132 C163.729718,20.2263621 163.224603,20.5589988 162.6394,20.79924 C162.054197,21.0394812 161.410484,21.1596 160.70824,21.1596 C160.005996,21.1596 159.362283,21.0394812 158.77708,20.79924 C158.191877,20.5589988 157.686762,20.2263621 157.26172,19.80132 C156.836678,19.3762779 156.504041,18.868083 156.2638,18.27672 C156.023559,17.685357 155.90344,17.0385635 155.90344,16.33632 C155.90344,15.6340765 156.023559,14.987283 156.2638,14.39592 C156.504041,13.804557 156.836678,13.2963621 157.26172,12.87132 C157.686762,12.4462779 158.191877,12.1136412 158.77708,11.8734 C159.362283,11.6331588 160.005996,11.51304 160.70824,11.51304 Z M133.80136,11.51304 C134.503604,11.51304 135.147317,11.6331588 135.73252,11.8734 C136.317723,12.1136412 136.822838,12.4462779 137.24788,12.87132 C137.672922,13.2963621 138.005559,13.804557 138.2458,14.39592 C138.486041,14.987283 138.60616,15.6340765 138.60616,16.33632 C138.60616,17.0385635 138.486041,17.685357 138.2458,18.27672 C138.005559,18.868083 137.672922,19.3762779 137.24788,19.80132 C136.822838,20.2263621 136.317723,20.5589988 135.73252,20.79924 C135.147317,21.0394812 134.503604,21.1596 133.80136,21.1596 C133.099116,21.1596 132.455403,21.0394812 131.8702,20.79924 C131.284997,20.5589988 130.779882,20.2263621 130.35484,19.80132 C129.929798,19.3762779 129.597161,18.868083 129.35692,18.27672 C129.116679,17.685357 128.99656,17.0385635 128.99656,16.33632 C128.99656,15.6340765 129.116679,14.987283 129.35692,14.39592 C129.597161,13.804557 129.929798,13.2963621 130.35484,12.87132 C130.779882,12.4462779 131.284997,12.1136412 131.8702,11.8734 C132.455403,11.6331588 133.099116,11.51304 133.80136,11.51304 Z M113.84296,11.80872 L113.84296,17.0016 C113.84296,17.6545633 113.987719,18.1381184 114.27724,18.45228 C114.566761,18.7664416 114.988717,18.92352 115.54312,18.92352 C115.875762,18.92352 116.168359,18.8526807 116.42092,18.711 C116.673481,18.5693193 116.889079,18.3783612 117.06772,18.13812 C117.246361,17.8978788 117.38188,17.6145216 117.47428,17.28804 C117.56668,16.9615584 117.61288,16.6135218 117.61288,16.24392 L117.61288,11.80872 L120.03376,11.80872 L120.03376,20.86392 L117.76072,20.86392 L117.76072,19.6812 L117.61288,19.6812 C117.329519,20.1370423 116.947602,20.4973987 116.46712,20.76228 C115.986638,21.0271613 115.438403,21.1596 114.8224,21.1596 C113.676634,21.1596 112.823483,20.8084835 112.26292,20.10624 C111.702357,19.4039965 111.42208,18.4676859 111.42208,17.29728 L111.42208,11.80872 L113.84296,11.80872 Z M170.48416,9.03672 L170.48416,11.80872 L172.70176,11.80872 L172.70176,13.87848 L170.48416,13.87848 L170.48416,17.38968 C170.48416,17.599121 170.50572,17.7931591 170.54884,17.9718 C170.59196,18.1504409 170.675119,18.3013594 170.79832,18.42456 C170.970801,18.621681 171.217198,18.72024 171.53752,18.72024 C171.746961,18.72024 171.913279,18.6986802 172.03648,18.65556 C172.159681,18.6124398 172.276719,18.5539204 172.3876,18.48 L173.07136,20.6052 C172.787999,20.74072 172.483082,20.8423597 172.1566,20.91012 C171.830118,20.9778803 171.469762,21.01176 171.07552,21.01176 C170.619678,21.01176 170.210042,20.9409207 169.8466,20.79924 C169.483158,20.6575593 169.178241,20.4635212 168.93184,20.21712 C168.352797,19.6627172 168.06328,18.8742451 168.06328,17.85168 L168.06328,13.87848 L166.474,13.87848 L166.474,11.80872 L168.06328,11.80872 L168.06328,9.03672 L170.48416,9.03672 Z M125.52232,9.03672 L125.52232,11.80872 L127.73992,11.80872 L127.73992,13.87848 L125.52232,13.87848 L125.52232,17.38968 C125.52232,17.599121 125.54388,17.7931591 125.587,17.9718 C125.63012,18.1504409 125.713279,18.3013594 125.83648,18.42456 C126.008961,18.621681 126.255358,18.72024 126.57568,18.72024 C126.785121,18.72024 126.951439,18.6986802 127.07464,18.65556 C127.197841,18.6124398 127.314879,18.5539204 127.42576,18.48 L128.10952,20.6052 C127.826159,20.74072 127.521242,20.8423597 127.19476,20.91012 C126.868278,20.9778803 126.507922,21.01176 126.11368,21.01176 C125.657838,21.01176 125.248202,20.9409207 124.88476,20.79924 C124.521318,20.6575593 124.216401,20.4635212 123.97,20.21712 C123.390957,19.6627172 123.10144,18.8742451 123.10144,17.85168 L123.10144,13.87848 L121.51216,13.87848 L121.51216,11.80872 L123.10144,11.80872 L123.10144,9.03672 L125.52232,9.03672 Z M181.05472,11.80872 L183.30928,17.57448 L183.43864,17.57448 L185.71168,11.80872 L188.44672,11.80872 L184.54744,20.86392 L182.16352,20.86392 L178.3012,11.80872 L181.05472,11.80872 Z M177.04456,11.80872 L177.04456,20.86392 L174.62368,20.86392 L174.62368,11.80872 L177.04456,11.80872 Z M151.17256,11.51304 C151.726963,11.51304 152.207438,11.6023591 152.614,11.781 C153.020562,11.9596409 153.356279,12.2091184 153.62116,12.52944 C153.886041,12.8497616 154.086239,13.2347578 154.22176,13.68444 C154.357281,14.1341222 154.42504,14.6238374 154.42504,15.1536 L154.42504,20.86392 L152.00416,20.86392 L152.00416,15.59712 C152.00416,14.3651138 151.499045,13.74912 150.4888,13.74912 C150.168478,13.74912 149.885121,13.8199593 149.63872,13.96164 C149.392319,14.1033207 149.185961,14.2942788 149.01964,14.53452 C148.853319,14.7747612 148.72396,15.0611983 148.63156,15.39384 C148.53916,15.7264817 148.49296,16.0837581 148.49296,16.46568 L148.49296,20.86392 L146.07208,20.86392 L146.07208,15.59712 C146.07208,14.3651138 145.542325,13.74912 144.4828,13.74912 C144.174798,13.74912 143.903761,13.8199593 143.66968,13.96164 C143.435599,14.1033207 143.23848,14.2942788 143.07832,14.53452 C142.918159,14.7747612 142.79496,15.0611983 142.70872,15.39384 C142.62248,15.7264817 142.57936,16.0837581 142.57936,16.46568 L142.57936,20.86392 L140.15848,20.86392 L140.15848,11.80872 L142.43152,11.80872 L142.43152,12.99144 L142.57936,12.99144 C142.862721,12.5479178 143.247718,12.1906414 143.73436,11.9196 C144.221002,11.6485586 144.759997,11.51304 145.35136,11.51304 C146.041283,11.51304 146.620318,11.6731984 147.08848,11.99352 C147.556642,12.3138416 147.889279,12.7080777 148.0864,13.17624 C148.369761,12.7203977 148.770157,12.3292416 149.2876,12.00276 C149.805043,11.6762784 150.433356,11.51304 151.17256,11.51304 Z M105.26824,7.63224 L110.23936,20.86392 L107.48584,20.86392 L106.39552,17.70384 L101.29504,17.70384 L100.20472,20.86392 L97.4512,20.86392 L102.42232,7.63224 L105.26824,7.63224 Z M160.70824,13.74912 C160.387918,13.74912 160.086081,13.8076394 159.80272,13.92468 C159.519359,14.0417206 159.266801,14.2111189 159.04504,14.43288 C158.823279,14.6546411 158.647721,14.9256784 158.51836,15.246 C158.388999,15.5663216 158.32432,15.929758 158.32432,16.33632 C158.32432,16.742882 158.388999,17.1063184 158.51836,17.42664 C158.647721,17.7469616 158.823279,18.0179989 159.04504,18.23976 C159.266801,18.4615211 159.519359,18.6309194 159.80272,18.74796 C160.086081,18.8650006 160.387918,18.92352 160.70824,18.92352 C161.016242,18.92352 161.314999,18.8650006 161.60452,18.74796 C161.894041,18.6309194 162.149679,18.4615211 162.37144,18.23976 C162.593201,18.0179989 162.768759,17.7469616 162.89812,17.42664 C163.027481,17.1063184 163.09216,16.742882 163.09216,16.33632 C163.09216,15.929758 163.027481,15.5663216 162.89812,15.246 C162.768759,14.9256784 162.593201,14.6546411 162.37144,14.43288 C162.149679,14.2111189 161.894041,14.0417206 161.60452,13.92468 C161.314999,13.8076394 161.016242,13.74912 160.70824,13.74912 Z M133.80136,13.74912 C133.481038,13.74912 133.179201,13.8076394 132.89584,13.92468 C132.612479,14.0417206 132.359921,14.2111189 132.13816,14.43288 C131.916399,14.6546411 131.740841,14.9256784 131.61148,15.246 C131.482119,15.5663216 131.41744,15.929758 131.41744,16.33632 C131.41744,16.742882 131.482119,17.1063184 131.61148,17.42664 C131.740841,17.7469616 131.916399,18.0179989 132.13816,18.23976 C132.359921,18.4615211 132.612479,18.6309194 132.89584,18.74796 C133.179201,18.8650006 133.481038,18.92352 133.80136,18.92352 C134.109362,18.92352 134.408119,18.8650006 134.69764,18.74796 C134.987161,18.6309194 135.242799,18.4615211 135.46456,18.23976 C135.686321,18.0179989 135.861879,17.7469616 135.99124,17.42664 C136.120601,17.1063184 136.18528,16.742882 136.18528,16.33632 C136.18528,15.929758 136.120601,15.5663216 135.99124,15.246 C135.861879,14.9256784 135.686321,14.6546411 135.46456,14.43288 C135.242799,14.2111189 134.987161,14.0417206 134.69764,13.92468 C134.408119,13.8076394 134.109362,13.74912 133.80136,13.74912 Z M103.9192,10.49664 L103.77136,10.49664 L103.29088,12.1044 L102.10816,15.41232 L105.5824,15.41232 L104.39968,12.1044 L103.9192,10.49664 Z M193.75048,13.4904 C193.233037,13.4904 192.777202,13.6382385 192.38296,13.93392 C191.988718,14.2296015 191.711521,14.6423174 191.55136,15.17208 L195.93112,15.17208 C195.9188,15.0119192 195.86644,14.833281 195.77404,14.63616 C195.68164,14.439039 195.546121,14.2542409 195.36748,14.08176 C195.188839,13.9092791 194.967081,13.7676006 194.7022,13.65672 C194.437319,13.5458394 194.120082,13.4904 193.75048,13.4904 Z M175.82488,7.392 C176.256082,7.392 176.625678,7.54291849 176.93368,7.84476 C177.241682,8.14660151 177.39568,8.51311784 177.39568,8.94432 C177.39568,9.37552216 177.241682,9.74203849 176.93368,10.04388 C176.625678,10.3457215 176.256082,10.49664 175.82488,10.49664 C175.615439,10.49664 175.415241,10.4566004 175.22428,10.37652 C175.033319,10.2964396 174.867001,10.1855607 174.72532,10.04388 C174.583639,9.90219929 174.47276,9.73896092 174.39268,9.55416 C174.3126,9.36935908 174.27256,9.16608111 174.27256,8.94432 C174.27256,8.72255889 174.3126,8.51928092 174.39268,8.33448 C174.47276,8.14967908 174.583639,7.98644071 174.72532,7.84476 C174.867001,7.70307929 175.033319,7.5922004 175.22428,7.51212 C175.415241,7.4320396 175.615439,7.392 175.82488,7.392 Z" id="Combined-Shape" fill="#FFFFFF" fill-rule="nonzero"></path>
                    <path d="M204.4075,14.08 L204.4075,9.8525 L205.975,9.8525 L205.975,8.96 L201.77,8.96 L201.77,9.8525 L203.3375,9.8525 L203.3375,14.08 L204.4075,14.08 Z M207.569143,14.08 L207.569143,10.735 L207.611643,10.735 L208.936643,14.055 L209.651643,14.055 L210.976643,10.7475 L211.019143,10.7475 L211.019143,14.08 L212.069143,14.08 L212.069143,8.96 L210.734143,8.96 L209.324143,12.4 L209.264143,12.4 L207.854143,8.96 L206.519143,8.96 L206.519143,14.08 L207.569143,14.08 Z" id="TM" fill="#DADADA" fill-rule="nonzero"></path>
                    <g id="Group-17">
                        <path d="M74.2901081,24.4244 C74.2901081,11.0644552 63.459733,0.23408 50.0997881,0.23408 C48.8395566,0.23408 47.5902382,0.330731561 46.359775,0.52191984 C44.5477996,0.803462967 43.3071391,2.50059506 43.5886822,4.31257046 C43.8702253,6.12454587 45.5673574,7.36520636 47.3793328,7.08366324 C48.2727711,6.94484159 49.1812312,6.87456 50.0997881,6.87456 C59.7922971,6.87456 67.6496281,14.731891 67.6496281,24.4244 C67.6496281,26.2581179 69.1361502,27.74464 70.9698681,27.74464 C72.8035861,27.74464 74.2901081,26.2581179 74.2901081,24.4244 Z" id="Path" fill="url(#linearGradient-1)"></path>
                        <path d="M43.96392,43.87152 L71.00016,43.87152 C77.2871929,43.87152 82.38384,38.7748729 82.38384,32.48784 C82.38384,26.2008071 77.2871929,21.10416 71.00016,21.10416 C69.1664421,21.10416 67.67992,22.5906821 67.67992,24.4244 C67.67992,26.2581179 69.1664421,27.74464 71.00016,27.74464 C73.619757,27.74464 75.74336,29.868243 75.74336,32.48784 C75.74336,35.107437 73.619757,37.23104 71.00016,37.23104 L43.96392,37.23104 C42.1302021,37.23104 40.64368,38.7175621 40.64368,40.55128 C40.64368,42.3849979 42.1302021,43.87152 43.96392,43.87152 Z" id="Path" fill="url(#linearGradient-2)"></path>
                        <path d="M51.60232,30.78152 L59.66576,30.78152 C61.4994779,30.78152 62.986,29.2949979 62.986,27.46128 C62.986,25.6275621 61.4994779,24.14104 59.66576,24.14104 L51.60232,24.14104 C49.7686021,24.14104 48.28208,25.6275621 48.28208,27.46128 C48.28208,29.2949979 49.7686021,30.78152 51.60232,30.78152 Z" id="Path" fill="url(#linearGradient-3)"></path>
                        <path d="M18.82496,43.87152 L34.47752,43.87152 C36.3112379,43.87152 37.79776,42.3849979 37.79776,40.55128 C37.79776,38.7175621 36.3112379,37.23104 34.47752,37.23104 L18.82496,37.23104 C16.9912421,37.23104 15.50472,38.7175621 15.50472,40.55128 C15.50472,42.3849979 16.9912421,43.87152 18.82496,43.87152 Z" id="Path-Copy-4" fill="url(#linearGradient-4)" fill-rule="nonzero"></path>
                        <path d="M3.696,30.78152 L42.11592,30.78152 C43.9496379,30.78152 45.43616,29.2949979 45.43616,27.46128 C45.43616,25.6275621 43.9496379,24.14104 42.11592,24.14104 L3.696,24.14104 C1.86228208,24.14104 0.37576,25.6275621 0.37576,27.46128 C0.37576,29.2949979 1.86228208,30.78152 3.696,30.78152 Z" id="Path-Copy-3" fill="url(#linearGradient-5)" fill-rule="nonzero"></path>
                        <path d="M25.28064,6.87456 L37.32344,6.87456 C39.1571579,6.87456 40.64368,5.38803792 40.64368,3.55432 C40.64368,1.72060208 39.1571579,0.23408 37.32344,0.23408 L25.28064,0.23408 C23.4469221,0.23408 21.9604,1.72060208 21.9604,3.55432 C21.9604,5.38803792 23.4469221,6.87456 25.28064,6.87456 Z" id="Path-Copy-2" fill="url(#linearGradient-6)" fill-rule="nonzero"></path>
                    </g>
                </g>
            </g>
        </g>
    </g>
</svg>