<?xml version="1.0" encoding="UTF-8"?>
<svg width="20px" height="14px" viewBox="0 0 20 14" version="1.1" xmlns="http://www.w3.org/2000/svg" xmlns:xlink="http://www.w3.org/1999/xlink">
    <!-- Generator: sketchtool 62 (101010) - https://sketch.com -->
    <title>26565C50-9A9F-41D6-B23C-7FF5E0B922DE@3x</title>
    <desc>Created with sketchtool.</desc>
    <g id="2020-Final" stroke="none" stroke-width="1" fill="none" fill-rule="evenodd">
        <g id="NADA-2020_Form" transform="translate(-754.000000, -751.000000)" fill="#007BFE">
            <g id="Group-15" transform="translate(553.000000, 722.000000)">
                <g id="Group-13" transform="translate(0.000000, 23.000000)">
                    <path d="M213.954114,6.23366511 L214.048879,6.31809919 L214.048879,6.31809919 L219.919786,12.1898473 C220.310145,12.5804597 220.310144,13.2135485 219.919783,13.6041596 L214.048882,19.4758603 C213.62485,19.8999496 212.937313,19.8999964 212.513223,19.4759649 C212.11941,19.0821511 212.091284,18.4612126 212.428794,18.0349973 L212.513241,17.940219 L212.513241,17.940219 L216.461,13.992 L202.096316,13.9927415 C201.490837,13.9927415 201,13.5019042 201,12.8964258 C201,12.2909473 201.490837,11.80011 202.096316,11.80011 L216.461,11.8 L212.513241,7.85373779 C212.119443,7.46001192 212.091261,6.83907603 212.428733,6.41283009 L212.513171,6.31804418 L212.513171,6.31804418 C212.90694,5.9242752 213.52789,5.89614884 213.954114,6.23366511 Z" id="Combined-Shape"></path>
                </g>
            </g>
        </g>
    </g>
</svg>