<?xml version="1.0" encoding="UTF-8"?>
<svg width="30px" height="30px" viewBox="0 0 30 30" version="1.1" xmlns="http://www.w3.org/2000/svg" xmlns:xlink="http://www.w3.org/1999/xlink">
    <!-- Generator: sketchtool 62 (101010) - https://sketch.com -->
    <title>A81C7F01-C745-487F-B422-1006B73C908A</title>
    <desc>Created with sketchtool.</desc>
    <g id="2020-Final" stroke="none" stroke-width="1" fill="none" fill-rule="evenodd">
        <g id="NADA-2020_Form-2" transform="translate(-1418.000000, -48.000000)" fill="#2D2D2D" fill-rule="nonzero">
            <g id="Group-4" transform="translate(1187.000000, 48.000000)">
                <g id="Social_inactive" transform="translate(183.000000, 0.000000)">
                    <g id="twitter_inactive" transform="translate(48.000000, 0.000000)">
                        <path d="M15,0 C23.2842712,0 30,6.71572875 30,15 C30,23.2842712 23.2842712,30 15,30 C6.71572875,30 0,23.2842712 0,15 C0,6.71572875 6.71572875,0 15,0 Z M17.6928105,9 C15.8390093,9 14.4760922,10.8245805 14.8947368,12.7199093 C12.5073959,12.593288 10.3911249,11.3873016 8.9748882,9.55437642 C8.22222222,10.9160091 8.58445132,12.697415 9.86377709,13.5986395 C9.39284486,13.5834014 8.9497764,13.4469841 8.5624355,13.2202268 C8.53147575,14.6235828 9.48469212,15.935873 10.8661851,16.2290249 C10.4619883,16.3447619 10.0192638,16.3712472 9.56931545,16.2805442 C9.93464052,17.4839909 10.995528,18.3598186 12.25215,18.384127 C11.0447196,19.382585 9.52356381,19.8281179 8,19.6387302 C9.27106983,20.4982313 10.7808738,21 12.4028208,21 C17.7358101,21 20.748194,16.2493424 20.5669075,11.9884807 C21.127967,11.5614512 21.6150671,11.0281179 22,10.4204082 C21.4846921,10.6613152 20.9312006,10.8242177 20.3501892,10.8971429 C20.9432405,10.5227211 21.3986928,9.92879819 21.6130031,9.22131519 C21.0581355,9.56852608 20.4434125,9.82068027 19.7891297,9.95637188 C19.2655659,9.36752834 18.5190918,9 17.6928105,9 Z" id="Combined-Shape"></path>
                    </g>
                </g>
            </g>
        </g>
    </g>
</svg>